<?xml version="1.0" standalone="no"?>
<!DOCTYPE svg PUBLIC "-//W3C//DTD SVG 1.1//EN" "http://www.w3.org/Graphics/SVG/1.1/DTD/svg11.dtd" >
<svg>
<metadata>
Created by FontForge 20090622 at Thu Jul 25 13:57:28 2019
 By deploy user
Copyright 2010 Monotype Imaging Inc. All rights reserved. Designed by Nick Job.
</metadata>
<defs>
<font id="CamphorStd-Italic" horiz-adv-x="563" >
  <font-face 
    font-family="Camphor Std"
    font-weight="400"
    font-style="italic"
    font-stretch="normal"
    units-per-em="1000"
    panose-1="2 11 5 4 3 4 4 9 2 4"
    ascent="735"
    descent="-265"
    x-height="500"
    cap-height="688"
    bbox="-262 -250 1156 929"
    underline-thickness="62"
    underline-position="-63"
    slope="-10"
    unicode-range="U+0020-U+FB04"
  />
<missing-glyph horiz-adv-x="500" 
d="M12 0v665h475v-665h-475zM88 618l162 -243l161 243h-323zM60 575v-484l40 61l80 120l41 61zM440 575l-162 -242l162 -243v485zM411 48l-161 242l-162 -242h323z" />
    <glyph glyph-name="f_b" unicode="fb" horiz-adv-x="880" 
d="M44 -141l108 578h-96l12 63h96l13 69q13 75 67 118.5t132 43.5q94 0 191 -57l-39 -213q65 51 134 51q80 0 130 -55t50 -143q0 -142 -73 -234t-185 -92q-70 0 -136 54l-7 -42h-79l119 639q-49 27 -101 27q-50 0 -83.5 -28t-42.5 -77l-11 -61h148l-11 -63h-149l-108 -578
h-79zM760 303q0 67 -31.5 104.5t-87.5 37.5q-63 0 -128 -63l-52 -275q57 -52 117 -52q78 0 130 71t52 177z" />
    <glyph glyph-name="f_f_b" unicode="ffb" horiz-adv-x="1173" 
d="M44 -141l108 578h-96l12 63h96l18 100q11 61 53 96t103 35q54 0 112 -30l-13 -64q-47 28 -88 28q-35 0 -59 -20.5t-31 -57.5l-16 -87h213l12 69q13 75 67.5 118.5t132.5 43.5q94 0 191 -57l-40 -213q66 51 135 51q80 0 130 -55t50 -143q0 -142 -73 -234t-185 -92
q-70 0 -135 54l-9 -42h-79l120 639q-50 27 -101 27q-50 0 -83.5 -28t-42.5 -77l-12 -61h149l-12 -63h-148l-109 -578h-79l108 578h-212l-108 -578h-79zM1052 303q0 67 -32 104.5t-88 37.5q-62 0 -128 -63l-51 -275q55 -52 117 -52q78 0 130 71t52 177z" />
    <glyph glyph-name="f_h" unicode="fh" horiz-adv-x="880" 
d="M44 -141l108 578h-96l12 63h96l13 69q13 75 67 118.5t132 43.5q94 0 191 -57l-42 -222q75 60 154 60q62 0 103 -39.5t41 -100.5q0 -24 -5 -52l-60 -320h-79l59 317q3 16 3 38q0 40 -25 64.5t-66 24.5q-67 0 -139 -69l-70 -375h-79l119 639q-49 27 -101 27
q-50 0 -83.5 -28t-42.5 -77l-11 -61h148l-11 -63h-149l-108 -578h-79z" />
    <glyph glyph-name="f_f_h" unicode="ffh" horiz-adv-x="1173" 
d="M44 -141l108 578h-96l12 63h96l18 100q11 61 53 96t103 35q54 0 112 -30l-13 -64q-47 28 -88 28q-35 0 -59 -20.5t-31 -57.5l-16 -87h213l12 69q13 74 67.5 118t132.5 44q94 0 191 -57l-42 -222q75 60 154 60q62 0 103 -39.5t41 -100.5q0 -18 -6 -52l-59 -320h-79l58 317
q4 15 4 38q0 40 -25 64.5t-66 24.5q-67 0 -139 -69l-71 -375h-79l120 639q-50 27 -101 27q-50 0 -83.5 -28t-42.5 -77l-12 -61h149l-12 -63h-148l-109 -578h-79l108 578h-212l-108 -578h-79z" />
    <glyph glyph-name="f_j" unicode="fj" horiz-adv-x="568" 
d="M56 437l12 63h96l13 69q13 75 65 118.5t127 43.5q71 0 144 -40l-12 -67q-67 42 -124 42q-49 0 -81.5 -28t-41.5 -78l-11 -60h291l-106 -568q-13 -75 -67.5 -119t-132.5 -44q-89 0 -191 57l115 611h-96zM231 437l-108 -575q53 -28 102 -28q50 0 83.5 28.5t42.5 77.5
l92 497h-212z" />
    <glyph glyph-name="f_f_j" unicode="ffj" horiz-adv-x="859" 
d="M44 -141l108 578h-96l12 63h96l18 100q11 61 53 96t103 35q54 0 112 -30l-13 -64q-47 28 -88 28q-35 0 -59 -20.5t-31 -57.5l-16 -87h213l12 69q13 75 65 118.5t127 43.5q72 0 145 -40l-12 -67q-67 42 -125 42q-49 0 -80.5 -28t-41.5 -78l-12 -60h292l-106 -568
q-14 -75 -68 -119t-132 -44q-91 0 -191 57l114 611h-212l-108 -578h-79zM523 437l-108 -575q51 -28 102 -28q50 0 83 28t42 78l94 497h-213z" />
    <glyph glyph-name="f_k" unicode="fk" horiz-adv-x="803" 
d="M44 -141l108 578h-96l12 63h96l13 69q13 75 67 118.5t132 43.5q94 0 190 -57l-72 -387l230 213h103l-273 -249l187 -251h-92l-166 226l-43 -226h-78l119 639q-49 27 -101 27q-50 0 -83.5 -28t-42.5 -77l-11 -61h148l-11 -63h-149l-108 -578h-79z" />
    <glyph glyph-name="f_f_k" unicode="ffk" horiz-adv-x="1095" 
d="M44 -141l108 578h-96l12 63h96l18 100q11 61 53 96t103 35q54 0 112 -30l-13 -64q-47 28 -88 28q-35 0 -59 -20.5t-31 -57.5l-16 -87h213l12 69q13 74 67.5 118t132.5 44q94 0 190 -57l-73 -387l231 213h102l-271 -249l185 -251h-91l-167 226l-42 -226h-79l120 639
q-50 27 -101 27q-50 0 -83.5 -28t-42.5 -77l-12 -61h149l-12 -63h-148l-109 -578h-79l108 578h-212l-108 -578h-79z" />
    <glyph glyph-name="f_t" unicode="ft" horiz-adv-x="697" 
d="M44 -141l108 578h-96l12 63h96l13 69q13 75 67 118.5t132 43.5q94 0 191 -57l-33 -174h171l-12 -63h-170l-54 -286q-4 -22 -4 -32q0 -30 20 -47.5t53 -17.5q42 0 88 26l-14 -73q-45 -19 -95 -19q-61 0 -97 32t-36 87q0 5 5 38l54 292h-212l-108 -578h-79zM243 500h213
l25 139q-49 27 -101 27q-50 0 -83.5 -28t-42.5 -77z" />
    <glyph glyph-name="f_f_t" unicode="fft" horiz-adv-x="989" 
d="M44 -141l108 578h-96l12 63h96l18 100q11 61 53 96t103 35q54 0 112 -30l-13 -64q-47 28 -88 28q-35 0 -59 -20.5t-31 -57.5l-16 -87h213l12 69q13 74 67.5 118t132.5 44q94 0 191 -57l-33 -174h170l-12 -63h-169l-54 -286q-4 -22 -4 -32q0 -30 19.5 -47.5t53.5 -17.5
q42 0 88 26l-14 -73q-45 -19 -95 -19q-62 0 -97.5 32t-35.5 87q0 16 5 38l55 292h-213l-109 -578h-79l108 578h-212l-108 -578h-79zM534 500h213l26 139q-50 27 -101 27q-50 0 -83.5 -28t-42.5 -77z" />
    <glyph glyph-name="f_thorn" unicode="f&#xfe;" horiz-adv-x="880" 
d="M44 -141l108 578h-96l12 63h96l13 69q13 75 67 118.5t132 43.5q94 0 191 -57l-39 -213q65 51 134 51q80 0 130 -55t50 -143q0 -142 -73 -234t-185 -92q-70 0 -136 54l-48 -261h-79l160 858q-49 27 -101 27q-50 0 -83.5 -28t-42.5 -77l-11 -61h148l-11 -63h-149l-108 -578
h-79zM760 303q0 67 -31.5 104.5t-87.5 37.5q-63 0 -128 -63l-52 -275q57 -52 117 -52q78 0 130 71t52 177z" />
    <glyph glyph-name="f_f_thorn" unicode="ff&#xfe;" horiz-adv-x="1173" 
d="M44 -141l108 578h-96l12 63h96l18 100q11 61 53 96t103 35q54 0 112 -30l-13 -64q-47 28 -88 28q-35 0 -59 -20.5t-31 -57.5l-16 -87h213l12 69q13 75 67.5 118.5t132.5 43.5q94 0 191 -57l-40 -213q66 51 135 51q80 0 130 -55t50 -143q0 -142 -73 -234t-185 -92
q-70 0 -135 54l-50 -261h-79l161 858q-50 27 -101 27q-50 0 -83.5 -28t-42.5 -77l-12 -61h149l-12 -63h-148l-109 -578h-79l108 578h-212l-108 -578h-79zM1052 303q0 67 -32 104.5t-88 37.5q-62 0 -128 -63l-51 -275q55 -52 117 -52q78 0 130 71t52 177z" />
    <glyph glyph-name="f_f" unicode="ff" horiz-adv-x="658" 
d="M44 -141l108 578h-96l12 63h96l18 100q11 61 53 96t103 35q54 0 112 -30l-13 -64q-47 28 -88 28q-35 0 -59 -20.5t-31 -57.5l-16 -87h213l18 100q11 61 53 96t103 35q52 0 112 -30l-13 -64q-47 28 -88 28q-35 0 -58.5 -20.5t-31.5 -57.5l-17 -87h149l-12 -63h-148
l-109 -578h-79l108 578h-212l-108 -578h-79z" />
    <glyph glyph-name="fi" unicode="fi" horiz-adv-x="568" 
d="M44 -141l108 578h-96l12 63h96l13 69q13 75 65 118.5t127 43.5q71 0 144 -40l-12 -67q-67 42 -124 42q-49 0 -81.5 -28t-41.5 -78l-11 -60h291l-93 -500h-79l81 437h-212l-108 -578h-79z" />
    <glyph glyph-name="fl" unicode="fl" horiz-adv-x="568" 
d="M44 -141l108 578h-96l12 63h96l13 69q13 75 67 118.5t132 43.5q94 0 191 -57l-126 -674h-79l119 639q-49 27 -101 27q-50 0 -83.5 -28t-42.5 -77l-11 -61h148l-11 -63h-149l-108 -578h-79z" />
    <glyph glyph-name="f_f_i" unicode="ffi" horiz-adv-x="859" 
d="M44 -141l108 578h-96l12 63h96l18 100q11 61 53 96t103 35q54 0 112 -30l-13 -64q-47 28 -88 28q-35 0 -59 -20.5t-31 -57.5l-16 -87h213l12 69q13 75 65 118.5t127 43.5q72 0 145 -40l-12 -67q-68 42 -126 42q-48 0 -79.5 -28t-41.5 -78l-12 -60h292l-94 -500h-79
l83 437h-213l-109 -578h-79l108 578h-212l-108 -578h-79z" />
    <glyph glyph-name="f_f_l" unicode="ffl" horiz-adv-x="859" 
d="M44 -141l108 578h-96l12 63h96l18 100q11 61 53 96t103 35q54 0 112 -30l-13 -64q-47 28 -88 28q-35 0 -59 -20.5t-31 -57.5l-16 -87h213l12 69q13 74 67.5 118t132.5 44q94 0 191 -57l-127 -674h-79l120 639q-50 27 -101 27q-50 0 -83.5 -28t-42.5 -77l-12 -61h149
l-12 -63h-148l-109 -578h-79l108 578h-212l-108 -578h-79z" />
    <glyph glyph-name=".notdef" horiz-adv-x="500" 
d="M12 0v665h475v-665h-475zM88 618l162 -243l161 243h-323zM60 575v-484l40 61l80 120l41 61zM440 575l-162 -242l162 -243v485zM411 48l-161 242l-162 -242h323z" />
    <glyph glyph-name=".null" horiz-adv-x="0" 
 />
    <glyph glyph-name="nonmarkingreturn" horiz-adv-x="333" 
 />
    <glyph glyph-name="space" unicode=" " horiz-adv-x="250" 
 />
    <glyph glyph-name="exclam" unicode="!" horiz-adv-x="267" 
d="M83 196l93 492h79l-92 -492h-80zM43 36q0 26 16.5 42.5t42.5 16.5q20 0 34 -13.5t14 -34.5q0 -25 -17 -42t-42 -17q-21 0 -34.5 13.5t-13.5 34.5z" />
    <glyph glyph-name="quotedbl" unicode="&#x22;" horiz-adv-x="419" 
d="M300 465l41 223h69l-42 -223h-68zM130 465l42 223h69l-42 -223h-69z" />
    <glyph glyph-name="numbersign" unicode="#" 
d="M0 192l12 68h107l53 168h-99l13 68h107l60 192h71l-60 -192h165l60 192h72l-61 -192h98l-12 -68h-107l-52 -168h98l-13 -68h-107l-59 -192h-72l59 192h-163l-60 -192h-72l59 192h-97zM243 428l-53 -168h164l53 168h-164z" />
    <glyph glyph-name="dollar" unicode="$" 
d="M177 -125l27 148q-68 9 -141 50l15 75q88 -62 170 -62q61 0 100 32t39 82q0 37 -26 64t-63 45.5t-74 39t-63 56.5t-26 85q0 73 52.5 122t137.5 55l28 146h69l-28 -148q59 -9 125 -44l-15 -73q-81 54 -154 54q-58 0 -95.5 -30.5t-37.5 -77.5q0 -35 26 -61t62.5 -44.5
l73.5 -39t63 -57.5t26 -88q0 -76 -54 -126.5t-141 -56.5l-27 -146h-69z" />
    <glyph glyph-name="percent" unicode="%" horiz-adv-x="845" 
d="M458 128q0 96 56 162t138 66q60 0 100 -39.5t40 -100.5q0 -96 -56.5 -162t-138.5 -66q-60 0 -99.5 39.5t-39.5 100.5zM519 135q0 -43 23 -69.5t61 -26.5q53 0 90 50t37 120q0 43 -23 69.5t-61 26.5q-53 0 -90 -49.5t-37 -120.5zM88 473q0 96 56.5 161.5t138.5 65.5
q60 0 99.5 -40t39.5 -101q0 -96 -56 -161.5t-138 -65.5q-60 0 -100 40t-40 101zM150 480q0 -43 23 -69.5t61 -26.5q53 0 89.5 49t36.5 119q0 44 -23 70.5t-60 26.5q-53 0 -90 -49t-37 -120zM82 0l642 688h73l-641 -688h-74z" />
    <glyph glyph-name="ampersand" unicode="&#x26;" horiz-adv-x="628" 
d="M634 381l-12 -63h-125l-52 -280q-98 -50 -205 -50q-85 0 -142.5 50t-57.5 122q0 71 47 126t124 74q-42 20 -66.5 58t-24.5 82q0 85 64 142.5t159 57.5q82 0 164 -42l-12 -71q-75 45 -145 45q-64 0 -106 -38t-42 -96q0 -50 39.5 -83.5t99.5 -33.5h293zM123 169
q0 -49 37 -81t93 -32q59 0 120 26l45 236h-98q-88 0 -142.5 -41t-54.5 -108z" />
    <glyph glyph-name="quotesingle" unicode="'" horiz-adv-x="250" 
d="M130 465l42 223h69l-42 -223h-69z" />
    <glyph glyph-name="parenleft" unicode="(" horiz-adv-x="321" 
d="M70 190q0 153 61 290t177 239h94q-122 -101 -187.5 -235.5t-65.5 -285.5q0 -185 82 -354h-78q-83 169 -83 346z" />
    <glyph glyph-name="parenright" unicode=")" horiz-adv-x="321" 
d="M259 373q0 -153 -61 -290t-177 -239h-95q123 102 188.5 236.5t65.5 285.5q0 187 -83 353h78q84 -168 84 -346z" />
    <glyph glyph-name="asterisk" unicode="*" horiz-adv-x="446" 
d="M465 460h-152l47 -145l-62 -19l-46 144l-124 -90l-37 53l122 89l-122 90l37 52l124 -89l46 144l62 -20l-47 -144h152v-65z" />
    <glyph glyph-name="plus" unicode="+" 
d="M37 247v69h216v216h69v-216h216v-69h-216v-216h-69v216h-216z" />
    <glyph glyph-name="comma" unicode="," horiz-adv-x="250" 
d="M-55 -125l115 208h84l-127 -208h-72z" />
    <glyph glyph-name="hyphen" unicode="-" horiz-adv-x="313" 
d="M29 223l12 63h243l-12 -63h-243z" />
    <glyph glyph-name="period" unicode="." horiz-adv-x="250" 
d="M35 36q0 26 16.5 42.5t42.5 16.5q20 0 34 -13.5t14 -34.5q0 -25 -17 -42t-42 -17q-21 0 -34.5 13.5t-13.5 34.5z" />
    <glyph glyph-name="slash" unicode="/" horiz-adv-x="375" 
d="M-40 -156l382 875h84l-382 -875h-84z" />
    <glyph glyph-name="zero" unicode="0" 
d="M45 237q0 197 88.5 330t220.5 133q93 0 146 -66t53 -182q0 -197 -88.5 -330.5t-220.5 -133.5q-93 0 -146 66.5t-53 182.5zM127 248q0 -89 34 -140t90 -51q90 0 155.5 113t65.5 270q0 89 -34.5 140t-90.5 51q-90 0 -155 -113t-65 -270z" />
    <glyph glyph-name="one" unicode="1" 
d="M245 0l112 597l-194 -91l15 80l222 102h56l-129 -688h-82z" />
    <glyph glyph-name="two" unicode="2" 
d="M15 0l11 60q204 147 304.5 257t100.5 197q0 53 -31.5 84.5t-84.5 31.5q-88 0 -179 -62l15 82q88 50 180 50q81 0 132 -46.5t51 -120.5q0 -100 -91.5 -210.5t-280.5 -253.5h302l-13 -69h-416z" />
    <glyph glyph-name="three" unicode="3" 
d="M202 317l12 65h38q75 0 126 41.5t51 103.5q0 46 -34.5 75.5t-87.5 29.5q-77 0 -160 -44l14 77q79 35 161 35q81 0 134.5 -45.5t53.5 -114.5q0 -67 -43.5 -120t-112.5 -72q51 -16 81 -56t30 -93q0 -93 -71 -152t-181 -59q-92 0 -185 55l14 74q85 -61 169 -61
q75 0 123.5 40.5t48.5 103.5q0 52 -41.5 84.5t-106.5 32.5h-33z" />
    <glyph glyph-name="four" unicode="4" 
d="M295 0l36 191h-312l11 59l403 438h70l-81 -434h108l-12 -63h-108l-36 -191h-79zM116 254h227l58 310z" />
    <glyph glyph-name="five" unicode="5" 
d="M531 688l-13 -69h-274l-39 -205q37 6 70 6q87 0 144.5 -53.5t57.5 -134.5q0 -107 -75 -175.5t-193 -68.5q-85 0 -168 50l15 76q77 -57 153 -57q79 0 132 46.5t53 118.5q0 60 -41 97t-108 37q-54 0 -126 -16l65 348h347z" />
    <glyph glyph-name="six" unicode="6" 
d="M375 688h119q-221 -146 -304 -296q63 41 138 41q78 0 130 -53.5t52 -134.5q0 -107 -74 -182t-181 -75q-89 0 -144.5 57.5t-55.5 150.5q0 127 83 255t237 237zM154 302q-19 -48 -19 -100q0 -65 35 -105t92 -40q68 0 118 53t50 126q0 57 -35 93.5t-89 36.5q-79 0 -152 -64z
" />
    <glyph glyph-name="seven" unicode="7" 
d="M79 0l380 619h-330l12 69h425l-9 -52l-388 -636h-90z" />
    <glyph glyph-name="eight" unicode="8" 
d="M118 492q0 88 68.5 148t169.5 60q80 0 133 -46.5t53 -116.5q0 -65 -38.5 -114.5t-107.5 -73.5q48 -19 75 -57.5t27 -87.5q0 -93 -72.5 -154.5t-183.5 -61.5q-83 0 -141 49t-58 119q0 71 43.5 124.5t119.5 74.5q-42 17 -65 53.5t-23 83.5zM124 167q0 -49 35.5 -81
t89.5 -32q73 0 120.5 42.5t47.5 107.5q0 50 -36 81.5t-90 31.5q-73 0 -120 -42.5t-47 -107.5zM197 491q0 -49 31.5 -79t82.5 -30q64 0 108 42t44 102q0 48 -32 78t-82 30q-64 0 -108 -41.5t-44 -101.5z" />
    <glyph glyph-name="nine" unicode="9" 
d="M224 0h-119q221 148 303 296q-64 -41 -137 -41q-79 0 -131 53.5t-52 134.5q0 108 74 182.5t181 74.5q89 0 145 -57.5t56 -150.5q0 -127 -83 -254.5t-237 -237.5zM444 386q19 48 19 100q0 65 -34.5 105t-92.5 40q-68 0 -117.5 -52.5t-49.5 -125.5q0 -57 34.5 -94t88.5 -37
q80 0 152 64z" />
    <glyph glyph-name="colon" unicode=":" horiz-adv-x="250" 
d="M35 36q0 26 16.5 42.5t42.5 16.5q20 0 34 -13.5t14 -34.5q0 -25 -17 -42t-42 -17q-21 0 -34.5 13.5t-13.5 34.5zM109 453q0 25 16.5 42t41.5 17q22 0 35 -13t13 -35q0 -25 -16.5 -42t-41.5 -17q-21 0 -34.5 13.5t-13.5 34.5z" />
    <glyph glyph-name="semicolon" unicode=";" horiz-adv-x="250" 
d="M-55 -125l115 208h84l-127 -208h-72zM109 453q0 25 16.5 42t41.5 17q22 0 35 -13t13 -35q0 -25 -16.5 -42t-41.5 -17q-21 0 -34.5 13.5t-13.5 34.5z" />
    <glyph glyph-name="less" unicode="&#x3c;" 
d="M538 38l-501 215v57l501 215v-74l-394 -169l394 -170v-74z" />
    <glyph glyph-name="equal" unicode="=" 
d="M37 146v69h501v-69h-501zM37 348v69h501v-69h-501z" />
    <glyph glyph-name="greater" unicode="&#x3e;" 
d="M37 525l501 -215v-57l-501 -215v74l394 170l-394 169v74z" />
    <glyph glyph-name="question" unicode="?" horiz-adv-x="444" 
d="M143 196l5 25q8 45 32.5 83t53 63.5l56 49.5t46 53.5t18.5 63.5q0 44 -28 71t-74 27q-76 0 -156 -62l16 85q71 45 159 45q73 0 120 -44t47 -112q0 -55 -30 -102t-66.5 -76t-73 -70.5t-46.5 -84.5l-3 -15h-76zM106 36q0 25 17 42t42 17q21 0 34.5 -13.5t13.5 -34.5
q0 -25 -16.5 -42t-41.5 -17q-22 0 -35.5 13.5t-13.5 34.5z" />
    <glyph glyph-name="at" unicode="@" horiz-adv-x="962" 
d="M706 469l-58 -311q-3 -10 -3 -21q0 -21 15 -35t38 -14q62 0 107.5 76t45.5 187q0 130 -84 207.5t-222 77.5q-184 0 -305 -131.5t-121 -328.5q0 -141 87.5 -226.5t232.5 -85.5q109 0 230 62l-13 -72q-114 -54 -223 -54q-173 0 -281 102.5t-108 267.5q0 230 143 380
t363 150q164 0 270 -95.5t106 -246.5q0 -141 -71 -238.5t-174 -97.5q-76 0 -104 54q-67 -54 -140 -54q-70 0 -113.5 48t-43.5 125q0 124 63.5 204t161.5 80q63 0 118 -45l6 35h77zM359 205q0 -55 27 -86.5t74 -31.5q53 0 106 51l45 233q-45 42 -98 42q-66 0 -110 -59.5
t-44 -148.5z" />
    <glyph glyph-name="A" unicode="A" horiz-adv-x="622" 
d="M-26 0l392 688h65l136 -688h-77l-37 197h-283l-110 -197h-86zM382 577l-177 -317h236z" />
    <glyph glyph-name="B" unicode="B" horiz-adv-x="595" 
d="M191 318l-47 -254h139q74 0 120.5 41t46.5 107q0 49 -33.5 77.5t-91.5 28.5h-134zM53 0l129 688h206q80 0 129 -42.5t49 -112.5q0 -62 -36 -111.5t-95 -70.5q44 -14 71 -51.5t27 -86.5q0 -92 -71.5 -152.5t-179.5 -60.5h-229zM249 624l-45 -243h123q68 0 113.5 40.5
t45.5 101.5q0 45 -32.5 73t-85.5 28h-119z" />
    <glyph glyph-name="C" unicode="C" horiz-adv-x="604" 
d="M62 262q0 190 106 314t269 124q101 0 192 -59l-15 -75q-85 65 -174 65q-126 0 -210 -102.5t-84 -255.5q0 -97 55 -156.5t145 -59.5q95 0 183 54l-14 -80q-85 -43 -184 -43q-118 0 -193.5 77t-75.5 197z" />
    <glyph glyph-name="D" unicode="D" horiz-adv-x="685" 
d="M53 0l128 688h193q126 0 205 -73t79 -189q0 -196 -105 -311t-285 -115h-215zM251 622l-105 -556h129q134 0 216 97t82 254q0 96 -57 150.5t-158 54.5h-107z" />
    <glyph glyph-name="E" unicode="E" horiz-adv-x="546" 
d="M53 0l129 688h385l-12 -66h-304l-45 -240h264l-11 -65h-265l-48 -251h312l-12 -66h-393z" />
    <glyph glyph-name="F" unicode="F" horiz-adv-x="522" 
d="M53 0l129 688h385l-12 -66h-304l-48 -254h265l-12 -67h-266l-56 -301h-81z" />
    <glyph glyph-name="G" unicode="G" horiz-adv-x="665" 
d="M617 354l-59 -316q-112 -50 -220 -50q-122 0 -199 77t-77 197q0 190 107 314t274 124q103 0 201 -66l-14 -74q-91 71 -185 71q-128 0 -214 -102.5t-86 -255.5q0 -97 56 -156.5t147 -59.5q74 0 141 30l39 204h-158l12 63h235z" />
    <glyph glyph-name="H" unicode="H" horiz-adv-x="716" 
d="M53 0l129 688h81l-57 -305h354l58 305h81l-129 -688h-82l59 317h-354l-59 -317h-81z" />
    <glyph glyph-name="I" unicode="I" horiz-adv-x="280" 
d="M53 0l129 688h81l-129 -688h-81z" />
    <glyph glyph-name="J" unicode="J" horiz-adv-x="462" 
d="M448 688l-99 -529q-14 -79 -69.5 -125t-136.5 -46q-69 0 -148 42l15 71q67 -44 128 -44q52 0 87 30.5t45 83.5l97 517h81z" />
    <glyph glyph-name="K" unicode="K" horiz-adv-x="600" 
d="M53 0l129 688h80l-58 -309l344 309h112l-386 -341l268 -347h-97l-251 324l-61 -324h-80z" />
    <glyph glyph-name="L" unicode="L" horiz-adv-x="493" 
d="M53 0l129 688h81l-117 -622h291l-13 -66h-371z" />
    <glyph glyph-name="M" unicode="M" horiz-adv-x="808" 
d="M53 0l129 688h67l167 -343l294 343h81l-129 -688h-79l104 553l-257 -300h-50l-146 300l-103 -553h-78z" />
    <glyph glyph-name="N" unicode="N" horiz-adv-x="716" 
d="M53 0l129 688h67l268 -553l104 553h78l-129 -688h-68l-268 553l-103 -553h-78z" />
    <glyph glyph-name="O" unicode="O" horiz-adv-x="716" 
d="M62 262q0 190 104 314t262 124q119 0 190 -75t71 -199q0 -190 -104 -314t-262 -124q-118 0 -189.5 75t-71.5 199zM146 271q0 -98 50 -156t134 -58q114 0 194.5 104.5t80.5 255.5q0 99 -49.5 156.5t-134.5 57.5q-114 0 -194.5 -104.5t-80.5 -255.5z" />
    <glyph glyph-name="P" unicode="P" horiz-adv-x="577" 
d="M53 0l129 688h194q92 0 148 -48.5t56 -129.5q0 -107 -78.5 -176.5t-198.5 -69.5h-121l-49 -264h-80zM250 623l-55 -294h109q85 0 138.5 47.5t53.5 123.5q0 57 -38 90t-105 33h-103z" />
    <glyph glyph-name="Q" unicode="Q" horiz-adv-x="716" 
d="M62 262q0 190 104 314t262 124q119 0 190 -75t71 -199q0 -129 -50.5 -231.5t-138.5 -157.5l106 -139h-92l-81 110q-54 -20 -110 -20q-118 0 -189.5 75t-71.5 199zM146 271q0 -98 50 -156t134 -58q114 0 194.5 104.5t80.5 255.5q0 99 -49.5 156.5t-134.5 57.5
q-114 0 -194.5 -104.5t-80.5 -255.5z" />
    <glyph glyph-name="R" unicode="R" horiz-adv-x="591" 
d="M413 0l-119 272h-111l-50 -272h-80l129 688h190q91 0 145.5 -47.5t54.5 -126.5q0 -86 -55 -150t-143 -83l124 -281h-85zM250 623l-55 -286h105q83 0 135.5 47t52.5 120q0 55 -37.5 87t-101.5 32h-99z" />
    <glyph glyph-name="S" unicode="S" horiz-adv-x="532" 
d="M28 48l14 76q98 -69 187 -69q69 0 112 36t43 92q0 35 -20.5 62.5t-51.5 44.5l-67.5 37.5t-67.5 40.5t-51.5 55.5t-20.5 81.5q0 86 65 140.5t168 54.5q91 0 185 -52l-14 -75q-86 60 -171 60q-67 0 -109 -33.5t-42 -88.5q0 -34 20.5 -60.5t51.5 -42.5l67.5 -36.5
t67.5 -41.5t51.5 -57.5t20.5 -83.5q0 -88 -66.5 -144.5t-170.5 -56.5q-96 0 -201 60z" />
    <glyph glyph-name="T" unicode="T" horiz-adv-x="571" 
d="M198 0l116 622h-218l12 66h519l-13 -66h-218l-117 -622h-81z" />
    <glyph glyph-name="U" unicode="U" horiz-adv-x="716" 
d="M702 688l-85 -457q-21 -112 -100 -177.5t-194 -65.5q-100 0 -165.5 59.5t-65.5 150.5q0 28 7 68l79 422h81l-79 -422q-6 -30 -6 -58q0 -67 43 -109t113 -42q80 0 135.5 49t71.5 133l84 449h81z" />
    <glyph glyph-name="V" unicode="V" horiz-adv-x="622" 
d="M683 688l-391 -688h-65l-136 688h80l105 -572l319 572h88z" />
    <glyph glyph-name="W" unicode="W" horiz-adv-x="997" 
d="M1052 688l-355 -688h-72l-72 580l-289 -580h-71l-96 688h77l72 -580l289 580h71l72 -580l289 580h85z" />
    <glyph glyph-name="X" unicode="X" horiz-adv-x="627" 
d="M-28 0l305 353l-167 335h90l135 -277l231 277h99l-291 -341l172 -347h-90l-139 289l-244 -289h-101z" />
    <glyph glyph-name="Y" unicode="Y" horiz-adv-x="580" 
d="M196 0l56 299l-165 389h86l129 -319l248 319h99l-316 -396l-55 -292h-82z" />
    <glyph glyph-name="Z" unicode="Z" horiz-adv-x="606" 
d="M-4 0l11 59l510 563h-384l13 66h485l-11 -59l-510 -563h409l-12 -66h-511z" />
    <glyph glyph-name="bracketleft" unicode="[" horiz-adv-x="321" 
d="M29 -156l164 875h187l-12 -62h-108l-141 -751h108l-12 -62h-186z" />
    <glyph glyph-name="backslash" unicode="\" horiz-adv-x="375" 
d="M261 -156l-182 875h79l181 -875h-78z" />
    <glyph glyph-name="bracketright" unicode="]" horiz-adv-x="321" 
d="M304 719l-165 -875h-186l11 62h109l141 751h-108l11 62h187z" />
    <glyph glyph-name="asciicircum" unicode="^" 
d="M56 188l215 500h57l215 -500h-75l-169 394l-169 -394h-74z" />
    <glyph glyph-name="underscore" unicode="_" horiz-adv-x="500" 
d="M-77 -157l12 63h500l-12 -63h-500z" />
    <glyph glyph-name="grave" unicode="`" horiz-adv-x="250" 
d="M171 571l-87 148h75l74 -148h-62z" />
    <glyph glyph-name="a" unicode="a" horiz-adv-x="552" 
d="M519 500l-94 -500h-77l8 42q-68 -54 -137 -54q-80 0 -130 55t-50 144q0 141 73 233t184 92q71 0 136 -53l8 41h79zM121 198q0 -68 31.5 -105.5t88.5 -37.5q61 0 127 63l52 275q-55 52 -117 52q-79 0 -130.5 -70t-51.5 -177z" />
    <glyph glyph-name="b" unicode="b" horiz-adv-x="552" 
d="M33 0l135 719h79l-48 -258q65 51 134 51q80 0 130 -55t50 -143q0 -142 -73 -234t-184 -92q-71 0 -136 54l-8 -42h-79zM432 303q0 67 -32 104.5t-88 37.5q-63 0 -128 -63l-52 -275q57 -52 117 -52q78 0 130.5 71t52.5 177z" />
    <glyph glyph-name="c" unicode="c" horiz-adv-x="467" 
d="M39 192q0 138 79.5 229t201.5 91q76 0 144 -43l-13 -71q-61 48 -128 48q-87 0 -144.5 -69.5t-57.5 -173.5q0 -67 37.5 -108t100.5 -41q67 0 135 40l-14 -74q-66 -32 -138 -32q-90 0 -146.5 57t-56.5 147z" />
    <glyph glyph-name="d" unicode="d" horiz-adv-x="552" 
d="M560 719l-135 -719h-77l8 42q-68 -54 -137 -54q-80 0 -130 55t-50 144q0 141 73 233t184 92q71 0 136 -53l49 260h79zM121 198q0 -68 31.5 -105.5t88.5 -37.5q61 0 127 63l52 275q-55 52 -117 52q-79 0 -130.5 -70t-51.5 -177z" />
    <glyph glyph-name="e" unicode="e" horiz-adv-x="503" 
d="M39 194q0 140 74 229t191 89q74 0 121.5 -51t47.5 -131q0 -50 -11 -98h-342q-2 -11 -2 -32q0 -66 39 -107.5t102 -41.5q75 0 151 48l-14 -76q-75 -35 -154 -35q-88 0 -145.5 58.5t-57.5 147.5zM130 288h264q4 20 4 42q0 53 -28 86t-73 33q-60 0 -105 -43t-62 -118z" />
    <glyph glyph-name="f" unicode="f" horiz-adv-x="366" 
d="M44 -141l108 578h-96l12 63h96l18 100q11 61 53 96t103 35q54 0 112 -29l-13 -65q-47 28 -88 28q-35 0 -59 -20.5t-31 -57.5l-16 -87h148l-11 -63h-149l-108 -578h-79z" />
    <glyph glyph-name="g" unicode="g" horiz-adv-x="552" 
d="M519 500l-98 -523q-18 -97 -82.5 -152.5t-158.5 -55.5q-87 0 -172 45l13 70q80 -51 159 -51q61 0 106 40.5t57 107.5l10 59q-66 -52 -134 -52q-80 0 -130 55t-50 144q0 141 73 233t184 92q71 0 136 -53l8 41h79zM121 198q0 -68 31.5 -105.5t88.5 -37.5q61 0 127 63
l52 275q-55 52 -117 52q-79 0 -130.5 -70t-51.5 -177z" />
    <glyph glyph-name="h" unicode="h" horiz-adv-x="552" 
d="M33 0l135 719h79l-50 -267q74 60 153 60q62 0 103.5 -39.5t41.5 -100.5q0 -18 -6 -52l-60 -320h-79l59 317q4 22 4 38q0 40 -25 64.5t-66 24.5q-68 0 -140 -69l-70 -375h-79z" />
    <glyph glyph-name="i" unicode="i" horiz-adv-x="239" 
d="M33 0l94 500h79l-94 -500h-79zM143 639q0 24 15.5 39.5t39.5 15.5q19 0 31.5 -12.5t12.5 -31.5q0 -23 -16 -38.5t-39 -15.5q-19 0 -31.5 12t-12.5 31z" />
    <glyph glyph-name="j" unicode="j" horiz-adv-x="239" 
d="M206 500l-112 -599q-11 -61 -53 -96.5t-103 -35.5q-55 0 -112 30l13 65q48 -29 88 -29q35 0 59 21t31 57l110 587h79zM143 639q0 24 15.5 39.5t39.5 15.5q19 0 31.5 -12.5t12.5 -31.5q0 -23 -16 -38.5t-39 -15.5q-19 0 -31.5 12t-12.5 31z" />
    <glyph glyph-name="k" unicode="k" horiz-adv-x="474" 
d="M33 0l135 719h78l-82 -432l232 213h102l-272 -249l186 -251h-92l-167 226l-42 -226h-78z" />
    <glyph glyph-name="l" unicode="l" horiz-adv-x="239" 
d="M33 0l135 719h79l-135 -719h-79z" />
    <glyph glyph-name="m" unicode="m" horiz-adv-x="839" 
d="M33 0l94 500h77l-9 -48q71 60 148 60q43 0 77.5 -21.5t51.5 -57.5q84 79 173 79q59 0 98.5 -39t39.5 -97q0 -22 -5 -49l-62 -327h-79l61 323q4 24 4 36q0 37 -23.5 61t-62.5 24q-67 0 -131 -67l-71 -377h-79l61 323q4 24 4 36q0 37 -23.5 61t-62.5 24q-62 0 -132 -67
l-70 -377h-79z" />
    <glyph glyph-name="n" unicode="n" horiz-adv-x="552" 
d="M33 0l94 500h77l-9 -50q74 62 155 62q62 0 103.5 -39.5t41.5 -100.5q0 -18 -6 -52l-60 -320h-79l59 317q4 24 4 38q0 40 -25 64.5t-66 24.5q-67 0 -140 -70l-70 -374h-79z" />
    <glyph glyph-name="o" unicode="o" horiz-adv-x="552" 
d="M39 192q0 139 77.5 229.5t198.5 90.5q89 0 143.5 -55.5t54.5 -147.5q0 -140 -77.5 -230.5t-198.5 -90.5q-89 0 -143.5 56t-54.5 148zM121 201q0 -67 33.5 -107t90.5 -40q78 0 132.5 71.5t54.5 174.5q0 67 -34 106.5t-91 39.5q-78 0 -132 -71t-54 -174z" />
    <glyph glyph-name="p" unicode="p" horiz-adv-x="552" 
d="M-8 -219l135 719h77l-7 -41q64 53 136 53q80 0 130 -55t50 -143q0 -142 -73 -234t-184 -92q-71 0 -136 54l-49 -261h-79zM432 303q0 67 -32 104.5t-88 37.5q-63 0 -128 -63l-52 -275q57 -52 117 -52q78 0 130.5 71t52.5 177z" />
    <glyph glyph-name="q" unicode="q" horiz-adv-x="552" 
d="M519 500l-135 -719h-79l48 259q-66 -52 -134 -52q-80 0 -130 55t-50 144q0 141 73 233t184 92q71 0 136 -53l8 41h79zM121 198q0 -68 31.5 -105.5t88.5 -37.5q61 0 127 63l52 275q-55 52 -117 52q-79 0 -130.5 -70t-51.5 -177z" />
    <glyph glyph-name="r" unicode="r" horiz-adv-x="376" 
d="M33 0l94 500h77l-10 -54q69 66 142 66q34 0 57 -13l-13 -72q-28 14 -56 14q-73 0 -143 -76l-69 -365h-79z" />
    <glyph glyph-name="s" unicode="s" horiz-adv-x="415" 
d="M15 32l13 71q73 -51 138 -51q46 0 74.5 23t28.5 60q0 28 -20.5 48.5t-49.5 35t-58.5 31t-50 45.5t-20.5 69q0 66 49.5 107t128.5 41q71 0 140 -38l-12 -70q-67 44 -128 44q-43 0 -70.5 -22t-27.5 -57q0 -26 20.5 -46t49.5 -34.5t58 -31t49.5 -46.5t20.5 -71
q0 -68 -50.5 -110t-131.5 -42q-75 0 -151 44z" />
    <glyph glyph-name="t" unicode="t" horiz-adv-x="405" 
d="M269 641l-26 -141h170l-12 -63h-170l-54 -286q-3 -17 -3 -32q0 -30 19.5 -47.5t52.5 -17.5q38 0 88 26l-13 -73q-48 -19 -96 -19q-60 0 -96 32.5t-36 86.5q0 14 4 38l55 292h-96l12 63h96l26 141h79z" />
    <glyph glyph-name="u" unicode="u" horiz-adv-x="552" 
d="M519 500l-94 -500h-77l10 51q-77 -63 -156 -63q-62 0 -103.5 40t-41.5 100q0 26 6 53l60 319h79l-59 -316q-4 -16 -4 -38q0 -41 25 -65.5t67 -24.5q66 0 138 70l71 374h79z" />
    <glyph glyph-name="v" unicode="v" horiz-adv-x="481" 
d="M508 500l-284 -500h-65l-98 500h77l70 -392l215 392h85z" />
    <glyph glyph-name="w" unicode="w" horiz-adv-x="755" 
d="M778 500l-259 -500h-71l-46 400l-196 -400h-70l-71 500h75l46 -400l197 400h70l47 -400l196 400h82z" />
    <glyph glyph-name="x" unicode="x" horiz-adv-x="486" 
d="M-27 0l222 257l-120 243h85l90 -189l154 189h94l-211 -249l124 -251h-86l-93 197l-163 -197h-96z" />
    <glyph glyph-name="y" unicode="y" horiz-adv-x="481" 
d="M508 500l-410 -719h-81l139 235l-95 484h77l70 -392l215 392h85z" />
    <glyph glyph-name="z" unicode="z" horiz-adv-x="469" 
d="M-6 0l10 55l347 382h-261l13 63h360l-11 -55l-346 -381h280l-12 -64h-380z" />
    <glyph glyph-name="braceleft" unicode="{" horiz-adv-x="321" 
d="M380 719l-12 -62h-16q-40 0 -67.5 -22.5t-34.5 -62.5l-33 -179q-18 -89 -108 -114q31 -10 48.5 -37t17.5 -62q0 -13 -4 -35l-27 -140q-4 -18 -4 -29q0 -32 19.5 -51t52.5 -19h15l-12 -62h-18q-63 0 -99 34t-36 93q0 14 4 38l27 141q4 22 4 33q0 28 -19 48t-47 20h-10
l12 61h9q34 0 62.5 27.5t36.5 69.5l34 179q11 61 58.5 96t119.5 35h27z" />
    <glyph glyph-name="bar" unicode="|" horiz-adv-x="250" 
d="M91 -250v1001h69v-1001h-69z" />
    <glyph glyph-name="braceright" unicode="}" horiz-adv-x="321" 
d="M-47 -156l11 62h17q40 0 67 23t34 63l34 178q8 42 36.5 72t71.5 42q-31 10 -48.5 37t-17.5 62q0 13 4 35l26 140q5 25 5 29q0 33 -20 51.5t-53 18.5h-15l12 62h19q63 0 98.5 -34t35.5 -93q0 -21 -4 -38l-26 -141q-4 -22 -4 -33q0 -27 19 -47.5t46 -20.5h10l-11 -61h-9
q-35 0 -63.5 -27.5t-36.5 -69.5l-33 -179q-11 -61 -58.5 -96t-118.5 -35h-28z" />
    <glyph glyph-name="asciitilde" unicode="~" 
d="M41 208q0 72 38 117t99 45q42 0 81 -27t71.5 -54t59.5 -27q33 0 54.5 26t21.5 67h68q0 -72 -38 -117t-99 -45q-42 0 -81 27t-71.5 54t-59.5 27q-33 0 -54.5 -26t-21.5 -67h-68z" />
    <glyph glyph-name="uni00A0" unicode="&#xa0;" horiz-adv-x="250" 
 />
    <glyph glyph-name="exclamdown" unicode="&#xa1;" horiz-adv-x="267" 
d="M183 305l-93 -493h-78l92 493h79zM224 464q0 -25 -17 -42t-42 -17q-21 0 -34.5 13.5t-13.5 34.5q0 25 16.5 42t42.5 17q21 0 34.5 -13t13.5 -35z" />
    <glyph glyph-name="cent" unicode="&#xa2;" 
d="M226 -63l29 151q-69 16 -110 69.5t-41 128.5q0 129 69 217t179 100l27 148h69l-28 -148q59 -8 109 -40l-12 -71q-63 48 -129 48q-87 0 -144.5 -69.5t-57.5 -174.5q0 -66 38 -107t101 -41q66 0 134 40l-13 -75q-58 -27 -124 -30l-27 -146h-69z" />
    <glyph glyph-name="sterling" unicode="&#xa3;" 
d="M12 0l9 51l128 267h-70l12 64h89l94 196q58 122 175 122q57 0 118 -32l-13 -70q-49 33 -95 33q-71 0 -108 -75l-84 -174h153l-12 -64h-171l-122 -252h363l-13 -66h-453z" />
    <glyph glyph-name="currency" unicode="&#xa4;" 
d="M98 344q0 69 35 118l-90 90l48 48l90 -90q50 36 118 36t118 -36l90 90l48 -48l-90 -90q36 -52 36 -118q0 -68 -36 -118l90 -90l-48 -48l-91 90q-47 -35 -117 -35q-69 0 -118 35l-90 -90l-48 48l90 90q-35 49 -35 118zM162 344q0 -60 38.5 -98.5t98.5 -38.5
q61 0 99.5 38.5t38.5 98.5q0 61 -38.5 99.5t-99.5 38.5q-60 0 -98.5 -38.5t-38.5 -99.5z" />
    <glyph glyph-name="yen" unicode="&#xa5;" 
d="M188 0l28 150h-155l11 57h155l18 98h-155l11 57h135l-139 326h87l116 -288l224 288h97l-260 -326h131l-10 -57h-155l-19 -98h156l-11 -57h-155l-29 -150h-81z" />
    <glyph glyph-name="brokenbar" unicode="&#xa6;" horiz-adv-x="250" 
d="M91 313v375h69v-375h-69zM91 -188v376h69v-376h-69z" />
    <glyph glyph-name="section" unicode="&#xa7;" horiz-adv-x="483" 
d="M4 -87l14 75q83 -58 155 -58q53 0 86 26.5t33 69.5q0 32 -23 55t-56 40t-66.5 36.5t-56.5 54.5t-23 83q0 93 92 153q-33 38 -33 89q0 71 55 117t141 46q78 0 155 -42l-13 -74q-73 49 -142 49q-51 0 -82.5 -25.5t-31.5 -66.5q0 -26 16.5 -46.5t41.5 -33.5t53.5 -30
t53.5 -35t41.5 -50t16.5 -74q0 -95 -89 -151q31 -40 31 -91q0 -74 -55 -120.5t-145 -46.5q-83 0 -169 50zM212 404q-68 -40 -68 -105q0 -21 7 -37.5t24 -30t30 -22t42 -22.5t42 -22q66 40 66 103q0 22 -7 39t-24 31t-30 22t-41 22.5z" />
    <glyph glyph-name="dieresis" unicode="&#xa8;" horiz-adv-x="250" 
d="M48 639q0 24 15.5 39t38.5 15q19 0 31 -12t12 -31q0 -23 -15.5 -38.5t-37.5 -15.5q-19 0 -31.5 12t-12.5 31zM250 639q0 24 15.5 39t38.5 15q19 0 31 -12t12 -31q0 -23 -15.5 -38.5t-38.5 -15.5q-19 0 -31 12t-12 31z" />
    <glyph glyph-name="copyright" unicode="&#xa9;" horiz-adv-x="845" 
d="M81 344q0 158 100.5 259t258.5 101t259 -101t101 -259t-101 -259t-259 -101t-258.5 101t-100.5 259zM134 344q0 -135 86 -221t220 -86q135 0 221 86t86 221t-86 221t-221 86q-134 0 -220 -86t-86 -221zM256 344q0 92 55.5 151t142.5 59q61 0 114 -29v-61q-55 36 -105 36
q-61 0 -100 -44t-39 -112t39 -111.5t100 -43.5q52 0 105 35v-61q-56 -29 -114 -29q-87 0 -142.5 59t-55.5 151z" />
    <glyph glyph-name="ordfeminine" unicode="&#xaa;" horiz-adv-x="362" 
d="M43 257l10 49h277l-10 -49h-277zM391 688l-58 -313h-61l5 24q-40 -31 -83 -31q-50 0 -81.5 35t-31.5 91q0 87 45.5 144.5t115.5 57.5q43 0 81 -32l5 24h63zM146 502q0 -38 17.5 -59.5t49.5 -21.5q34 0 72 36l29 157q-33 28 -65 28q-44 0 -73.5 -40t-29.5 -100z" />
    <glyph glyph-name="guillemotleft" unicode="&#xab;" horiz-adv-x="596" 
d="M588 458l-223 -211l141 -204h-80l-162 210l233 205h91zM373 458l-223 -211l141 -204h-80l-162 210l232 205h92z" />
    <glyph glyph-name="logicalnot" unicode="&#xac;" 
d="M37 247v69h501v-285h-69v216h-432z" />
    <glyph glyph-name="uni00AD" unicode="&#xad;" horiz-adv-x="313" 
d="M29 223l12 63h243l-12 -63h-243z" />
    <glyph glyph-name="registered" unicode="&#xae;" horiz-adv-x="500" 
d="M79 485q0 95 60.5 155t154.5 60t154.5 -60t60.5 -155t-60.5 -155t-154.5 -60t-154.5 60t-60.5 155zM116 485q0 -78 50 -128t128 -50t128 50t50 128t-50 128t-128 50t-128 -50t-50 -128zM263 568v-80h32q19 0 31.5 11.5t12.5 29.5q0 17 -12.5 28t-31.5 11h-32zM221 368
v234h80q36 0 58 -20.5t22 -52.5q0 -50 -48 -68l56 -93h-45l-52 87h-29v-87h-42z" />
    <glyph glyph-name="macron" unicode="&#xaf;" horiz-adv-x="250" 
d="M42 617l11 57h302l-11 -57h-302z" />
    <glyph glyph-name="degree" unicode="&#xb0;" horiz-adv-x="352" 
d="M107 577q0 54 34.5 88.5t89.5 34.5q54 0 88.5 -34.5t34.5 -88.5q0 -55 -34.5 -89.5t-88.5 -34.5q-55 0 -89.5 34.5t-34.5 89.5zM160 577q0 -31 20 -51t51 -20t50.5 20t19.5 51q0 30 -19.5 50t-50.5 20t-51 -20t-20 -50z" />
    <glyph glyph-name="plusminus" unicode="&#xb1;" 
d="M37 342v68h216v217h69v-217h216v-68h-216v-216h-69v216h-216zM37 0v69h501v-69h-501z" />
    <glyph glyph-name="twosuperior" unicode="&#xb2;" horiz-adv-x="309" 
d="M50 407l9 44q226 158 226 250q0 29 -17 46t-46 17q-50 0 -102 -37l11 65q52 28 109 28q50 0 81 -29.5t31 -77.5q0 -102 -200 -252h161l-10 -54h-253z" />
    <glyph glyph-name="threesuperior" unicode="&#xb3;" horiz-adv-x="305" 
d="M159 588l10 51h21q40 0 66.5 21t26.5 52q0 24 -18 39t-46 15q-45 0 -94 -26l11 60q48 20 96 20q50 0 82.5 -27.5t32.5 -70.5q0 -38 -24 -68t-64 -42q29 -10 46 -33t17 -54q0 -54 -43 -89.5t-109 -35.5q-60 0 -112 32l10 58q48 -36 100 -36q38 0 63 20.5t25 52.5
q0 27 -21.5 44t-56.5 17h-19z" />
    <glyph glyph-name="acute" unicode="&#xb4;" horiz-adv-x="250" 
d="M134 571l130 148h86l-144 -148h-72z" />
    <glyph glyph-name="mu" unicode="&#xb5;" horiz-adv-x="556" 
d="M-8 -219l135 719h79l-59 -316q-4 -16 -4 -38q0 -41 25 -65.5t67 -24.5q66 0 139 70l70 374h79l-94 -500h-77l10 51q-70 -61 -145 -61q-60 0 -99 45l-47 -254h-79z" />
    <glyph glyph-name="paragraph" unicode="&#xb6;" horiz-adv-x="573" 
d="M313 296h-45q-85 0 -136 45t-51 120q0 98 72.5 162.5t182.5 64.5h219l-151 -813h-69l138 744h-99z" />
    <glyph glyph-name="periodcentered" unicode="&#xb7;" horiz-adv-x="250" 
d="M72 245q0 26 16.5 42.5t42.5 16.5q20 0 34 -13.5t14 -34.5q0 -25 -17 -42t-42 -17q-21 0 -34.5 13.5t-13.5 34.5z" />
    <glyph glyph-name="cedilla" unicode="&#xb8;" horiz-adv-x="250" 
d="M115 0l-24 -58q26 -7 42 -27t16 -46q0 -43 -35 -71.5t-88 -28.5q-40 0 -82 24l10 52q34 -24 69 -24q27 0 43.5 13.5t16.5 34.5t-16.5 33t-43.5 12h-4l39 86h57z" />
    <glyph glyph-name="onesuperior" unicode="&#xb9;" horiz-adv-x="252" 
d="M152 407l63 334l-111 -49l11 61l135 60h44l-76 -406h-66z" />
    <glyph glyph-name="ordmasculine" unicode="&#xba;" horiz-adv-x="362" 
d="M43 257l10 49h277l-10 -49h-277zM81 497q0 87 49.5 143t127.5 56q58 0 93.5 -36t35.5 -93q0 -86 -50 -142.5t-128 -56.5q-57 0 -92.5 35.5t-35.5 93.5zM146 503q0 -38 19 -60t51 -22q44 0 75 40.5t31 99.5q0 37 -19.5 59.5t-51.5 22.5q-44 0 -74.5 -40.5t-30.5 -99.5z
" />
    <glyph glyph-name="guillemotright" unicode="&#xbb;" horiz-adv-x="596" 
d="M8 43l223 210l-141 205h80l162 -211l-233 -204h-91zM223 43l223 210l-141 205h80l162 -211l-232 -204h-92z" />
    <glyph glyph-name="onequarter" unicode="&#xbc;" horiz-adv-x="845" 
d="M175 282l63 334l-111 -49l11 61l135 60h44l-76 -406h-66zM82 0l642 688h73l-641 -688h-74zM653 0l20 106h-180l9 46l233 254h56l-47 -250h61l-9 -50h-62l-20 -106h-61zM566 156h116l29 156z" />
    <glyph glyph-name="onehalf" unicode="&#xbd;" horiz-adv-x="845" 
d="M82 0l642 688h73l-641 -688h-74zM492 0l9 44q226 158 226 250q0 29 -17 46t-46 17q-50 0 -102 -37l11 65q52 28 109 28q50 0 81 -29.5t31 -77.5q0 -102 -200 -252h161l-10 -54h-253zM175 282l63 334l-111 -49l11 61l135 60h44l-76 -406h-66z" />
    <glyph glyph-name="threequarters" unicode="&#xbe;" horiz-adv-x="845" 
d="M156 463l10 51h21q40 0 66.5 21t26.5 52q0 24 -18 39t-46 15q-45 0 -94 -26l11 60q48 20 96 20q50 0 82.5 -27.5t32.5 -70.5q0 -38 -24 -68t-64 -42q29 -10 46 -33t17 -54q0 -54 -43 -89.5t-109 -35.5q-60 0 -112 32l10 58q48 -36 100 -36q38 0 63 20.5t25 52.5
q0 27 -21.5 44t-56.5 17h-19zM82 0l642 688h73l-641 -688h-74zM653 0l20 106h-180l9 46l233 254h56l-47 -250h61l-9 -50h-62l-20 -106h-61zM566 156h116l29 156z" />
    <glyph glyph-name="questiondown" unicode="&#xbf;" horiz-adv-x="444" 
d="M301 305l-5 -25q-8 -45 -32.5 -83t-53 -63.5l-56 -49.5t-46 -53.5t-18.5 -63.5q0 -44 28 -71t74 -27q76 0 156 62l-16 -85q-70 -45 -159 -45q-73 0 -120 44t-47 112q0 55 30 102t66.5 76t73 70.5t46.5 84.5l3 15h76zM338 465q0 -25 -17 -42t-42 -17q-21 0 -34.5 13.5
t-13.5 34.5q0 25 17 42t42 17q21 0 34.5 -13.5t13.5 -34.5z" />
    <glyph glyph-name="Agrave" unicode="&#xc0;" horiz-adv-x="622" 
d="M-26 0l392 688h65l136 -688h-77l-37 197h-283l-110 -197h-86zM382 577l-177 -317h236zM396 759l-87 148h75l74 -148h-62z" />
    <glyph glyph-name="Aacute" unicode="&#xc1;" horiz-adv-x="622" 
d="M-26 0l392 688h65l136 -688h-77l-37 197h-283l-110 -197h-86zM382 577l-177 -317h236zM359 759l130 148h86l-144 -148h-72z" />
    <glyph glyph-name="Acircumflex" unicode="&#xc2;" horiz-adv-x="622" 
d="M-26 0l392 688h65l136 -688h-77l-37 197h-283l-110 -197h-86zM382 577l-177 -317h236zM271 759l131 148h67l74 -148h-61l-54 92l-88 -92h-69z" />
    <glyph glyph-name="Atilde" unicode="&#xc3;" horiz-adv-x="622" 
d="M-26 0l392 688h65l136 -688h-77l-37 197h-283l-110 -197h-86zM382 577l-177 -317h236zM265 787q8 46 35.5 74.5t66.5 28.5q30 0 65.5 -28.5t49.5 -28.5q18 0 31 12.5t16 33.5h54q-8 -46 -35.5 -74.5t-66.5 -28.5q-30 0 -66 28.5t-50 28.5q-17 0 -30 -12.5t-17 -33.5h-53z
" />
    <glyph glyph-name="Adieresis" unicode="&#xc4;" horiz-adv-x="622" 
d="M-26 0l392 688h65l136 -688h-77l-37 197h-283l-110 -197h-86zM382 577l-177 -317h236zM273 827q0 24 15.5 39t38.5 15q19 0 31 -12t12 -31q0 -23 -15.5 -38.5t-37.5 -15.5q-19 0 -31.5 12t-12.5 31zM475 827q0 24 15.5 39t38.5 15q19 0 31 -12t12 -31q0 -23 -15.5 -38.5
t-38.5 -15.5q-19 0 -31 12t-12 31z" />
    <glyph glyph-name="Aring" unicode="&#xc5;" horiz-adv-x="622" 
d="M-26 0l392 688h65l136 -688h-77l-37 197h-283l-110 -197h-86zM382 577l-177 -317h236zM327 823q0 45 30.5 75.5t75.5 30.5q38 0 62 -24t24 -62q0 -45 -30 -75.5t-75 -30.5q-38 0 -62.5 24t-24.5 62zM371 828q0 -21 13 -34.5t34 -13.5q25 0 41.5 16.5t16.5 41.5
q0 21 -13 34.5t-34 13.5q-25 0 -41.5 -16.5t-16.5 -41.5z" />
    <glyph glyph-name="AE" unicode="&#xc6;" horiz-adv-x="894" 
d="M401 0l35 193h-246l-157 -193h-94l565 688h411l-12 -66h-304l-45 -240h265l-12 -65h-266l-46 -251h311l-12 -66h-393zM511 587l-270 -331h208z" />
    <glyph glyph-name="Ccedilla" unicode="&#xc7;" horiz-adv-x="604" 
d="M62 262q0 191 106 314.5t269 123.5q101 0 192 -59l-15 -75q-85 65 -174 65q-126 0 -210 -102.5t-84 -255.5q0 -97 55 -156.5t145 -59.5q95 0 183 54l-14 -80q-83 -41 -179 -43l-19 -46q26 -7 42.5 -27t16.5 -46q0 -43 -35 -71.5t-88 -28.5q-41 0 -82 24l10 52
q35 -24 69 -24q27 0 43.5 13.5t16.5 34.5t-16 33t-43 12h-4l34 78q-99 17 -159 90.5t-60 179.5z" />
    <glyph glyph-name="Egrave" unicode="&#xc8;" horiz-adv-x="546" 
d="M53 0l129 688h385l-12 -66h-304l-45 -240h264l-11 -65h-265l-48 -251h312l-12 -66h-393zM369 759l-87 148h75l74 -148h-62z" />
    <glyph glyph-name="Eacute" unicode="&#xc9;" horiz-adv-x="546" 
d="M53 0l129 688h385l-12 -66h-304l-45 -240h264l-11 -65h-265l-48 -251h312l-12 -66h-393zM332 759l130 148h86l-144 -148h-72z" />
    <glyph glyph-name="Ecircumflex" unicode="&#xca;" horiz-adv-x="546" 
d="M53 0l129 688h385l-12 -66h-304l-45 -240h264l-11 -65h-265l-48 -251h312l-12 -66h-393zM244 759l131 148h67l74 -148h-61l-54 92l-88 -92h-69z" />
    <glyph glyph-name="Edieresis" unicode="&#xcb;" horiz-adv-x="546" 
d="M53 0l129 688h385l-12 -66h-304l-45 -240h264l-11 -65h-265l-48 -251h312l-12 -66h-393zM246 827q0 24 15.5 39t38.5 15q19 0 31 -12t12 -31q0 -23 -15.5 -38.5t-37.5 -15.5q-19 0 -31.5 12t-12.5 31zM448 827q0 24 15.5 39t38.5 15q19 0 31 -12t12 -31
q0 -23 -15.5 -38.5t-38.5 -15.5q-19 0 -31 12t-12 31z" />
    <glyph glyph-name="Igrave" unicode="&#xcc;" horiz-adv-x="280" 
d="M53 0l129 688h81l-129 -688h-81zM221 759l-87 148h75l74 -148h-62z" />
    <glyph glyph-name="Iacute" unicode="&#xcd;" horiz-adv-x="280" 
d="M53 0l129 688h81l-129 -688h-81zM184 759l130 148h86l-144 -148h-72z" />
    <glyph glyph-name="Icircumflex" unicode="&#xce;" horiz-adv-x="280" 
d="M53 0l129 688h81l-129 -688h-81zM96 759l131 148h67l74 -148h-61l-54 92l-88 -92h-69z" />
    <glyph glyph-name="Idieresis" unicode="&#xcf;" horiz-adv-x="280" 
d="M53 0l129 688h81l-129 -688h-81zM98 827q0 24 15.5 39t38.5 15q19 0 31 -12t12 -31q0 -23 -15.5 -38.5t-37.5 -15.5q-19 0 -31.5 12t-12.5 31zM300 827q0 24 15.5 39t38.5 15q19 0 31 -12t12 -31q0 -23 -15.5 -38.5t-38.5 -15.5q-19 0 -31 12t-12 31z" />
    <glyph glyph-name="Eth" unicode="&#xd0;" horiz-adv-x="700" 
d="M40 321l11 58h89l57 309h192q127 0 205.5 -73t78.5 -189q0 -196 -105 -311t-284 -115h-216l60 321h-88zM266 622l-45 -243h160l-11 -58h-160l-48 -255h128q134 0 216.5 96.5t82.5 254.5q0 96 -57 150.5t-158 54.5h-108z" />
    <glyph glyph-name="Ntilde" unicode="&#xd1;" horiz-adv-x="716" 
d="M53 0l129 688h67l268 -553l104 553h78l-129 -688h-68l-268 553l-103 -553h-78zM308 787q8 46 35.5 74.5t66.5 28.5q30 0 65 -28.5t50 -28.5q18 0 31 12.5t16 33.5h54q-8 -46 -35.5 -74.5t-66.5 -28.5q-30 0 -66 28.5t-50 28.5q-17 0 -30 -12.5t-17 -33.5h-53z" />
    <glyph glyph-name="Ograve" unicode="&#xd2;" horiz-adv-x="716" 
d="M62 262q0 190 104 314t262 124q119 0 190 -75t71 -199q0 -190 -104 -314t-262 -124q-118 0 -189.5 75t-71.5 199zM146 271q0 -98 50 -156t134 -58q114 0 194.5 104.5t80.5 255.5q0 99 -49.5 156.5t-134.5 57.5q-114 0 -194.5 -104.5t-80.5 -255.5zM439 759l-87 148h75
l74 -148h-62z" />
    <glyph glyph-name="Oacute" unicode="&#xd3;" horiz-adv-x="716" 
d="M62 262q0 190 104 314t262 124q119 0 190 -75t71 -199q0 -190 -104 -314t-262 -124q-118 0 -189.5 75t-71.5 199zM146 271q0 -98 50 -156t134 -58q114 0 194.5 104.5t80.5 255.5q0 99 -49.5 156.5t-134.5 57.5q-114 0 -194.5 -104.5t-80.5 -255.5zM402 759l130 148h86
l-144 -148h-72z" />
    <glyph glyph-name="Ocircumflex" unicode="&#xd4;" horiz-adv-x="716" 
d="M62 262q0 190 104 314t262 124q119 0 190 -75t71 -199q0 -190 -104 -314t-262 -124q-118 0 -189.5 75t-71.5 199zM146 271q0 -98 50 -156t134 -58q114 0 194.5 104.5t80.5 255.5q0 99 -49.5 156.5t-134.5 57.5q-114 0 -194.5 -104.5t-80.5 -255.5zM314 759l131 148h67
l74 -148h-61l-54 92l-88 -92h-69z" />
    <glyph glyph-name="Otilde" unicode="&#xd5;" horiz-adv-x="716" 
d="M62 262q0 190 104 314t262 124q119 0 190 -75t71 -199q0 -190 -104 -314t-262 -124q-118 0 -189.5 75t-71.5 199zM146 271q0 -98 50 -156t134 -58q114 0 194.5 104.5t80.5 255.5q0 99 -49.5 156.5t-134.5 57.5q-114 0 -194.5 -104.5t-80.5 -255.5zM308 787
q8 46 35.5 74.5t66.5 28.5q30 0 65 -28.5t50 -28.5q18 0 31 12.5t16 33.5h54q-8 -46 -35.5 -74.5t-66.5 -28.5q-30 0 -66 28.5t-50 28.5q-17 0 -30 -12.5t-17 -33.5h-53z" />
    <glyph glyph-name="Odieresis" unicode="&#xd6;" horiz-adv-x="716" 
d="M62 262q0 190 104 314t262 124q119 0 190 -75t71 -199q0 -190 -104 -314t-262 -124q-118 0 -189.5 75t-71.5 199zM146 271q0 -98 50 -156t134 -58q114 0 194.5 104.5t80.5 255.5q0 99 -49.5 156.5t-134.5 57.5q-114 0 -194.5 -104.5t-80.5 -255.5zM316 827q0 24 15.5 39
t38.5 15q19 0 31 -12t12 -31q0 -23 -15.5 -38.5t-37.5 -15.5q-19 0 -31.5 12t-12.5 31zM518 827q0 24 15.5 39t38.5 15q19 0 31 -12t12 -31q0 -23 -15.5 -38.5t-38.5 -15.5q-19 0 -31 12t-12 31z" />
    <glyph glyph-name="multiply" unicode="&#xd7;" 
d="M113 58l-49 49l175 175l-175 174l49 49l175 -175l174 175l49 -49l-175 -174l175 -175l-49 -49l-174 175z" />
    <glyph glyph-name="Oslash" unicode="&#xd8;" horiz-adv-x="716" 
d="M62 262q0 190 104 314t262 124q111 0 180 -67l51 55h74l-89 -96q45 -67 45 -166q0 -190 -104 -314t-262 -124q-111 0 -180 67l-51 -55h-74l89 96q-45 71 -45 166zM605 417q0 63 -22 110l-385 -413q46 -57 132 -57q114 0 194.5 104.5t80.5 255.5zM146 271q0 -63 22 -110
l385 413q-46 57 -132 57q-114 0 -194.5 -104.5t-80.5 -255.5z" />
    <glyph glyph-name="Ugrave" unicode="&#xd9;" horiz-adv-x="716" 
d="M702 688l-85 -457q-21 -112 -100 -177.5t-194 -65.5q-100 0 -165.5 59.5t-65.5 150.5q0 28 7 68l79 422h81l-79 -422q-6 -30 -6 -58q0 -67 43 -109t113 -42q80 0 135.5 49t71.5 133l84 449h81zM439 759l-87 148h75l74 -148h-62z" />
    <glyph glyph-name="Uacute" unicode="&#xda;" horiz-adv-x="716" 
d="M702 688l-85 -457q-21 -112 -100 -177.5t-194 -65.5q-100 0 -165.5 59.5t-65.5 150.5q0 28 7 68l79 422h81l-79 -422q-6 -30 -6 -58q0 -67 43 -109t113 -42q80 0 135.5 49t71.5 133l84 449h81zM402 759l130 148h86l-144 -148h-72z" />
    <glyph glyph-name="Ucircumflex" unicode="&#xdb;" horiz-adv-x="716" 
d="M702 688l-85 -457q-21 -112 -100 -177.5t-194 -65.5q-100 0 -165.5 59.5t-65.5 150.5q0 28 7 68l79 422h81l-79 -422q-6 -30 -6 -58q0 -67 43 -109t113 -42q80 0 135.5 49t71.5 133l84 449h81zM314 759l131 148h67l74 -148h-61l-54 92l-88 -92h-69z" />
    <glyph glyph-name="Udieresis" unicode="&#xdc;" horiz-adv-x="716" 
d="M702 688l-85 -457q-21 -112 -100 -177.5t-194 -65.5q-100 0 -165.5 59.5t-65.5 150.5q0 28 7 68l79 422h81l-79 -422q-6 -30 -6 -58q0 -67 43 -109t113 -42q80 0 135.5 49t71.5 133l84 449h81zM316 827q0 24 15.5 39t38.5 15q19 0 31 -12t12 -31q0 -23 -15.5 -38.5
t-37.5 -15.5q-19 0 -31.5 12t-12.5 31zM518 827q0 24 15.5 39t38.5 15q19 0 31 -12t12 -31q0 -23 -15.5 -38.5t-38.5 -15.5q-19 0 -31 12t-12 31z" />
    <glyph glyph-name="Yacute" unicode="&#xdd;" horiz-adv-x="580" 
d="M196 0l56 299l-165 389h86l129 -319l248 319h99l-316 -396l-55 -292h-82zM328 759l130 148h86l-144 -148h-72z" />
    <glyph glyph-name="Thorn" unicode="&#xde;" horiz-adv-x="577" 
d="M53 0l129 688h80l-24 -129h114q92 0 148 -48.5t56 -129.5q0 -107 -78.5 -176.5t-198.5 -69.5h-121l-25 -135h-80zM225 494l-55 -294h110q85 0 138.5 47.5t53.5 123.5q0 57 -38 90t-105 33h-104z" />
    <glyph glyph-name="germandbls" unicode="&#xdf;" horiz-adv-x="636" 
d="M244 32l13 71q73 -51 138 -51q46 0 74.5 23.5t28.5 60.5q0 26 -19 47t-46 37.5t-53.5 34.5t-45.5 47t-19 65t18.5 68t40 51.5t40 45.5t18.5 52q0 36 -26 59t-67 23q-48 0 -80.5 -28t-41.5 -77l-131 -702h-79l133 710q13 75 67 118.5t132 43.5q77 0 125 -38.5t48 -101.5
q0 -37 -18.5 -69t-40 -51.5t-40 -45.5t-18.5 -51q0 -22 13.5 -40.5t33.5 -31.5l44 -29t44 -32t33.5 -42t13.5 -58q0 -68 -50 -110.5t-132 -42.5q-74 0 -151 44z" />
    <glyph glyph-name="agrave" unicode="&#xe0;" horiz-adv-x="552" 
d="M519 500l-94 -500h-77l8 42q-68 -54 -137 -54q-80 0 -130 55t-50 144q0 141 73 233t184 92q71 0 136 -53l8 41h79zM121 198q0 -68 31.5 -105.5t88.5 -37.5q61 0 127 63l52 275q-55 52 -117 52q-79 0 -130.5 -70t-51.5 -177zM322 571l-87 148h75l74 -148h-62z" />
    <glyph glyph-name="aacute" unicode="&#xe1;" horiz-adv-x="552" 
d="M519 500l-94 -500h-77l8 42q-68 -54 -137 -54q-80 0 -130 55t-50 144q0 141 73 233t184 92q71 0 136 -53l8 41h79zM121 198q0 -68 31.5 -105.5t88.5 -37.5q61 0 127 63l52 275q-55 52 -117 52q-79 0 -130.5 -70t-51.5 -177zM285 571l130 148h86l-144 -148h-72z" />
    <glyph glyph-name="acircumflex" unicode="&#xe2;" horiz-adv-x="552" 
d="M519 500l-94 -500h-77l8 42q-68 -54 -137 -54q-80 0 -130 55t-50 144q0 141 73 233t184 92q71 0 136 -53l8 41h79zM121 198q0 -68 31.5 -105.5t88.5 -37.5q61 0 127 63l52 275q-55 52 -117 52q-79 0 -130.5 -70t-51.5 -177zM197 571l131 148h67l74 -148h-61l-54 92
l-88 -92h-69z" />
    <glyph glyph-name="atilde" unicode="&#xe3;" horiz-adv-x="552" 
d="M519 500l-94 -500h-77l8 42q-68 -54 -137 -54q-80 0 -130 55t-50 144q0 141 73 233t184 92q71 0 136 -53l8 41h79zM121 198q0 -68 31.5 -105.5t88.5 -37.5q61 0 127 63l52 275q-55 52 -117 52q-79 0 -130.5 -70t-51.5 -177zM191 599q8 46 35.5 74.5t66.5 28.5
q29 0 64.5 -28.5t50.5 -28.5q18 0 31 12.5t16 33.5h54q-8 -46 -35.5 -74.5t-66.5 -28.5q-30 0 -66 28.5t-50 28.5q-17 0 -30 -12.5t-17 -33.5h-53z" />
    <glyph glyph-name="adieresis" unicode="&#xe4;" horiz-adv-x="552" 
d="M519 500l-94 -500h-77l8 42q-68 -54 -137 -54q-80 0 -130 55t-50 144q0 141 73 233t184 92q71 0 136 -53l8 41h79zM121 198q0 -68 31.5 -105.5t88.5 -37.5q61 0 127 63l52 275q-55 52 -117 52q-79 0 -130.5 -70t-51.5 -177zM199 639q0 24 15.5 39t38.5 15q19 0 31 -12
t12 -31q0 -23 -15.5 -38.5t-37.5 -15.5q-19 0 -31.5 12t-12.5 31zM401 639q0 24 15.5 39t38.5 15q19 0 31 -12t12 -31q0 -23 -15.5 -38.5t-38.5 -15.5q-19 0 -31 12t-12 31z" />
    <glyph glyph-name="aring" unicode="&#xe5;" horiz-adv-x="552" 
d="M519 500l-94 -500h-77l8 42q-68 -54 -137 -54q-80 0 -130 55t-50 144q0 141 73 233t184 92q71 0 136 -53l8 41h79zM121 198q0 -68 31.5 -105.5t88.5 -37.5q61 0 127 63l52 275q-55 52 -117 52q-79 0 -130.5 -70t-51.5 -177zM253 635q0 45 30.5 75.5t75.5 30.5
q38 0 62 -24t24 -62q0 -45 -30 -75.5t-75 -30.5q-38 0 -62.5 24t-24.5 62zM297 640q0 -21 13 -34.5t34 -13.5q25 0 41.5 16.5t16.5 41.5q0 21 -13 34.5t-34 13.5q-25 0 -41.5 -16.5t-16.5 -41.5z" />
    <glyph glyph-name="ae" unicode="&#xe6;" horiz-adv-x="807" 
d="M359 298l6 32q3 16 3 32q0 38 -27 62.5t-70 24.5q-75 0 -155 -42l13 71q80 34 155 34q104 0 144 -81q70 81 181 81q74 0 121.5 -51t47.5 -131q0 -51 -12 -98h-342q-2 -11 -2 -32q0 -66 39.5 -107.5t102.5 -41.5q74 0 151 48l-14 -76q-76 -35 -155 -35q-106 0 -165 85
q-105 -85 -206 -85q-70 0 -112.5 36t-42.5 94q0 80 71.5 132.5t181.5 52.5q38 0 86 -5zM100 128q0 -36 25.5 -57t69.5 -21q82 0 160 76q-10 31 -10 68q0 28 4 51q-43 5 -76 5q-76 0 -124.5 -34.5t-48.5 -87.5zM434 288h265q3 22 3 42q0 53 -28 86t-73 33q-59 0 -104 -43
t-63 -118z" />
    <glyph glyph-name="ccedilla" unicode="&#xe7;" horiz-adv-x="467" 
d="M39 192q0 138 79.5 229t201.5 91q76 0 144 -43l-13 -71q-61 48 -128 48q-87 0 -144.5 -69.5t-57.5 -173.5q0 -67 37.5 -108t100.5 -41q67 0 135 40l-14 -74q-57 -28 -124 -31l-19 -47q26 -7 42.5 -27t16.5 -46q0 -43 -35 -71.5t-88 -28.5q-41 0 -82 24l10 52
q35 -24 69 -24q27 0 43.5 13.5t16.5 34.5t-16.5 33t-43.5 12h-4l35 78q-73 13 -117.5 67t-44.5 133z" />
    <glyph glyph-name="egrave" unicode="&#xe8;" horiz-adv-x="503" 
d="M39 194q0 140 74 229t191 89q74 0 121.5 -51t47.5 -131q0 -50 -11 -98h-342q-2 -11 -2 -32q0 -66 39 -107.5t102 -41.5q75 0 151 48l-14 -76q-75 -35 -154 -35q-88 0 -145.5 58.5t-57.5 147.5zM130 288h264q4 20 4 42q0 53 -28 86t-73 33q-60 0 -105 -43t-62 -118z
M317 571l-87 148h75l74 -148h-62z" />
    <glyph glyph-name="eacute" unicode="&#xe9;" horiz-adv-x="503" 
d="M39 194q0 140 74 229t191 89q74 0 121.5 -51t47.5 -131q0 -50 -11 -98h-342q-2 -11 -2 -32q0 -66 39 -107.5t102 -41.5q75 0 151 48l-14 -76q-75 -35 -154 -35q-88 0 -145.5 58.5t-57.5 147.5zM130 288h264q4 20 4 42q0 53 -28 86t-73 33q-60 0 -105 -43t-62 -118z
M280 571l130 148h86l-144 -148h-72z" />
    <glyph glyph-name="ecircumflex" unicode="&#xea;" horiz-adv-x="503" 
d="M39 194q0 140 74 229t191 89q74 0 121.5 -51t47.5 -131q0 -50 -11 -98h-342q-2 -11 -2 -32q0 -66 39 -107.5t102 -41.5q75 0 151 48l-14 -76q-75 -35 -154 -35q-88 0 -145.5 58.5t-57.5 147.5zM130 288h264q4 20 4 42q0 53 -28 86t-73 33q-60 0 -105 -43t-62 -118z
M192 571l131 148h67l74 -148h-61l-54 92l-88 -92h-69z" />
    <glyph glyph-name="edieresis" unicode="&#xeb;" horiz-adv-x="503" 
d="M39 194q0 140 74 229t191 89q74 0 121.5 -51t47.5 -131q0 -50 -11 -98h-342q-2 -11 -2 -32q0 -66 39 -107.5t102 -41.5q75 0 151 48l-14 -76q-75 -35 -154 -35q-88 0 -145.5 58.5t-57.5 147.5zM130 288h264q4 20 4 42q0 53 -28 86t-73 33q-60 0 -105 -43t-62 -118z
M194 639q0 24 15.5 39t38.5 15q19 0 31 -12t12 -31q0 -23 -15.5 -38.5t-37.5 -15.5q-19 0 -31.5 12t-12.5 31zM396 639q0 24 15.5 39t38.5 15q19 0 31 -12t12 -31q0 -23 -15.5 -38.5t-38.5 -15.5q-19 0 -31 12t-12 31z" />
    <glyph glyph-name="igrave" unicode="&#xec;" horiz-adv-x="239" 
d="M33 0l94 500h79l-94 -500h-79zM165 571l-87 148h75l74 -148h-62z" />
    <glyph glyph-name="iacute" unicode="&#xed;" horiz-adv-x="239" 
d="M33 0l94 500h79l-94 -500h-79zM128 571l130 148h86l-144 -148h-72z" />
    <glyph glyph-name="icircumflex" unicode="&#xee;" horiz-adv-x="239" 
d="M33 0l94 500h79l-94 -500h-79zM40 571l131 148h67l74 -148h-61l-54 92l-88 -92h-69z" />
    <glyph glyph-name="idieresis" unicode="&#xef;" horiz-adv-x="239" 
d="M33 0l94 500h79l-94 -500h-79zM42 639q0 24 15.5 39t38.5 15q19 0 31 -12t12 -31q0 -23 -15.5 -38.5t-37.5 -15.5q-19 0 -31.5 12t-12.5 31zM244 639q0 24 15.5 39t38.5 15q19 0 31 -12t12 -31q0 -23 -15.5 -38.5t-38.5 -15.5q-19 0 -31 12t-12 31z" />
    <glyph glyph-name="eth" unicode="&#xf0;" horiz-adv-x="552" 
d="M39 192q0 139 75 229.5t189 90.5q60 0 114 -40q-25 78 -75 139l-139 -46l12 60l90 31q-24 25 -71 63h103q15 -12 42 -39l116 39l-11 -60l-68 -24q101 -131 101 -288t-79.5 -258t-204.5 -101q-85 0 -139.5 57t-54.5 147zM121 201q0 -67 33.5 -107t89.5 -40q82 0 136.5 78
t54.5 190q0 40 -5 70q-57 54 -125 54q-77 0 -130.5 -72t-53.5 -173z" />
    <glyph glyph-name="ntilde" unicode="&#xf1;" horiz-adv-x="552" 
d="M33 0l94 500h77l-9 -50q74 62 155 62q62 0 103.5 -39.5t41.5 -100.5q0 -18 -6 -52l-60 -320h-79l59 317q4 24 4 38q0 40 -25 64.5t-66 24.5q-67 0 -140 -70l-70 -374h-79zM193 599q8 46 35.5 74.5t66.5 28.5q29 0 65 -28.5t50 -28.5q18 0 31 12.5t16 33.5h54
q-8 -46 -35.5 -74.5t-66.5 -28.5q-30 0 -66 28.5t-50 28.5q-17 0 -30 -12.5t-17 -33.5h-53z" />
    <glyph glyph-name="ograve" unicode="&#xf2;" horiz-adv-x="552" 
d="M39 192q0 139 77.5 229.5t198.5 90.5q89 0 143.5 -55.5t54.5 -147.5q0 -140 -77.5 -230.5t-198.5 -90.5q-89 0 -143.5 56t-54.5 148zM121 201q0 -67 33.5 -107t90.5 -40q78 0 132.5 71.5t54.5 174.5q0 67 -34 106.5t-91 39.5q-78 0 -132 -71t-54 -174zM322 571l-87 148
h75l74 -148h-62z" />
    <glyph glyph-name="oacute" unicode="&#xf3;" horiz-adv-x="552" 
d="M39 192q0 139 77.5 229.5t198.5 90.5q89 0 143.5 -55.5t54.5 -147.5q0 -140 -77.5 -230.5t-198.5 -90.5q-89 0 -143.5 56t-54.5 148zM121 201q0 -67 33.5 -107t90.5 -40q78 0 132.5 71.5t54.5 174.5q0 67 -34 106.5t-91 39.5q-78 0 -132 -71t-54 -174zM285 571l130 148
h86l-144 -148h-72z" />
    <glyph glyph-name="ocircumflex" unicode="&#xf4;" horiz-adv-x="552" 
d="M39 192q0 139 77.5 229.5t198.5 90.5q89 0 143.5 -55.5t54.5 -147.5q0 -140 -77.5 -230.5t-198.5 -90.5q-89 0 -143.5 56t-54.5 148zM121 201q0 -67 33.5 -107t90.5 -40q78 0 132.5 71.5t54.5 174.5q0 67 -34 106.5t-91 39.5q-78 0 -132 -71t-54 -174zM197 571l131 148
h67l74 -148h-61l-54 92l-88 -92h-69z" />
    <glyph glyph-name="otilde" unicode="&#xf5;" horiz-adv-x="552" 
d="M39 192q0 139 77.5 229.5t198.5 90.5q89 0 143.5 -55.5t54.5 -147.5q0 -140 -77.5 -230.5t-198.5 -90.5q-89 0 -143.5 56t-54.5 148zM121 201q0 -67 33.5 -107t90.5 -40q78 0 132.5 71.5t54.5 174.5q0 67 -34 106.5t-91 39.5q-78 0 -132 -71t-54 -174zM191 599
q8 46 35.5 74.5t66.5 28.5q29 0 64.5 -28.5t50.5 -28.5q18 0 31 12.5t16 33.5h54q-8 -46 -35.5 -74.5t-66.5 -28.5q-30 0 -66 28.5t-50 28.5q-17 0 -30 -12.5t-17 -33.5h-53z" />
    <glyph glyph-name="odieresis" unicode="&#xf6;" horiz-adv-x="552" 
d="M39 192q0 139 77.5 229.5t198.5 90.5q89 0 143.5 -55.5t54.5 -147.5q0 -140 -77.5 -230.5t-198.5 -90.5q-89 0 -143.5 56t-54.5 148zM121 201q0 -67 33.5 -107t90.5 -40q78 0 132.5 71.5t54.5 174.5q0 67 -34 106.5t-91 39.5q-78 0 -132 -71t-54 -174zM199 639
q0 24 15.5 39t38.5 15q19 0 31 -12t12 -31q0 -23 -15.5 -38.5t-37.5 -15.5q-19 0 -31.5 12t-12.5 31zM401 639q0 24 15.5 39t38.5 15q19 0 31 -12t12 -31q0 -23 -15.5 -38.5t-38.5 -15.5q-19 0 -31 12t-12 31z" />
    <glyph glyph-name="divide" unicode="&#xf7;" 
d="M239 94q0 21 13.5 34.5t35.5 13.5q21 0 34.5 -13.5t13.5 -34.5q0 -22 -13.5 -35t-34.5 -13q-22 0 -35.5 13t-13.5 35zM37 247v69h501v-69h-501zM239 469q0 22 13.5 35t35.5 13q21 0 34.5 -13t13.5 -35q0 -21 -13.5 -34.5t-34.5 -13.5q-22 0 -35.5 13.5t-13.5 34.5z" />
    <glyph glyph-name="oslash" unicode="&#xf8;" horiz-adv-x="552" 
d="M39 190q0 139 78.5 230.5t197.5 91.5q77 0 130 -45l32 33h65l-64 -68q35 -51 35 -121q0 -139 -78.5 -231t-197.5 -92q-79 0 -130 46l-31 -34h-66l64 69q-35 49 -35 121zM434 301q0 34 -14 69l-261 -281q33 -36 86 -36q78 0 133.5 72.5t55.5 175.5zM119 200q0 -40 12 -70
l263 281q-34 36 -87 36q-78 0 -133 -72t-55 -175z" />
    <glyph glyph-name="ugrave" unicode="&#xf9;" horiz-adv-x="552" 
d="M519 500l-94 -500h-77l10 51q-77 -63 -156 -63q-62 0 -103.5 40t-41.5 100q0 26 6 53l60 319h79l-59 -316q-4 -16 -4 -38q0 -41 25 -65.5t67 -24.5q66 0 138 70l71 374h79zM320 571l-87 148h75l74 -148h-62z" />
    <glyph glyph-name="uacute" unicode="&#xfa;" horiz-adv-x="552" 
d="M519 500l-94 -500h-77l10 51q-77 -63 -156 -63q-62 0 -103.5 40t-41.5 100q0 26 6 53l60 319h79l-59 -316q-4 -16 -4 -38q0 -41 25 -65.5t67 -24.5q66 0 138 70l71 374h79zM283 571l130 148h86l-144 -148h-72z" />
    <glyph glyph-name="ucircumflex" unicode="&#xfb;" horiz-adv-x="552" 
d="M519 500l-94 -500h-77l10 51q-77 -63 -156 -63q-62 0 -103.5 40t-41.5 100q0 26 6 53l60 319h79l-59 -316q-4 -16 -4 -38q0 -41 25 -65.5t67 -24.5q66 0 138 70l71 374h79zM195 571l131 148h67l74 -148h-61l-54 92l-88 -92h-69z" />
    <glyph glyph-name="udieresis" unicode="&#xfc;" horiz-adv-x="552" 
d="M519 500l-94 -500h-77l10 51q-77 -63 -156 -63q-62 0 -103.5 40t-41.5 100q0 26 6 53l60 319h79l-59 -316q-4 -16 -4 -38q0 -41 25 -65.5t67 -24.5q66 0 138 70l71 374h79zM197 639q0 24 15.5 39t38.5 15q19 0 31 -12t12 -31q0 -23 -15.5 -38.5t-37.5 -15.5
q-19 0 -31.5 12t-12.5 31zM399 639q0 24 15.5 39t38.5 15q19 0 31 -12t12 -31q0 -23 -15.5 -38.5t-38.5 -15.5q-19 0 -31 12t-12 31z" />
    <glyph glyph-name="yacute" unicode="&#xfd;" horiz-adv-x="481" 
d="M508 500l-410 -719h-81l139 235l-95 484h77l70 -392l215 392h85zM246 571l130 148h86l-144 -148h-72z" />
    <glyph glyph-name="thorn" unicode="&#xfe;" horiz-adv-x="552" 
d="M-8 -219l176 938h79l-48 -258q65 51 134 51q80 0 130 -55t50 -143q0 -142 -73 -234t-184 -92q-71 0 -136 54l-49 -261h-79zM432 303q0 67 -32 104.5t-88 37.5q-63 0 -128 -63l-52 -275q57 -52 117 -52q78 0 130.5 71t52.5 177z" />
    <glyph glyph-name="ydieresis" unicode="&#xff;" horiz-adv-x="481" 
d="M508 500l-410 -719h-81l139 235l-95 484h77l70 -392l215 392h85zM160 639q0 24 15.5 39t38.5 15q19 0 31 -12t12 -31q0 -23 -15.5 -38.5t-37.5 -15.5q-19 0 -31.5 12t-12.5 31zM362 639q0 24 15.5 39t38.5 15q19 0 31 -12t12 -31q0 -23 -15.5 -38.5t-38.5 -15.5
q-19 0 -31 12t-12 31z" />
    <glyph glyph-name="dotlessi" unicode="&#x131;" horiz-adv-x="239" 
d="M33 0l94 500h79l-94 -500h-79z" />
    <glyph glyph-name="Lslash" unicode="&#x141;" horiz-adv-x="524" 
d="M84 0l50 272l-86 -34l13 69l87 35l65 346h82l-59 -311l162 64l-13 -69l-162 -64l-45 -242h291l-13 -66h-372z" />
    <glyph glyph-name="lslash" unicode="&#x142;" horiz-adv-x="294" 
d="M60 0l59 312l-104 -42l13 69l104 42l63 338h79l-56 -303l104 42l-13 -69l-105 -42l-65 -347h-79z" />
    <glyph glyph-name="OE" unicode="&#x152;" horiz-adv-x="931" 
d="M952 688l-12 -66h-304l-45 -240h264l-11 -65h-265l-48 -251h312l-12 -66h-485q-126 0 -205 73t-79 189q0 196 105 311t285 115h500zM450 66l104 556h-108q-134 0 -217 -96.5t-83 -254.5q0 -95 57.5 -150t158.5 -55h88z" />
    <glyph glyph-name="oe" unicode="&#x153;" horiz-adv-x="887" 
d="M39 191q0 139 78 230t198 91q58 0 104.5 -28.5t67.5 -78.5q71 107 201 107q74 0 121.5 -51t47.5 -131q0 -50 -11 -98h-342q-3 -16 -3 -32q0 -66 39.5 -107.5t102.5 -41.5q74 0 150 48l-14 -76q-75 -35 -154 -35q-61 0 -108.5 31t-69.5 83q-79 -114 -210 -114
q-87 0 -142.5 57t-55.5 146zM513 288h265q4 20 4 42q0 53 -28 86t-74 33q-59 0 -104 -43t-63 -118zM121 201q0 -67 33.5 -107t90.5 -40q78 0 132.5 71.5t54.5 174.5q0 67 -34 106.5t-91 39.5q-78 0 -132 -71t-54 -174z" />
    <glyph glyph-name="Scaron" unicode="&#x160;" horiz-adv-x="532" 
d="M28 48l14 76q98 -69 187 -69q69 0 112 36t43 92q0 35 -20.5 62.5t-51.5 44.5l-67.5 37.5t-67.5 40.5t-51.5 55.5t-20.5 81.5q0 86 65 140.5t168 54.5q91 0 185 -52l-14 -75q-86 60 -171 60q-67 0 -109 -33.5t-42 -88.5q0 -34 20.5 -60.5t51.5 -42.5l67.5 -36.5
t67.5 -41.5t51.5 -57.5t20.5 -83.5q0 -88 -66.5 -144.5t-170.5 -56.5q-96 0 -201 60zM525 907l-130 -148h-67l-74 148h60l54 -92l89 92h68z" />
    <glyph glyph-name="scaron" unicode="&#x161;" horiz-adv-x="415" 
d="M15 32l13 71q73 -51 138 -51q46 0 74.5 23t28.5 60q0 28 -20.5 48.5t-49.5 35t-58.5 31t-50 45.5t-20.5 69q0 66 49.5 107t128.5 41q71 0 140 -38l-12 -70q-67 44 -128 44q-43 0 -70.5 -22t-27.5 -57q0 -26 20.5 -46t49.5 -34.5t58 -31t49.5 -46.5t20.5 -71
q0 -68 -50.5 -110t-131.5 -42q-75 0 -151 44zM432 719l-130 -148h-67l-74 148h60l54 -92l89 92h68z" />
    <glyph glyph-name="Ydieresis" unicode="&#x178;" horiz-adv-x="580" 
d="M196 0l56 299l-165 389h86l129 -319l248 319h99l-316 -396l-55 -292h-82zM242 827q0 24 15.5 39t38.5 15q19 0 31 -12t12 -31q0 -23 -15.5 -38.5t-37.5 -15.5q-19 0 -31.5 12t-12.5 31zM444 827q0 24 15.5 39t38.5 15q19 0 31 -12t12 -31q0 -23 -15.5 -38.5t-38.5 -15.5
q-19 0 -31 12t-12 31z" />
    <glyph glyph-name="Zcaron" unicode="&#x17d;" horiz-adv-x="606" 
d="M-4 0l11 59l510 563h-384l13 66h485l-11 -59l-510 -563h409l-12 -66h-511zM562 907l-130 -148h-67l-74 148h60l54 -92l89 92h68z" />
    <glyph glyph-name="zcaron" unicode="&#x17e;" horiz-adv-x="469" 
d="M-6 0l10 55l347 382h-261l13 63h360l-11 -55l-346 -381h280l-12 -64h-380zM459 719l-130 -148h-67l-74 148h60l54 -92l89 92h68z" />
    <glyph glyph-name="florin" unicode="&#x192;" 
d="M147 373l12 63h109l24 136q11 59 52 93.5t101 34.5q51 0 100 -25l-12 -67q-40 23 -77 23q-32 0 -55.5 -20t-29.5 -54l-22 -121h135l-11 -63h-136l-71 -382q-11 -59 -52 -93.5t-101 -34.5q-53 0 -100 25l13 67q38 -23 77 -23q32 0 55 20t29 54l68 367h-108z" />
    <glyph glyph-name="circumflex" unicode="&#x2c6;" horiz-adv-x="250" 
d="M46 571l131 148h67l74 -148h-61l-54 92l-88 -92h-69z" />
    <glyph glyph-name="caron" unicode="&#x2c7;" horiz-adv-x="250" 
d="M349 719l-130 -148h-67l-74 148h60l54 -92l89 92h68z" />
    <glyph glyph-name="uni02C9" unicode="&#x2c9;" horiz-adv-x="250" 
d="M42 617l11 57h302l-11 -57h-302z" />
    <glyph glyph-name="breve" unicode="&#x2d8;" horiz-adv-x="250" 
d="M77 719h55q-1 -7 -1 -19q0 -29 20 -47.5t51 -18.5q36 0 60.5 23t30.5 62h57q-9 -69 -49.5 -106.5t-105.5 -37.5q-52 0 -86.5 33t-34.5 81q0 13 3 30z" />
    <glyph glyph-name="dotaccent" unicode="&#x2d9;" horiz-adv-x="250" 
d="M148 639q0 24 16 39.5t39 15.5q19 0 31.5 -12.5t12.5 -31.5q0 -23 -15.5 -38.5t-38.5 -15.5q-20 0 -32.5 12t-12.5 31z" />
    <glyph glyph-name="ring" unicode="&#x2da;" horiz-adv-x="250" 
d="M102 635q0 45 30.5 75.5t75.5 30.5q38 0 62 -24t24 -62q0 -45 -30 -75.5t-75 -30.5q-38 0 -62.5 24t-24.5 62zM146 640q0 -21 13 -34.5t34 -13.5q25 0 41.5 16.5t16.5 41.5q0 21 -13 34.5t-34 13.5q-25 0 -41.5 -16.5t-16.5 -41.5z" />
    <glyph glyph-name="ogonek" unicode="&#x2db;" horiz-adv-x="250" 
d="M51 0h66q-112 -58 -112 -122q0 -17 12.5 -29t31.5 -12q22 0 39 8l-10 -54q-23 -10 -51 -10q-38 0 -63 21.5t-25 55.5q0 41 29.5 78t82.5 64z" />
    <glyph glyph-name="tilde" unicode="&#x2dc;" horiz-adv-x="250" 
d="M40 599q8 46 35.5 74.5t66.5 28.5q30 0 65 -28.5t50 -28.5q18 0 31 12.5t16 33.5h54q-8 -46 -35.5 -74.5t-66.5 -28.5q-30 0 -66 28.5t-50 28.5q-17 0 -30 -12.5t-17 -33.5h-53z" />
    <glyph glyph-name="hungarumlaut" unicode="&#x2dd;" horiz-adv-x="250" 
d="M220 571l130 148h87l-144 -148h-73zM46 571l131 148h87l-144 -148h-74z" />
    <glyph glyph-name="uni0394" unicode="&#x394;" horiz-adv-x="622" 
d="M-8 0l10 48l364 640h65l128 -646l-7 -42h-560zM381 572l-283 -507h378z" />
    <glyph glyph-name="uni03A9" unicode="&#x3a9;" horiz-adv-x="747" 
d="M-7 0l12 65h190q-109 142 -109 284q0 154 98 252.5t252 98.5q115 0 193 -73.5t78 -180.5q0 -211 -217 -381h183l-13 -65h-281l11 53q233 177 233 378q0 90 -53.5 145t-140.5 55q-118 0 -189.5 -82.5t-71.5 -216.5q0 -132 106 -279l-10 -53h-271z" />
    <glyph glyph-name="uni03BC" unicode="&#x3bc;" horiz-adv-x="556" 
d="M-8 -219l135 719h79l-59 -316q-4 -16 -4 -38q0 -41 25 -65.5t67 -24.5q66 0 139 70l70 374h79l-94 -500h-77l10 51q-70 -61 -145 -61q-60 0 -99 45l-47 -254h-79z" />
    <glyph glyph-name="pi" unicode="&#x3c0;" horiz-adv-x="575" 
d="M59 0l82 437h-92l12 63h546l-11 -63h-92l-82 -437h-79l82 437h-205l-82 -437h-79z" />
    <glyph glyph-name="uni1E9E" unicode="&#x1e9e;" horiz-adv-x="716" 
d="M53 0l129 688h528l-12 -59l-196 -226q69 -12 114 -62t45 -116q0 -100 -72 -168.5t-178 -68.5q-76 0 -151 42l14 75q68 -48 137 -48q71 0 118.5 45t47.5 112q0 62 -43 98t-118 36h-15l11 59l187 215h-349l-117 -622h-80z" />
    <glyph glyph-name="figuredash" unicode="&#x2012;" 
d="M55 318l10 53h477l-9 -53h-478z" />
    <glyph glyph-name="endash" unicode="&#x2013;" horiz-adv-x="500" 
d="M29 223l12 63h431l-13 -63h-430z" />
    <glyph glyph-name="emdash" unicode="&#x2014;" horiz-adv-x="1000" 
d="M29 223l12 63h930l-12 -63h-930z" />
    <glyph glyph-name="quoteleft" unicode="&#x2018;" horiz-adv-x="250" 
d="M287 688l-116 -208h-83l127 208h72z" />
    <glyph glyph-name="quoteright" unicode="&#x2019;" horiz-adv-x="250" 
d="M88 480l116 208h83l-127 -208h-72z" />
    <glyph glyph-name="quotesinglbase" unicode="&#x201a;" horiz-adv-x="250" 
d="M-55 -125l115 208h84l-127 -208h-72z" />
    <glyph glyph-name="quotedblleft" unicode="&#x201c;" horiz-adv-x="419" 
d="M456 688l-116 -208h-83l126 208h73zM287 688l-116 -208h-83l127 208h72z" />
    <glyph glyph-name="quotedblright" unicode="&#x201d;" horiz-adv-x="419" 
d="M88 480l116 208h83l-127 -208h-72zM257 480l115 208h84l-127 -208h-72z" />
    <glyph glyph-name="quotedblbase" unicode="&#x201e;" horiz-adv-x="419" 
d="M113 -125l116 208h84l-127 -208h-73zM-55 -125l115 208h84l-127 -208h-72z" />
    <glyph glyph-name="dagger" unicode="&#x2020;" horiz-adv-x="446" 
d="M142 0l85 458h-161l13 69h161l30 161h69l-30 -161h161l-13 -69h-161l-85 -458h-69z" />
    <glyph glyph-name="daggerdbl" unicode="&#x2021;" horiz-adv-x="446" 
d="M142 0l30 162h-162l13 68h162l42 228h-161l13 69h161l30 161h69l-30 -161h161l-13 -69h-161l-42 -228h161l-13 -68h-162l-29 -162h-69z" />
    <glyph glyph-name="bullet" unicode="&#x2022;" horiz-adv-x="500" 
d="M127 344q0 58 41.5 99.5t99.5 41.5t99.5 -41.5t41.5 -99.5t-41.5 -99.5t-99.5 -41.5t-99.5 41.5t-41.5 99.5z" />
    <glyph glyph-name="ellipsis" unicode="&#x2026;" horiz-adv-x="1001" 
d="M744 36q0 26 16.5 42.5t42.5 16.5q21 0 34.5 -13.5t13.5 -34.5q0 -25 -16.5 -42t-42.5 -17q-21 0 -34.5 13.5t-13.5 34.5zM410 36q0 26 16.5 42.5t42.5 16.5q21 0 34.5 -13.5t13.5 -34.5q0 -25 -16.5 -42t-42.5 -17q-21 0 -34.5 13.5t-13.5 34.5zM76 36q0 26 17 42.5
t42 16.5q21 0 34.5 -13.5t13.5 -34.5q0 -26 -16.5 -42.5t-41.5 -16.5q-22 0 -35.5 13.5t-13.5 34.5z" />
    <glyph glyph-name="perthousand" unicode="&#x2030;" horiz-adv-x="1208" 
d="M458 128q0 96 56 162t138 66q60 0 100 -39.5t40 -100.5q0 -96 -56.5 -162t-138.5 -66q-60 0 -99.5 39.5t-39.5 100.5zM519 135q0 -43 23 -69.5t61 -26.5q53 0 90 50t37 120q0 43 -23 69.5t-61 26.5q-53 0 -90 -49.5t-37 -120.5zM88 473q0 96 56.5 161.5t138.5 65.5
q60 0 99.5 -40t39.5 -101q0 -96 -56 -161.5t-138 -65.5q-60 0 -100 40t-40 101zM150 480q0 -43 23 -69.5t61 -26.5q53 0 89.5 49t36.5 119q0 44 -23 70.5t-60 26.5q-53 0 -90 -49t-37 -120zM82 0l642 688h73l-641 -688h-74zM821 128q0 96 56.5 162t138.5 66q60 0 100 -39.5
t40 -100.5q0 -96 -56.5 -162t-138.5 -66q-60 0 -100 39.5t-40 100.5zM884 135q0 -43 22.5 -69.5t60.5 -26.5q53 0 90 50t37 120q0 43 -23 69.5t-61 26.5q-53 0 -89.5 -49.5t-36.5 -120.5z" />
    <glyph glyph-name="guilsinglleft" unicode="&#x2039;" horiz-adv-x="380" 
d="M373 458l-223 -211l141 -204h-80l-162 210l232 205h92z" />
    <glyph glyph-name="guilsinglright" unicode="&#x203a;" horiz-adv-x="380" 
d="M8 43l223 210l-141 205h80l162 -211l-233 -204h-91z" />
    <glyph glyph-name="fraction" unicode="&#x2044;" horiz-adv-x="156" 
d="M-262 0l642 688h73l-641 -688h-74z" />
    <glyph glyph-name="uni2070" unicode="&#x2070;" horiz-adv-x="372" 
d="M98 547q0 117 53.5 195t133.5 78q56 0 88.5 -39t32.5 -108q0 -117 -53 -195t-133 -78q-58 0 -90 39t-32 108zM163 554q0 -46 17 -73t46 -27q47 0 81 62.5t34 149.5q0 46 -17 73t-46 27q-47 0 -81 -62.5t-34 -149.5z" />
    <glyph glyph-name="uni2074" unicode="&#x2074;" horiz-adv-x="344" 
d="M228 407l20 106h-180l9 46l233 254h56l-47 -250h61l-9 -50h-62l-20 -106h-61zM141 563h116l29 156z" />
    <glyph glyph-name="uni2075" unicode="&#x2075;" horiz-adv-x="310" 
d="M361 813l-10 -54h-153l-20 -103q26 2 35 2q52 0 86 -31.5t34 -79.5q0 -65 -46 -106t-119 -41q-50 0 -101 28l11 59q47 -33 90 -33q42 0 70 24t28 62q0 31 -22.5 50t-58.5 19q-35 0 -74 -9l39 213h211z" />
    <glyph glyph-name="uni2076" unicode="&#x2076;" horiz-adv-x="342" 
d="M271 813h90q-123 -81 -173 -166q32 19 71 19q47 0 78.5 -32t31.5 -80q0 -65 -45.5 -109.5t-111.5 -44.5q-54 0 -88.5 35t-34.5 92q0 74 47.5 148.5t134.5 137.5zM162 581q-10 -28 -10 -51q0 -34 18.5 -55t48.5 -21q35 0 60.5 27.5t25.5 65.5q0 29 -18 48t-47 19
q-40 0 -78 -33z" />
    <glyph glyph-name="uni2077" unicode="&#x2077;" horiz-adv-x="280" 
d="M70 407l214 352h-184l10 54h260l-9 -41l-220 -365h-71z" />
    <glyph glyph-name="uni2078" unicode="&#x2078;" horiz-adv-x="344" 
d="M127 695q0 53 42 89t104 36q50 0 82.5 -28t32.5 -71q0 -37 -21.5 -65.5t-60.5 -42.5q56 -24 56 -84q0 -56 -44.5 -92.5t-111.5 -36.5q-52 0 -87.5 29t-35.5 72q0 41 25 72t68 43q-49 24 -49 79zM147 509q0 -25 18 -41.5t46 -16.5q38 0 62.5 22t24.5 57q0 25 -18 41.5
t-46 16.5q-38 0 -62.5 -22t-24.5 -57zM189 694q0 -25 16.5 -40.5t42.5 -15.5q33 0 55.5 21.5t22.5 53.5q0 25 -16.5 40.5t-42.5 15.5q-34 0 -56 -21.5t-22 -53.5z" />
    <glyph glyph-name="uni2079" unicode="&#x2079;" horiz-adv-x="342" 
d="M206 407h-91q122 79 174 166q-34 -19 -72 -19q-47 0 -78 32t-31 80q0 65 45 109.5t111 44.5q54 0 89 -35.5t35 -91.5q0 -74 -47.5 -148.5t-134.5 -137.5zM314 639q10 28 10 51q0 34 -18 55t-48 21q-35 0 -61 -27.5t-26 -65.5q0 -29 18.5 -48t47.5 -19q41 0 77 33z" />
    <glyph glyph-name="uni207A" unicode="&#x207a;" horiz-adv-x="344" 
d="M92 582v56h120v120h56v-120h120v-56h-120v-120h-56v120h-120z" />
    <glyph glyph-name="uni207B" unicode="&#x207b;" horiz-adv-x="344" 
d="M92 582v56h296v-56h-296z" />
    <glyph glyph-name="uni207C" unicode="&#x207c;" horiz-adv-x="344" 
d="M92 522v55h296v-55h-296zM92 643v55h296v-55h-296z" />
    <glyph glyph-name="uni207D" unicode="&#x207d;" horiz-adv-x="206" 
d="M106 557q0 185 138 312h74q-149 -126 -149 -307q0 -114 48 -211h-61q-50 98 -50 206z" />
    <glyph glyph-name="uni207E" unicode="&#x207e;" horiz-adv-x="206" 
d="M232 664q0 -184 -138 -313h-75q149 126 149 308q0 113 -48 210h62q50 -102 50 -205z" />
    <glyph glyph-name="uni2080" unicode="&#x2080;" horiz-adv-x="372" 
d="M-2 15q0 117 53.5 195t133.5 78q56 0 88.5 -39t32.5 -108q0 -117 -53 -195t-133 -78q-58 0 -90 39t-32 108zM63 22q0 -46 17 -73t46 -27q47 0 81 62.5t34 149.5q0 46 -17 73t-46 27q-47 0 -81 -62.5t-34 -149.5z" />
    <glyph glyph-name="uni2081" unicode="&#x2081;" horiz-adv-x="252" 
d="M52 -125l63 334l-111 -49l11 61l135 60h44l-76 -406h-66z" />
    <glyph glyph-name="uni2082" unicode="&#x2082;" horiz-adv-x="309" 
d="M-50 -125l9 44q226 158 226 250q0 29 -17 46t-46 17q-50 0 -102 -37l11 65q52 28 109 28q50 0 81 -29.5t31 -77.5q0 -102 -200 -252h161l-10 -54h-253z" />
    <glyph glyph-name="uni2083" unicode="&#x2083;" horiz-adv-x="305" 
d="M59 56l10 51h21q40 0 66.5 21t26.5 52q0 24 -18 39t-46 15q-45 0 -94 -26l11 60q48 20 96 20q50 0 82.5 -27.5t32.5 -70.5q0 -38 -24 -68t-64 -42q29 -10 46 -33t17 -54q0 -54 -43 -89.5t-109 -35.5q-60 0 -112 32l10 58q48 -36 100 -36q38 0 63 20.5t25 52.5
q0 27 -21.5 44t-56.5 17h-19z" />
    <glyph glyph-name="uni2084" unicode="&#x2084;" horiz-adv-x="344" 
d="M128 -125l20 106h-180l9 46l233 254h56l-47 -250h61l-9 -50h-62l-20 -106h-61zM41 31h116l29 156z" />
    <glyph glyph-name="uni2085" unicode="&#x2085;" horiz-adv-x="310" 
d="M261 281l-10 -54h-153l-20 -103q26 2 35 2q52 0 86 -31.5t34 -79.5q0 -65 -46 -106t-119 -41q-50 0 -101 28l11 59q47 -33 90 -33q42 0 70 24t28 62q0 31 -22.5 50t-58.5 19q-35 0 -74 -9l39 213h211z" />
    <glyph glyph-name="uni2086" unicode="&#x2086;" horiz-adv-x="342" 
d="M171 281h90q-123 -81 -173 -166q32 19 71 19q47 0 78.5 -32t31.5 -80q0 -65 -45.5 -109.5t-111.5 -44.5q-54 0 -88.5 35t-34.5 92q0 74 47.5 148.5t134.5 137.5zM62 49q-10 -28 -10 -51q0 -34 18.5 -55t48.5 -21q35 0 60.5 27.5t25.5 65.5q0 29 -18 48t-47 19
q-40 0 -78 -33z" />
    <glyph glyph-name="uni2087" unicode="&#x2087;" horiz-adv-x="280" 
d="M-30 -125l214 352h-184l10 54h260l-9 -41l-220 -365h-71z" />
    <glyph glyph-name="uni2088" unicode="&#x2088;" horiz-adv-x="344" 
d="M27 163q0 53 42 89t104 36q50 0 82.5 -28t32.5 -71q0 -37 -21.5 -65.5t-60.5 -42.5q56 -24 56 -84q0 -56 -44.5 -92.5t-111.5 -36.5q-52 0 -87.5 29t-35.5 72q0 41 25 72t68 43q-49 24 -49 79zM47 -23q0 -25 18 -41.5t46 -16.5q38 0 62.5 22t24.5 57q0 25 -18 41.5
t-46 16.5q-38 0 -62.5 -22t-24.5 -57zM89 162q0 -25 16.5 -40.5t42.5 -15.5q33 0 55.5 21.5t22.5 53.5q0 25 -16.5 40.5t-42.5 15.5q-34 0 -56 -21.5t-22 -53.5z" />
    <glyph glyph-name="uni2089" unicode="&#x2089;" horiz-adv-x="342" 
d="M106 -125h-91q122 79 174 166q-34 -19 -72 -19q-47 0 -78 32t-31 80q0 65 45 109.5t111 44.5q54 0 89 -35.5t35 -91.5q0 -74 -47.5 -148.5t-134.5 -137.5zM214 107q10 28 10 51q0 34 -18 55t-48 21q-35 0 -61 -27.5t-26 -65.5q0 -29 18.5 -48t47.5 -19q41 0 77 33z" />
    <glyph glyph-name="uni208A" unicode="&#x208a;" horiz-adv-x="344" 
d="M-8 50v56h120v120h56v-120h120v-56h-120v-120h-56v120h-120z" />
    <glyph glyph-name="uni208B" unicode="&#x208b;" horiz-adv-x="344" 
d="M-8 50v56h296v-56h-296z" />
    <glyph glyph-name="uni208C" unicode="&#x208c;" horiz-adv-x="344" 
d="M-8 -10v55h296v-55h-296zM-8 111v55h296v-55h-296z" />
    <glyph glyph-name="uni208D" unicode="&#x208d;" horiz-adv-x="206" 
d="M6 25q0 185 138 312h74q-149 -126 -149 -307q0 -113 48 -211h-61q-50 98 -50 206z" />
    <glyph glyph-name="uni208E" unicode="&#x208e;" horiz-adv-x="206" 
d="M132 132q0 -184 -138 -313h-75q149 126 149 308q0 113 -48 210h62q50 -102 50 -205z" />
    <glyph glyph-name="Euro" unicode="&#x20ac;" 
d="M12 240l10 57h75q3 46 14 94h-71l11 57h77q42 115 124.5 183.5t185.5 68.5q84 0 158 -46l-13 -71q-66 49 -142 49q-74 0 -134 -49.5t-94 -134.5h229l-10 -57h-240q-12 -57 -14 -94h236l-11 -57h-224q5 -85 50 -134.5t118 -49.5q69 0 144 42l-14 -77q-71 -33 -145 -33
q-102 0 -167 70t-69 182h-84z" />
    <glyph glyph-name="afii61289" unicode="&#x2113;" horiz-adv-x="387" 
d="M297 80l-13 -73q-47 -19 -95 -19q-60 0 -96 32.5t-36 86.5q0 19 3 38l82 439q13 70 52 108.5t96 38.5q52 0 85 -36.5t33 -95.5q0 -90 -64.5 -179.5t-184.5 -165.5l-19 -103q-4 -20 -4 -32q0 -29 19.5 -47t53.5 -18q36 0 88 26zM347 592q0 33 -15 53.5t-39 20.5
q-56 0 -73 -89l-45 -238q83 56 127.5 122t44.5 131z" />
    <glyph glyph-name="numero" unicode="&#x2116;" horiz-adv-x="1078" 
d="M53 0l129 688h67l268 -553l104 553h78l-129 -688h-68l-268 553l-103 -553h-78zM759 257l10 49h277l-10 -49h-277zM797 497q0 87 49.5 143t127.5 56q58 0 93.5 -36t35.5 -93q0 -86 -50 -142.5t-128 -56.5q-57 0 -92.5 35.5t-35.5 93.5zM862 503q0 -38 19 -60t51 -22
q44 0 75 40.5t31 99.5q0 37 -19.5 59.5t-51.5 22.5q-44 0 -74.5 -40.5t-30.5 -99.5z" />
    <glyph glyph-name="uni2117" unicode="&#x2117;" horiz-adv-x="845" 
d="M81 344q0 158 100.5 259t258.5 101t259 -101t101 -259t-101 -259t-259 -101t-258.5 101t-100.5 259zM134 344q0 -135 86 -221t220 -86q135 0 221 86t86 221t-86 221t-221 86q-134 0 -220 -86t-86 -221zM328 141v406h136q62 0 101 -36t39 -92t-39.5 -92.5t-100.5 -36.5
h-72v-149h-64zM392 495v-152h63q37 0 60 21t23 55t-23 55t-60 21h-63z" />
    <glyph glyph-name="uni2120" unicode="&#x2120;" horiz-adv-x="847" 
d="M88 302v62q57 -37 112 -37q37 0 60 18t23 47q0 25 -21 40.5t-50.5 25t-59.5 21.5t-51 37t-21 64q0 51 39.5 83t101.5 32q53 0 108 -22v-62q-50 31 -103 31q-36 0 -58 -17t-22 -44q0 -24 21 -39.5t50.5 -25t59 -21t50.5 -37.5t21 -65q0 -52 -40 -85t-103 -33
q-60 0 -117 27zM443 282v406h57l137 -191l135 191h58v-406h-63v301l-111 -157h-39l-111 157v-301h-63z" />
    <glyph glyph-name="trademark" unicode="&#x2122;" horiz-adv-x="872" 
d="M193 282v353h-127v53h320v-53h-127v-353h-66zM469 282v406h57l136 -191l136 191h57v-406h-62v301l-111 -157h-40l-111 157v-301h-62z" />
    <glyph glyph-name="Omega" unicode="&#x2126;" horiz-adv-x="747" 
d="M-7 0l12 65h190q-109 142 -109 284q0 154 98 252.5t252 98.5q115 0 193 -73.5t78 -180.5q0 -211 -217 -381h183l-13 -65h-281l11 53q233 177 233 378q0 90 -53.5 145t-140.5 55q-118 0 -189.5 -82.5t-71.5 -216.5q0 -132 106 -279l-10 -53h-271z" />
    <glyph glyph-name="estimated" unicode="&#x212e;" horiz-adv-x="938" 
d="M113 344q0 148 114.5 252t276.5 104t276.5 -104t114.5 -252v-16h-641v-191q46 -55 111 -86t139 -31q76 0 142 32t111 89h68q-54 -71 -138.5 -112t-182.5 -41q-162 0 -276.5 104.5t-114.5 251.5zM254 551v-191h500v191q-45 55 -110.5 86.5t-139.5 31.5t-139 -31.5
t-111 -86.5z" />
    <glyph glyph-name="onethird" unicode="&#x2153;" horiz-adv-x="845" 
d="M175 282l63 334l-111 -49l11 61l135 60h44l-76 -406h-66zM82 0l642 688h73l-641 -688h-74zM603 181l10 51h21q40 0 66.5 21t26.5 52q0 24 -18 39t-46 15q-45 0 -94 -26l11 60q48 20 96 20q50 0 82.5 -27.5t32.5 -70.5q0 -38 -24 -68t-64 -42q29 -10 46 -33t17 -54
q0 -54 -43 -89.5t-109 -35.5q-60 0 -112 32l10 58q48 -36 100 -36q38 0 63 20.5t25 52.5q0 27 -21.5 44t-56.5 17h-19z" />
    <glyph glyph-name="twothirds" unicode="&#x2154;" horiz-adv-x="845" 
d="M45 282l9 44q226 158 226 250q0 29 -17 46t-46 17q-50 0 -102 -37l11 65q52 28 109 28q50 0 81 -29.5t31 -77.5q0 -102 -200 -252h161l-10 -54h-253zM82 0l642 688h73l-641 -688h-74zM603 181l10 51h21q40 0 66.5 21t26.5 52q0 24 -18 39t-46 15q-45 0 -94 -26l11 60
q48 20 96 20q50 0 82.5 -27.5t32.5 -70.5q0 -38 -24 -68t-64 -42q29 -10 46 -33t17 -54q0 -54 -43 -89.5t-109 -35.5q-60 0 -112 32l10 58q48 -36 100 -36q38 0 63 20.5t25 52.5q0 27 -21.5 44t-56.5 17h-19z" />
    <glyph glyph-name="uni2155" unicode="&#x2155;" horiz-adv-x="845" 
d="M175 282l63 334l-111 -49l11 61l135 60h44l-76 -406h-66zM82 0l642 688h73l-641 -688h-74zM803 406l-10 -54h-153l-20 -103q26 2 35 2q52 0 86 -31.5t34 -79.5q0 -65 -46 -106t-119 -41q-50 0 -101 28l11 59q47 -33 90 -33q42 0 70 24t28 62q0 31 -22.5 50t-58.5 19
q-35 0 -74 -9l39 213h211z" />
    <glyph glyph-name="uni2156" unicode="&#x2156;" horiz-adv-x="845" 
d="M45 282l9 44q226 158 226 250q0 29 -17 46t-46 17q-50 0 -102 -37l11 65q52 28 109 28q50 0 81 -29.5t31 -77.5q0 -102 -200 -252h161l-10 -54h-253zM82 0l642 688h73l-641 -688h-74zM803 406l-10 -54h-153l-20 -103q26 2 35 2q52 0 86 -31.5t34 -79.5q0 -65 -46 -106
t-119 -41q-50 0 -101 28l11 59q47 -33 90 -33q42 0 70 24t28 62q0 31 -22.5 50t-58.5 19q-35 0 -74 -9l39 213h211z" />
    <glyph glyph-name="uni2157" unicode="&#x2157;" horiz-adv-x="845" 
d="M156 463l10 51h21q40 0 66.5 21t26.5 52q0 24 -18 39t-46 15q-45 0 -94 -26l11 60q48 20 96 20q50 0 82.5 -27.5t32.5 -70.5q0 -38 -24 -68t-64 -42q29 -10 46 -33t17 -54q0 -54 -43 -89.5t-109 -35.5q-60 0 -112 32l10 58q48 -36 100 -36q38 0 63 20.5t25 52.5
q0 27 -21.5 44t-56.5 17h-19zM82 0l642 688h73l-641 -688h-74zM803 406l-10 -54h-153l-20 -103q26 2 35 2q52 0 86 -31.5t34 -79.5q0 -65 -46 -106t-119 -41q-50 0 -101 28l11 59q47 -33 90 -33q42 0 70 24t28 62q0 31 -22.5 50t-58.5 19q-35 0 -74 -9l39 213h211z" />
    <glyph glyph-name="uni2158" unicode="&#x2158;" horiz-adv-x="845" 
d="M205 282l20 106h-180l9 46l233 254h56l-47 -250h61l-9 -50h-62l-20 -106h-61zM118 438h116l29 156zM82 0l642 688h73l-641 -688h-74zM803 406l-10 -54h-153l-20 -103q26 2 35 2q52 0 86 -31.5t34 -79.5q0 -65 -46 -106t-119 -41q-50 0 -101 28l11 59q47 -33 90 -33
q42 0 70 24t28 62q0 31 -22.5 50t-58.5 19q-35 0 -74 -9l39 213h211z" />
    <glyph glyph-name="uni2159" unicode="&#x2159;" horiz-adv-x="845" 
d="M175 282l63 334l-111 -49l11 61l135 60h44l-76 -406h-66zM82 0l642 688h73l-641 -688h-74zM696 406h90q-123 -81 -173 -166q32 19 71 19q47 0 78.5 -32t31.5 -80q0 -65 -45.5 -109.5t-111.5 -44.5q-54 0 -88.5 35t-34.5 92q0 74 47.5 148.5t134.5 137.5zM587 174
q-10 -28 -10 -51q0 -34 18.5 -55t48.5 -21q35 0 60.5 27.5t25.5 65.5q0 29 -18 48t-47 19q-40 0 -78 -33z" />
    <glyph glyph-name="uni215A" unicode="&#x215a;" horiz-adv-x="845" 
d="M355 688l-10 -54h-153l-20 -103q26 2 35 2q52 0 86 -31.5t34 -79.5q0 -65 -46 -106t-119 -41q-50 0 -101 28l11 59q47 -33 90 -33q42 0 70 24t28 62q0 31 -22.5 50t-58.5 19q-35 0 -74 -9l39 213h211zM82 0l642 688h73l-641 -688h-74zM696 406h90q-123 -81 -173 -166
q32 19 71 19q47 0 78.5 -32t31.5 -80q0 -65 -45.5 -109.5t-111.5 -44.5q-54 0 -88.5 35t-34.5 92q0 74 47.5 148.5t134.5 137.5zM587 174q-10 -28 -10 -51q0 -34 18.5 -55t48.5 -21q35 0 60.5 27.5t25.5 65.5q0 29 -18 48t-47 19q-40 0 -78 -33z" />
    <glyph glyph-name="oneeighth" unicode="&#x215b;" horiz-adv-x="845" 
d="M175 282l63 334l-111 -49l11 61l135 60h44l-76 -406h-66zM82 0l642 688h73l-641 -688h-74zM551 288q0 53 42 89t104 36q50 0 82.5 -28t32.5 -71q0 -37 -21.5 -65.5t-60.5 -42.5q56 -24 56 -84q0 -56 -44.5 -92.5t-111.5 -36.5q-52 0 -87.5 29t-35.5 72q0 41 25 72t68 43
q-49 24 -49 79zM571 102q0 -25 18 -41.5t46 -16.5q38 0 62.5 22t24.5 57q0 25 -18 41.5t-46 16.5q-38 0 -62.5 -22t-24.5 -57zM613 287q0 -25 16.5 -40.5t42.5 -15.5q33 0 55.5 21.5t22.5 53.5q0 25 -16.5 40.5t-42.5 15.5q-34 0 -56 -21.5t-22 -53.5z" />
    <glyph glyph-name="threeeighths" unicode="&#x215c;" horiz-adv-x="845" 
d="M153 463l10 51h21q40 0 66.5 21t26.5 52q0 24 -18 39t-46 15q-45 0 -94 -26l11 60q48 20 96 20q50 0 82.5 -27.5t32.5 -70.5q0 -38 -24 -68t-64 -42q29 -10 46 -33t17 -54q0 -54 -43 -89.5t-109 -35.5q-60 0 -112 32l10 58q48 -36 100 -36q38 0 63 20.5t25 52.5
q0 27 -21.5 44t-56.5 17h-19zM82 0l642 688h73l-641 -688h-74zM551 288q0 53 42 89t104 36q50 0 82.5 -28t32.5 -71q0 -37 -21.5 -65.5t-60.5 -42.5q56 -24 56 -84q0 -56 -44.5 -92.5t-111.5 -36.5q-52 0 -87.5 29t-35.5 72q0 41 25 72t68 43q-49 24 -49 79zM571 102
q0 -25 18 -41.5t46 -16.5q38 0 62.5 22t24.5 57q0 25 -18 41.5t-46 16.5q-38 0 -62.5 -22t-24.5 -57zM613 287q0 -25 16.5 -40.5t42.5 -15.5q33 0 55.5 21.5t22.5 53.5q0 25 -16.5 40.5t-42.5 15.5q-34 0 -56 -21.5t-22 -53.5z" />
    <glyph glyph-name="fiveeighths" unicode="&#x215d;" horiz-adv-x="845" 
d="M355 688l-10 -54h-153l-20 -103q26 2 35 2q52 0 86 -31.5t34 -79.5q0 -65 -46 -106t-119 -41q-50 0 -101 28l11 59q47 -33 90 -33q42 0 70 24t28 62q0 31 -22.5 50t-58.5 19q-35 0 -74 -9l39 213h211zM82 0l642 688h73l-641 -688h-74zM551 288q0 53 42 89t104 36
q50 0 82.5 -28t32.5 -71q0 -37 -21.5 -65.5t-60.5 -42.5q56 -24 56 -84q0 -56 -44.5 -92.5t-111.5 -36.5q-52 0 -87.5 29t-35.5 72q0 41 25 72t68 43q-49 24 -49 79zM571 102q0 -25 18 -41.5t46 -16.5q38 0 62.5 22t24.5 57q0 25 -18 41.5t-46 16.5q-38 0 -62.5 -22
t-24.5 -57zM613 287q0 -25 16.5 -40.5t42.5 -15.5q33 0 55.5 21.5t22.5 53.5q0 25 -16.5 40.5t-42.5 15.5q-34 0 -56 -21.5t-22 -53.5z" />
    <glyph glyph-name="seveneighths" unicode="&#x215e;" horiz-adv-x="845" 
d="M80 282l214 352h-184l10 54h260l-9 -41l-220 -365h-71zM82 0l642 688h73l-641 -688h-74zM551 288q0 53 42 89t104 36q50 0 82.5 -28t32.5 -71q0 -37 -21.5 -65.5t-60.5 -42.5q56 -24 56 -84q0 -56 -44.5 -92.5t-111.5 -36.5q-52 0 -87.5 29t-35.5 72q0 41 25 72t68 43
q-49 24 -49 79zM571 102q0 -25 18 -41.5t46 -16.5q38 0 62.5 22t24.5 57q0 25 -18 41.5t-46 16.5q-38 0 -62.5 -22t-24.5 -57zM613 287q0 -25 16.5 -40.5t42.5 -15.5q33 0 55.5 21.5t22.5 53.5q0 25 -16.5 40.5t-42.5 15.5q-34 0 -56 -21.5t-22 -53.5z" />
    <glyph glyph-name="uni215F" unicode="&#x215f;" horiz-adv-x="500" 
d="M175 282l63 334l-111 -49l11 61l135 60h44l-76 -406h-66zM82 0l642 688h73l-641 -688h-74z" />
    <glyph glyph-name="arrowleft" unicode="&#x2190;" horiz-adv-x="1000" 
d="M937 244h-728l244 -244h-108l-282 282l282 282h108l-244 -244h728v-76z" />
    <glyph glyph-name="arrowup" unicode="&#x2191;" horiz-adv-x="1000" 
d="M462 -155v728l-244 -244v108l282 282l282 -282v-108l-244 244v-728h-76z" />
    <glyph glyph-name="arrowright" unicode="&#x2192;" horiz-adv-x="1000" 
d="M63 320h728l-244 244h108l282 -282l-282 -282h-108l244 244h-728v76z" />
    <glyph glyph-name="arrowdown" unicode="&#x2193;" horiz-adv-x="1000" 
d="M538 719v-728l244 244v-108l-282 -282l-282 282v108l244 -244v728h76z" />
    <glyph glyph-name="uni2196" unicode="&#x2196;" horiz-adv-x="1000" 
d="M782 -54l-515 515v-345l-76 76v399h399l76 -76h-345l515 -515z" />
    <glyph glyph-name="uni2197" unicode="&#x2197;" horiz-adv-x="1000" 
d="M164 0l515 515h-345l76 76h399v-399l-76 -76v345l-515 -515z" />
    <glyph glyph-name="uni2198" unicode="&#x2198;" horiz-adv-x="1000" 
d="M218 618l515 -515v345l76 -76v-399h-399l-76 76h345l-515 515z" />
    <glyph glyph-name="uni2199" unicode="&#x2199;" horiz-adv-x="1000" 
d="M836 564l-515 -515h345l-76 -76h-399v399l76 76v-345l515 515z" />
    <glyph glyph-name="partialdiff" unicode="&#x2202;" horiz-adv-x="567" 
d="M43 254q0 114 64 186t166 72q90 0 153 -67q-12 102 -60 161.5t-119 59.5q-73 0 -144 -49v75q72 39 153 39q118 0 189.5 -104t71.5 -280q0 -160 -68.5 -259.5t-177.5 -99.5q-100 0 -164 74.5t-64 191.5zM124 251q0 -86 41 -141.5t107 -55.5q74 0 119 69.5t45 183.5
q0 8 -0.5 18t-1.5 21.5t-1 18.5q-69 81 -150 81q-71 0 -115 -54t-44 -141z" />
    <glyph glyph-name="Delta" unicode="&#x2206;" horiz-adv-x="622" 
d="M-8 0l10 48l364 640h65l128 -646l-7 -42h-560zM381 572l-283 -507h378z" />
    <glyph glyph-name="product" unicode="&#x220f;" horiz-adv-x="763" 
d="M100 -219v938h564v-938h-82v873h-401v-873h-81z" />
    <glyph glyph-name="summation" unicode="&#x2211;" horiz-adv-x="665" 
d="M68 -219v52l329 423l-313 412v51h518v-65h-415l283 -374v-48l-299 -386h447v-65h-550z" />
    <glyph glyph-name="minus" unicode="&#x2212;" 
d="M37 247v69h501v-69h-501z" />
    <glyph glyph-name="uni2215" unicode="&#x2215;" horiz-adv-x="156" 
d="M-262 0l642 688h73l-641 -688h-74z" />
    <glyph glyph-name="uni2219" unicode="&#x2219;" horiz-adv-x="250" 
d="M72 245q0 26 16.5 42.5t42.5 16.5q20 0 34 -13.5t14 -34.5q0 -25 -17 -42t-42 -17q-21 0 -34.5 13.5t-13.5 34.5z" />
    <glyph glyph-name="radical" unicode="&#x221a;" horiz-adv-x="688" 
d="M637 719l-235 -938h-70l-116 349l-161 -54v70l204 68l105 -314l205 819h68z" />
    <glyph glyph-name="infinity" unicode="&#x221e;" horiz-adv-x="794" 
d="M49 282q0 85 48 138t124 53q97 0 157 -94l25 -39l26 39q61 94 156 94q76 0 124.5 -53.5t48.5 -137.5q0 -85 -48.5 -138.5t-124.5 -53.5q-95 0 -156 94l-26 39l-25 -39q-60 -94 -157 -94q-76 0 -124 53.5t-48 138.5zM121 282q0 -56 29 -91.5t75 -35.5q59 0 101 64l41 63
l-41 62q-42 64 -101 64q-46 0 -75 -35.5t-29 -90.5zM685 282q0 56 -29 91t-75 35q-59 0 -101 -64l-41 -62l41 -63q42 -64 101 -64q46 0 75 35.5t29 91.5z" />
    <glyph glyph-name="integral" unicode="&#x222b;" horiz-adv-x="500" 
d="M281 457q0 -57 11 -204.5t11 -211.5q0 -131 -46 -201.5t-135 -70.5q-34 0 -71 16l11 66q29 -16 53 -16q105 0 105 208q0 57 -11.5 204.5t-11.5 212.5q0 130 47 200.5t134 70.5q34 0 72 -15l-12 -66q-27 15 -53 15q-104 0 -104 -208z" />
    <glyph glyph-name="approxequal" unicode="&#x2248;" 
d="M37 131v76q57 44 132 44q56 0 123 -30q69 -30 115 -30q67 0 131 52v-77q-61 -44 -132 -44q-57 0 -124 30q-65 30 -114 30q-68 0 -131 -51zM37 321v76q58 44 132 44q56 0 123 -30q65 -30 115 -30q66 0 131 51v-76q-57 -43 -132 -43q-59 0 -124 29q-65 30 -114 30
q-68 0 -131 -51z" />
    <glyph glyph-name="notequal" unicode="&#x2260;" 
d="M109 0l73 146h-145v69h179l67 133h-246v69h280l73 146h76l-73 -146h145v-69h-179l-67 -133h246v-69h-280l-73 -146h-76z" />
    <glyph glyph-name="lessequal" unicode="&#x2264;" 
d="M37 0v69h501v-69h-501zM538 132l-501 216v56l501 216v-75l-394 -169l394 -169v-75z" />
    <glyph glyph-name="greaterequal" unicode="&#x2265;" 
d="M37 0v69h501v-69h-501zM37 620l501 -216v-56l-501 -216v75l394 169l-394 169v75z" />
    <glyph glyph-name="lozenge" unicode="&#x25ca;" 
d="M269 0l-201 344l201 344h60l201 -344l-201 -344h-60zM299 603l-152 -259l152 -258l152 258z" />
    <glyph glyph-name="zero.lnum_pnum" unicode="&#xe010;" horiz-adv-x="606" 
d="M67 237q0 197 88.5 330t220.5 133q93 0 146 -66t53 -182q0 -197 -88.5 -330.5t-220.5 -133.5q-93 0 -146 66.5t-53 182.5zM149 248q0 -89 34 -140t90 -51q90 0 155.5 113t65.5 270q0 89 -34.5 140t-90.5 51q-90 0 -155 -113t-65 -270z" />
    <glyph glyph-name="one.lnum_pnum" unicode="&#xe011;" horiz-adv-x="392" 
d="M159 0l112 597l-194 -91l15 80l222 102h56l-129 -688h-82z" />
    <glyph glyph-name="two.lnum_pnum" unicode="&#xe012;" horiz-adv-x="499" 
d="M-17 0l11 60q204 147 304.5 257t100.5 197q0 53 -31.5 84.5t-84.5 31.5q-88 0 -179 -62l15 82q88 50 180 50q81 0 132 -46.5t51 -120.5q0 -100 -91.5 -210.5t-280.5 -253.5h302l-13 -69h-416z" />
    <glyph glyph-name="three.lnum_pnum" unicode="&#xe013;" horiz-adv-x="491" 
d="M166 317l12 65h38q75 0 126 41.5t51 103.5q0 46 -34.5 75.5t-87.5 29.5q-77 0 -160 -44l14 77q79 35 161 35q81 0 134.5 -45.5t53.5 -114.5q0 -67 -43.5 -120t-112.5 -72q51 -16 81 -56t30 -93q0 -93 -71 -152t-181 -59q-92 0 -185 55l14 74q85 -61 169 -61
q75 0 123.5 40.5t48.5 103.5q0 52 -41.5 84.5t-106.5 32.5h-33z" />
    <glyph glyph-name="four.lnum_pnum" unicode="&#xe014;" horiz-adv-x="555" 
d="M291 0l36 191h-312l11 59l403 438h70l-81 -434h108l-12 -63h-108l-36 -191h-79zM112 254h227l58 310z" />
    <glyph glyph-name="five.lnum_pnum" unicode="&#xe015;" horiz-adv-x="499" 
d="M499 688l-13 -69h-274l-39 -205q37 6 70 6q87 0 144.5 -53.5t57.5 -134.5q0 -107 -75 -175.5t-193 -68.5q-85 0 -168 50l15 76q77 -57 153 -57q79 0 132 46.5t53 118.5q0 60 -41 97t-108 37q-54 0 -126 -16l65 348h347z" />
    <glyph glyph-name="six.lnum_pnum" unicode="&#xe016;" horiz-adv-x="550" 
d="M368 688h119q-221 -146 -304 -296q63 41 138 41q78 0 130 -53.5t52 -134.5q0 -107 -74 -182t-181 -75q-89 0 -144.5 57.5t-55.5 150.5q0 127 83 255t237 237zM147 302q-19 -48 -19 -100q0 -65 35 -105t92 -40q68 0 118 53t50 126q0 57 -35 93.5t-89 36.5q-79 0 -152 -64z
" />
    <glyph glyph-name="seven.lnum_pnum" unicode="&#xe017;" horiz-adv-x="446" 
d="M20 0l380 619h-330l12 69h425l-9 -52l-388 -636h-90z" />
    <glyph glyph-name="eight.lnum_pnum" unicode="&#xe018;" horiz-adv-x="555" 
d="M114 492q0 88 68.5 148t169.5 60q80 0 133 -46.5t53 -116.5q0 -65 -38.5 -114.5t-107.5 -73.5q48 -19 75 -57.5t27 -87.5q0 -93 -72.5 -154.5t-183.5 -61.5q-83 0 -141 49t-58 119q0 71 43.5 124.5t119.5 74.5q-42 17 -65 53.5t-23 83.5zM120 167q0 -49 35.5 -81
t89.5 -32q73 0 120.5 42.5t47.5 107.5q0 50 -36 81.5t-90 31.5q-73 0 -120 -42.5t-47 -107.5zM193 491q0 -49 31.5 -79t82.5 -30q64 0 108 42t44 102q0 48 -32 78t-82 30q-64 0 -108 -41.5t-44 -101.5z" />
    <glyph glyph-name="nine.lnum_pnum" unicode="&#xe019;" horiz-adv-x="550" 
d="M217 0h-119q221 148 303 296q-64 -41 -137 -41q-79 0 -131 53.5t-52 134.5q0 108 74 182.5t181 74.5q89 0 145 -57.5t56 -150.5q0 -127 -83 -254.5t-237 -237.5zM437 386q19 48 19 100q0 65 -34.5 105t-92.5 40q-68 0 -117.5 -52.5t-49.5 -125.5q0 -57 34.5 -94t88.5 -37
q80 0 152 64z" />
    <glyph glyph-name="zero.onum_tnum" unicode="&#xe020;" 
d="M40 203q0 147 81.5 244t204.5 97q91 0 147 -59.5t56 -156.5q0 -146 -81.5 -243t-205.5 -97q-90 0 -146 59.5t-56 155.5zM121 212q0 -71 36 -114.5t95 -43.5q82 0 139 77.5t57 188.5q0 71 -36 114t-95 43q-82 0 -139 -77.5t-57 -187.5z" />
    <glyph glyph-name="one.onum_tnum" unicode="&#xe021;" 
d="M236 0l84 446l-156 -70l15 76l181 80h55l-100 -532h-79z" />
    <glyph glyph-name="two.onum_tnum" unicode="&#xe022;" 
d="M51 0l10 58q321 206 321 328q0 43 -23.5 66.5t-65.5 23.5q-67 0 -147 -52l15 79q76 41 148 41q70 0 112.5 -40t42.5 -106q0 -70 -68.5 -151t-211.5 -181h229l-12 -66h-350z" />
    <glyph glyph-name="three.onum_tnum" unicode="&#xe023;" 
d="M189 193l12 63h33q68 0 112 36.5t44 91.5q0 41 -29.5 67t-76.5 26q-68 0 -146 -40l14 74q74 33 147 33q75 0 123.5 -43.5t48.5 -109.5q0 -58 -38.5 -104t-100.5 -64q46 -15 72.5 -53.5t26.5 -89.5q0 -82 -65.5 -134t-165.5 -52q-84 0 -169 50l14 72q78 -56 153 -56
q66 0 108.5 36t42.5 92q0 46 -36.5 75.5t-94.5 29.5h-29z" />
    <glyph glyph-name="four.onum_tnum" unicode="&#xe024;" 
d="M266 -94l33 172h-282l11 58l363 396h70l-74 -393h99l-12 -61h-98l-33 -172h-77zM111 139h200l49 274z" />
    <glyph glyph-name="five.onum_tnum" unicode="&#xe025;" 
d="M487 532l-12 -67h-247l-33 -181q37 5 61 5q79 0 131.5 -48t52.5 -121q0 -100 -68.5 -163t-177.5 -63q-73 0 -154 46l14 74q72 -53 140 -53q70 0 117 41.5t47 106.5q0 53 -36.5 85t-95.5 32q-57 0 -116 -13l60 319h317z" />
    <glyph glyph-name="six.onum_tnum" unicode="&#xe026;" 
d="M354 626h116q-198 -132 -274 -267q59 37 122 37q72 0 119.5 -49t47.5 -123q0 -99 -68 -167.5t-166 -68.5q-81 0 -133.5 53.5t-52.5 138.5q0 114 75.5 230t213.5 216zM162 274q-17 -41 -17 -90q0 -57 31 -93t82 -36q61 0 104.5 47t43.5 112q0 51 -31 83.5t-79 32.5
q-70 0 -134 -56z" />
    <glyph glyph-name="seven.onum_tnum" unicode="&#xe027;" 
d="M72 -94l344 559h-301l13 67h391l-9 -51l-350 -575h-88z" />
    <glyph glyph-name="eight.onum_tnum" unicode="&#xe028;" 
d="M126 445q0 82 62.5 137t157.5 55q75 0 122.5 -42.5t47.5 -106.5q0 -59 -34.5 -103.5t-97.5 -67.5q44 -17 68 -51.5t24 -78.5q0 -86 -67 -142.5t-169 -56.5q-76 0 -129 45.5t-53 109.5q0 63 40 111.5t108 68.5q-37 16 -58.5 48.5t-21.5 73.5zM138 154q0 -44 31 -73t78 -29
q64 0 107 38.5t43 95.5q0 44 -31 72t-79 28q-64 0 -106.5 -37.5t-42.5 -94.5zM203 446q0 -43 28 -70t72 -27q58 0 97 37t39 91q0 43 -28 69.5t-72 26.5q-57 0 -96.5 -36.5t-39.5 -90.5z" />
    <glyph glyph-name="nine.onum_tnum" unicode="&#xe029;" 
d="M214 -94h-116q197 130 274 267q-56 -37 -122 -37q-72 0 -119.5 49t-47.5 123q0 98 68 167t166 69q81 0 133.5 -53.5t52.5 -138.5q0 -115 -75 -230.5t-214 -215.5zM406 258q17 43 17 90q0 57 -31 92.5t-82 35.5q-61 0 -104.5 -46.5t-43.5 -111.5q0 -51 31 -83.5t79 -32.5
q70 0 134 56z" />
    <glyph glyph-name="dollar.onum" unicode="&#xe02a;" 
d="M169 -164l25 138q-63 9 -125 45l14 72q79 -55 155 -55q54 0 88 27.5t34 71.5q0 33 -23.5 57t-56.5 41l-66.5 35.5t-57 51t-23.5 77.5q0 67 47.5 111.5t124.5 50.5l25 137h69l-26 -138q58 -9 113 -39l-15 -72q-75 49 -141 49q-52 0 -84.5 -26.5t-32.5 -67.5
q0 -31 23.5 -54t56.5 -39.5t66.5 -36t57 -53t23.5 -79.5q0 -69 -49 -115t-128 -52l-25 -137h-69z" />
    <glyph glyph-name="cent.onum" unicode="&#xe02b;" 
d="M217 -109l26 142q-63 14 -100.5 63t-37.5 118q0 117 63 197t163 91l26 139h68l-25 -140q53 -8 95 -36l-13 -69q-56 42 -118 42q-77 0 -127 -60.5t-50 -152.5q0 -60 33 -96t89 -36q62 0 124 37l-14 -74q-53 -25 -109 -28l-26 -137h-67z" />
    <glyph glyph-name="Euro.onum" unicode="&#xe02c;" 
d="M35 217l10 56h65q5 44 13 80h-62l10 56h69q37 104 112.5 166t168.5 62q75 0 146 -42l-13 -70q-60 46 -129 46q-65 0 -118.5 -44t-82.5 -118h207l-10 -56h-219q-9 -39 -12 -80h216l-11 -56h-203q5 -75 45.5 -119t105.5 -44q60 0 130 39l-14 -73q-66 -32 -131 -32
q-94 0 -154.5 63.5t-64.5 165.5h-74z" />
    <glyph glyph-name="sterling.onum" unicode="&#xe02d;" 
d="M31 0l9 51l114 236h-63l11 63h82l84 174q26 55 68 84t93 29q53 0 109 -30l-13 -67q-41 30 -86 30q-63 0 -96 -68l-72 -152h135l-13 -63h-153l-106 -222h324l-12 -65h-415z" />
    <glyph glyph-name="yen.onum" unicode="&#xe02e;" 
d="M194 0l26 136h-137l10 57h137l16 82h-137l10 57h118l-126 294h85l104 -257l198 257h96l-235 -294h121l-11 -57h-145l-15 -82h145l-11 -57h-145l-25 -136h-79z" />
    <glyph glyph-name="zero.onum_pnum" unicode="&#xe030;" horiz-adv-x="575" 
d="M46 203q0 147 81.5 244t204.5 97q91 0 147 -59.5t56 -156.5q0 -146 -81.5 -243t-205.5 -97q-90 0 -146 59.5t-56 155.5zM127 212q0 -71 36 -114.5t95 -43.5q82 0 139 77.5t57 188.5q0 71 -36 114t-95 43q-82 0 -139 -77.5t-57 -187.5z" />
    <glyph glyph-name="one.onum_pnum" unicode="&#xe031;" horiz-adv-x="329" 
d="M119 0l84 446l-156 -70l15 76l181 80h55l-100 -532h-79z" />
    <glyph glyph-name="two.onum_pnum" unicode="&#xe032;" horiz-adv-x="426" 
d="M-17 0l10 58q321 206 321 328q0 43 -23.5 66.5t-65.5 23.5q-67 0 -147 -52l15 79q76 41 148 41q70 0 112.5 -40t42.5 -106q0 -70 -68.5 -151t-211.5 -181h229l-12 -66h-350z" />
    <glyph glyph-name="three.onum_pnum" unicode="&#xe033;" horiz-adv-x="442" 
d="M128 193l12 63h33q68 0 112 36.5t44 91.5q0 41 -29.5 67t-76.5 26q-68 0 -146 -40l14 74q74 33 147 33q75 0 123.5 -43.5t48.5 -109.5q0 -58 -38.5 -104t-100.5 -64q46 -15 72.5 -53.5t26.5 -89.5q0 -82 -65.5 -134t-165.5 -52q-84 0 -169 50l14 72q78 -56 153 -56
q66 0 108.5 36t42.5 92q0 46 -36.5 75.5t-94.5 29.5h-29z" />
    <glyph glyph-name="four.onum_pnum" unicode="&#xe034;" horiz-adv-x="508" 
d="M239 -94l33 172h-282l11 58l363 396h70l-74 -393h99l-12 -61h-98l-33 -172h-77zM84 139h200l49 274z" />
    <glyph glyph-name="five.onum_pnum" unicode="&#xe035;" horiz-adv-x="438" 
d="M425 532l-12 -67h-247l-33 -181q37 5 61 5q79 0 131.5 -48t52.5 -121q0 -100 -68.5 -163t-177.5 -63q-73 0 -154 46l14 74q72 -53 140 -53q70 0 117 41.5t47 106.5q0 53 -36.5 85t-95.5 32q-57 0 -116 -13l60 319h317z" />
    <glyph glyph-name="six.onum_pnum" unicode="&#xe036;" horiz-adv-x="509" 
d="M327 626h116q-198 -132 -274 -267q59 37 122 37q72 0 119.5 -49t47.5 -123q0 -99 -68 -167.5t-166 -68.5q-81 0 -133.5 53.5t-52.5 138.5q0 114 75.5 230t213.5 216zM135 274q-17 -41 -17 -90q0 -57 31 -93t82 -36q61 0 104.5 47t43.5 112q0 51 -31 83.5t-79 32.5
q-70 0 -134 -56z" />
    <glyph glyph-name="seven.onum_pnum" unicode="&#xe037;" horiz-adv-x="407" 
d="M-6 -94l344 559h-301l13 67h391l-9 -51l-350 -575h-88z" />
    <glyph glyph-name="eight.onum_pnum" unicode="&#xe038;" horiz-adv-x="508" 
d="M99 445q0 82 62.5 137t157.5 55q75 0 122.5 -42.5t47.5 -106.5q0 -59 -34.5 -103.5t-97.5 -67.5q44 -17 68 -51.5t24 -78.5q0 -86 -67 -142.5t-169 -56.5q-76 0 -129 45.5t-53 109.5q0 63 40 111.5t108 68.5q-37 16 -58.5 48.5t-21.5 73.5zM111 154q0 -44 31 -73t78 -29
q64 0 107 38.5t43 95.5q0 44 -31 72t-79 28q-64 0 -106.5 -37.5t-42.5 -94.5zM176 446q0 -43 28 -70t72 -27q58 0 97 37t39 91q0 43 -28 69.5t-72 26.5q-57 0 -96.5 -36.5t-39.5 -90.5z" />
    <glyph glyph-name="nine.onum_pnum" unicode="&#xe039;" horiz-adv-x="509" 
d="M187 -94h-116q197 130 274 267q-56 -37 -122 -37q-72 0 -119.5 49t-47.5 123q0 98 68 167t166 69q81 0 133.5 -53.5t52.5 -138.5q0 -115 -75 -230.5t-214 -215.5zM379 258q17 43 17 90q0 57 -31 92.5t-82 35.5q-61 0 -104.5 -46.5t-43.5 -111.5q0 -51 31 -83.5t79 -32.5
q70 0 134 56z" />
    <glyph glyph-name="zero.numerator" unicode="&#xe040;" horiz-adv-x="372" 
d="M75 422q0 117 53.5 195t133.5 78q56 0 88.5 -39t32.5 -108q0 -117 -53 -195t-133 -78q-58 0 -90 39t-32 108zM140 429q0 -46 17 -73t46 -27q47 0 81 62.5t34 149.5q0 46 -17 73t-46 27q-47 0 -81 -62.5t-34 -149.5z" />
    <glyph glyph-name="one.numerator" unicode="&#xe041;" horiz-adv-x="252" 
d="M129 282l63 334l-111 -49l11 61l135 60h44l-76 -406h-66z" />
    <glyph glyph-name="two.numerator" unicode="&#xe042;" horiz-adv-x="309" 
d="M27 282l9 44q226 158 226 250q0 29 -17 46t-46 17q-50 0 -102 -37l11 65q52 28 109 28q50 0 81 -29.5t31 -77.5q0 -102 -200 -252h161l-10 -54h-253z" />
    <glyph glyph-name="three.numerator" unicode="&#xe043;" horiz-adv-x="305" 
d="M136 463l10 51h21q40 0 66.5 21t26.5 52q0 24 -18 39t-46 15q-45 0 -94 -26l11 60q48 20 96 20q50 0 82.5 -27.5t32.5 -70.5q0 -38 -24 -68t-64 -42q29 -10 46 -33t17 -54q0 -54 -43 -89.5t-109 -35.5q-60 0 -112 32l10 58q48 -36 100 -36q38 0 63 20.5t25 52.5
q0 27 -21.5 44t-56.5 17h-19z" />
    <glyph glyph-name="four.numerator" unicode="&#xe044;" horiz-adv-x="344" 
d="M205 282l20 106h-180l9 46l233 254h56l-47 -250h61l-9 -50h-62l-20 -106h-61zM118 438h116l29 156z" />
    <glyph glyph-name="five.numerator" unicode="&#xe045;" horiz-adv-x="310" 
d="M338 688l-10 -54h-153l-20 -103q26 2 35 2q52 0 86 -31.5t34 -79.5q0 -65 -46 -106t-119 -41q-50 0 -101 28l11 59q47 -33 90 -33q42 0 70 24t28 62q0 31 -22.5 50t-58.5 19q-35 0 -74 -9l39 213h211z" />
    <glyph glyph-name="six.numerator" unicode="&#xe046;" horiz-adv-x="342" 
d="M248 688h90q-123 -81 -173 -166q32 19 71 19q47 0 78.5 -32t31.5 -80q0 -65 -45.5 -109.5t-111.5 -44.5q-54 0 -88.5 35t-34.5 92q0 74 47.5 148.5t134.5 137.5zM139 456q-10 -28 -10 -51q0 -34 18.5 -55t48.5 -21q35 0 60.5 27.5t25.5 65.5q0 29 -18 48t-47 19
q-40 0 -78 -33z" />
    <glyph glyph-name="seven.numerator" unicode="&#xe047;" horiz-adv-x="280" 
d="M47 282l214 352h-184l10 54h260l-9 -41l-220 -365h-71z" />
    <glyph glyph-name="eight.numerator" unicode="&#xe048;" horiz-adv-x="344" 
d="M104 570q0 53 42 89t104 36q50 0 82.5 -28t32.5 -71q0 -37 -21.5 -65.5t-60.5 -42.5q56 -24 56 -84q0 -56 -44.5 -92.5t-111.5 -36.5q-52 0 -87.5 29t-35.5 72q0 41 25 72t68 43q-49 24 -49 79zM124 384q0 -25 18 -41.5t46 -16.5q38 0 62.5 22t24.5 57q0 25 -18 41.5
t-46 16.5q-38 0 -62.5 -22t-24.5 -57zM166 569q0 -25 16.5 -40.5t42.5 -15.5q33 0 55.5 21.5t22.5 53.5q0 25 -16.5 40.5t-42.5 15.5q-34 0 -56 -21.5t-22 -53.5z" />
    <glyph glyph-name="nine.numerator" unicode="&#xe049;" horiz-adv-x="342" 
d="M183 282h-91q122 79 174 166q-34 -19 -72 -19q-47 0 -78 32t-31 80q0 65 45 109.5t111 44.5q54 0 89 -35.5t35 -91.5q0 -74 -47.5 -148.5t-134.5 -137.5zM291 514q10 28 10 51q0 34 -18 55t-48 21q-35 0 -61 -27.5t-26 -65.5q0 -29 18.5 -48t47.5 -19q41 0 77 33z" />
    <glyph glyph-name="plus.numerator" unicode="&#xe04a;" horiz-adv-x="344" 
d="M69 457v56h120v120h56v-120h120v-56h-120v-120h-56v120h-120z" />
    <glyph glyph-name="minus.numerator" unicode="&#xe04b;" horiz-adv-x="344" 
d="M69 457v56h296v-56h-296z" />
    <glyph glyph-name="equal.numerator" unicode="&#xe04c;" horiz-adv-x="344" 
d="M69 397v55h296v-55h-296zM69 518v55h296v-55h-296z" />
    <glyph glyph-name="parenleft.numerator" unicode="&#xe04d;" horiz-adv-x="206" 
d="M83 432q0 185 138 312h74q-149 -126 -149 -307q0 -113 48 -211h-61q-50 98 -50 206z" />
    <glyph glyph-name="parenright.numerator" unicode="&#xe04e;" horiz-adv-x="206" 
d="M209 539q0 -184 -138 -313h-75q149 126 149 308q0 112 -48 210h62q50 -102 50 -205z" />
    <glyph glyph-name="zero.denominator" unicode="&#xe050;" horiz-adv-x="372" 
d="M22 140q0 117 53.5 195t133.5 78q56 0 88.5 -39t32.5 -108q0 -117 -53 -195t-133 -78q-58 0 -90 39t-32 108zM87 147q0 -46 17 -73t46 -27q47 0 81 62.5t34 149.5q0 46 -17 73t-46 27q-47 0 -81 -62.5t-34 -149.5z" />
    <glyph glyph-name="one.denominator" unicode="&#xe051;" horiz-adv-x="252" 
d="M76 0l63 334l-111 -49l11 61l135 60h44l-76 -406h-66z" />
    <glyph glyph-name="two.denominator" unicode="&#xe052;" horiz-adv-x="309" 
d="M-26 0l9 44q226 158 226 250q0 29 -17 46t-46 17q-50 0 -102 -37l11 65q52 28 109 28q50 0 81 -29.5t31 -77.5q0 -102 -200 -252h161l-10 -54h-253z" />
    <glyph glyph-name="three.denominator" unicode="&#xe053;" horiz-adv-x="305" 
d="M83 181l10 51h21q40 0 66.5 21t26.5 52q0 24 -18 39t-46 15q-45 0 -94 -26l11 60q48 20 96 20q50 0 82.5 -27.5t32.5 -70.5q0 -38 -24 -68t-64 -42q29 -10 46 -33t17 -54q0 -54 -43 -89.5t-109 -35.5q-60 0 -112 32l10 58q48 -36 100 -36q38 0 63 20.5t25 52.5
q0 27 -21.5 44t-56.5 17h-19z" />
    <glyph glyph-name="four.denominator" unicode="&#xe054;" horiz-adv-x="344" 
d="M152 0l20 106h-180l9 46l233 254h56l-47 -250h61l-9 -50h-62l-20 -106h-61zM65 156h116l29 156z" />
    <glyph glyph-name="five.denominator" unicode="&#xe055;" horiz-adv-x="310" 
d="M285 406l-10 -54h-153l-20 -103q26 2 35 2q52 0 86 -31.5t34 -79.5q0 -65 -46 -106t-119 -41q-50 0 -101 28l11 59q47 -33 90 -33q42 0 70 24t28 62q0 31 -22.5 50t-58.5 19q-35 0 -74 -9l39 213h211z" />
    <glyph glyph-name="six.denominator" unicode="&#xe056;" horiz-adv-x="342" 
d="M195 406h90q-123 -81 -173 -166q32 19 71 19q47 0 78.5 -32t31.5 -80q0 -65 -45.5 -109.5t-111.5 -44.5q-54 0 -88.5 35t-34.5 92q0 74 47.5 148.5t134.5 137.5zM86 174q-10 -28 -10 -51q0 -34 18.5 -55t48.5 -21q35 0 60.5 27.5t25.5 65.5q0 29 -18 48t-47 19
q-40 0 -78 -33z" />
    <glyph glyph-name="seven.denominator" unicode="&#xe057;" horiz-adv-x="280" 
d="M-6 0l214 352h-184l10 54h260l-9 -41l-220 -365h-71z" />
    <glyph glyph-name="eight.denominator" unicode="&#xe058;" horiz-adv-x="344" 
d="M51 288q0 53 42 89t104 36q50 0 82.5 -28t32.5 -71q0 -37 -21.5 -65.5t-60.5 -42.5q56 -24 56 -84q0 -56 -44.5 -92.5t-111.5 -36.5q-52 0 -87.5 29t-35.5 72q0 41 25 72t68 43q-49 24 -49 79zM71 102q0 -25 18 -41.5t46 -16.5q38 0 62.5 22t24.5 57q0 25 -18 41.5
t-46 16.5q-38 0 -62.5 -22t-24.5 -57zM113 287q0 -25 16.5 -40.5t42.5 -15.5q33 0 55.5 21.5t22.5 53.5q0 25 -16.5 40.5t-42.5 15.5q-34 0 -56 -21.5t-22 -53.5z" />
    <glyph glyph-name="nine.denominator" unicode="&#xe059;" horiz-adv-x="342" 
d="M130 0h-91q122 79 174 166q-34 -19 -72 -19q-47 0 -78 32t-31 80q0 65 45 109.5t111 44.5q54 0 89 -35.5t35 -91.5q0 -74 -47.5 -148.5t-134.5 -137.5zM238 232q10 28 10 51q0 34 -18 55t-48 21q-35 0 -61 -27.5t-26 -65.5q0 -29 18.5 -48t47.5 -19q41 0 77 33z" />
    <glyph glyph-name="plus.denominator" unicode="&#xe05a;" horiz-adv-x="344" 
d="M16 175v56h120v120h56v-120h120v-56h-120v-120h-56v120h-120z" />
    <glyph glyph-name="minus.denominator" unicode="&#xe05b;" horiz-adv-x="344" 
d="M16 175v56h296v-56h-296z" />
    <glyph glyph-name="equal.denominator" unicode="&#xe05c;" horiz-adv-x="344" 
d="M16 115v55h296v-55h-296zM16 236v55h296v-55h-296z" />
    <glyph glyph-name="parenleft.denominator" unicode="&#xe05d;" horiz-adv-x="206" 
d="M30 150q0 185 138 312h74q-149 -126 -149 -307q0 -113 48 -211h-61q-50 98 -50 206z" />
    <glyph glyph-name="parenright.denominator" unicode="&#xe05e;" horiz-adv-x="206" 
d="M156 257q0 -184 -138 -313h-75q149 126 149 308q0 112 -48 210h62q50 -102 50 -205z" />
    <glyph glyph-name="period.superior" unicode="&#xe060;" horiz-adv-x="160" 
d="M75 436q0 18 12.5 31t31.5 13q16 0 26 -10t10 -26q0 -19 -12.5 -31.5t-31.5 -12.5q-17 0 -26.5 10t-9.5 26z" />
    <glyph glyph-name="comma.superior" unicode="&#xe061;" horiz-adv-x="160" 
d="M17 332l75 136h64l-82 -136h-57z" />
    <glyph glyph-name="period.inferior" unicode="&#xe062;" horiz-adv-x="160" 
d="M-25 -96q0 18 12.5 31t31.5 13q16 0 26 -10t10 -26q0 -19 -12.5 -31.5t-31.5 -12.5q-17 0 -26.5 10t-9.5 26z" />
    <glyph glyph-name="comma.inferior" unicode="&#xe063;" horiz-adv-x="160" 
d="M-83 -200l75 136h64l-82 -136h-57z" />
    <glyph glyph-name="period.numerator" unicode="&#xe064;" horiz-adv-x="160" 
d="M52 311q0 18 12.5 31t31.5 13q16 0 26 -10t10 -26q0 -19 -12.5 -31.5t-31.5 -12.5q-16 0 -26 9.5t-10 26.5z" />
    <glyph glyph-name="comma.numerator" unicode="&#xe065;" horiz-adv-x="160" 
d="M-6 207l75 136h64l-82 -136h-57z" />
    <glyph glyph-name="period.denominator" unicode="&#xe066;" horiz-adv-x="160" 
d="M-1 29q0 18 12.5 31t31.5 13q16 0 26 -10t10 -26q0 -19 -12.5 -31.5t-31.5 -12.5q-17 0 -26.5 9.5t-9.5 26.5z" />
    <glyph glyph-name="comma.denominator" unicode="&#xe067;" horiz-adv-x="160" 
d="M-59 -75l75 136h64l-82 -136h-57z" />
    <glyph glyph-name="onehalf.nut" unicode="&#xe080;" 
d="M304 438l63 334l-111 -49l11 61l135 60h44l-76 -406h-66zM55 318l10 53h477l-9 -53h-478zM71 -156l9 44q226 158 226 250q0 29 -17 46t-46 17q-50 0 -102 -37l11 65q52 28 109 28q50 0 81 -29.5t31 -77.5q0 -102 -200 -252h161l-10 -54h-253z" />
    <glyph glyph-name="onethird.nut" unicode="&#xe081;" 
d="M305 438l63 334l-111 -49l11 61l135 60h44l-76 -406h-66zM55 318l10 53h477l-9 -53h-478zM182 25l10 51h21q40 0 66.5 21t26.5 52q0 24 -18 39t-46 15q-45 0 -94 -26l11 60q48 20 96 20q50 0 82.5 -27.5t32.5 -70.5q0 -38 -24 -68t-64 -42q29 -10 46 -33t17 -54
q0 -54 -43 -89.5t-109 -35.5q-60 0 -112 32l10 58q48 -36 100 -36q38 0 63 20.5t25 52.5q0 27 -21.5 44t-56.5 17h-19z" />
    <glyph glyph-name="twothirds.nut" unicode="&#xe082;" 
d="M183 438l9 44q226 158 226 250q0 29 -17 46t-46 17q-50 0 -102 -37l11 65q52 28 109 28q50 0 81 -29.5t31 -77.5q0 -102 -200 -252h161l-10 -54h-253zM55 318l10 53h477l-9 -53h-478zM182 25l10 51h21q40 0 66.5 21t26.5 52q0 24 -18 39t-46 15q-45 0 -94 -26l11 60
q48 20 96 20q50 0 82.5 -27.5t32.5 -70.5q0 -38 -24 -68t-64 -42q29 -10 46 -33t17 -54q0 -54 -43 -89.5t-109 -35.5q-60 0 -112 32l10 58q48 -36 100 -36q38 0 63 20.5t25 52.5q0 27 -21.5 44t-56.5 17h-19z" />
    <glyph glyph-name="onequarter.nut" unicode="&#xe083;" 
d="M305 438l63 334l-111 -49l11 61l135 60h44l-76 -406h-66zM55 318l10 53h477l-9 -53h-478zM232 -156l20 106h-180l9 46l233 254h56l-47 -250h61l-9 -50h-62l-20 -106h-61zM145 0h116l29 156z" />
    <glyph glyph-name="quarter.nut" unicode="&#xe084;" 
d="M294 619l10 51h21q40 0 66.5 21t26.5 52q0 24 -18 39t-46 15q-45 0 -94 -26l11 60q48 20 96 20q50 0 82.5 -27.5t32.5 -70.5q0 -38 -24 -68t-64 -42q29 -10 46 -33t17 -54q0 -54 -43 -89.5t-109 -35.5q-60 0 -112 32l10 58q48 -36 100 -36q38 0 63 20.5t25 52.5
q0 27 -21.5 44t-56.5 17h-19zM55 318l10 53h477l-9 -53h-478zM232 -156l20 106h-180l9 46l233 254h56l-47 -250h61l-9 -50h-62l-20 -106h-61zM145 0h116l29 156z" />
    <glyph glyph-name="onefifth.nut" unicode="&#xe085;" 
d="M305 438l63 334l-111 -49l11 61l135 60h44l-76 -406h-66zM55 318l10 53h477l-9 -53h-478zM382 250l-10 -54h-153l-20 -103q26 2 35 2q52 0 86 -31.5t34 -79.5q0 -65 -46 -106t-119 -41q-50 0 -101 28l11 59q47 -33 90 -33q42 0 70 24t28 62q0 31 -22.5 50t-58.5 19
q-35 0 -74 -9l39 213h211z" />
    <glyph glyph-name="twofifths.nut" unicode="&#xe086;" 
d="M183 438l9 44q226 158 226 250q0 29 -17 46t-46 17q-50 0 -102 -37l11 65q52 28 109 28q50 0 81 -29.5t31 -77.5q0 -102 -200 -252h161l-10 -54h-253zM55 318l10 53h477l-9 -53h-478zM382 250l-10 -54h-153l-20 -103q26 2 35 2q52 0 86 -31.5t34 -79.5q0 -65 -46 -106
t-119 -41q-50 0 -101 28l11 59q47 -33 90 -33q42 0 70 24t28 62q0 31 -22.5 50t-58.5 19q-35 0 -74 -9l39 213h211z" />
    <glyph glyph-name="threefifths.nut" unicode="&#xe087;" 
d="M292 619l10 51h21q40 0 66.5 21t26.5 52q0 24 -18 39t-46 15q-45 0 -94 -26l11 60q48 20 96 20q50 0 82.5 -27.5t32.5 -70.5q0 -38 -24 -68t-64 -42q29 -10 46 -33t17 -54q0 -54 -43 -89.5t-109 -35.5q-60 0 -112 32l10 58q48 -36 100 -36q38 0 63 20.5t25 52.5
q0 27 -21.5 44t-56.5 17h-19zM55 318l10 53h477l-9 -53h-478zM382 250l-10 -54h-153l-20 -103q26 2 35 2q52 0 86 -31.5t34 -79.5q0 -65 -46 -106t-119 -41q-50 0 -101 28l11 59q47 -33 90 -33q42 0 70 24t28 62q0 31 -22.5 50t-58.5 19q-35 0 -74 -9l39 213h211z" />
    <glyph glyph-name="fourfifths.nut" unicode="&#xe088;" 
d="M344 438l20 106h-180l9 46l233 254h56l-47 -250h61l-9 -50h-62l-20 -106h-61zM257 594h116l29 156zM55 318l10 53h477l-9 -53h-478zM382 250l-10 -54h-153l-20 -103q26 2 35 2q52 0 86 -31.5t34 -79.5q0 -65 -46 -106t-119 -41q-50 0 -101 28l11 59q47 -33 90 -33
q42 0 70 24t28 62q0 31 -22.5 50t-58.5 19q-35 0 -74 -9l39 213h211z" />
    <glyph glyph-name="onesixth.nut" unicode="&#xe089;" 
d="M305 438l63 334l-111 -49l11 61l135 60h44l-76 -406h-66zM55 318l10 53h477l-9 -53h-478zM275 250h90q-123 -81 -173 -166q32 19 71 19q47 0 78.5 -32t31.5 -80q0 -65 -45.5 -109.5t-111.5 -44.5q-54 0 -88.5 35t-34.5 92q0 74 47.5 148.5t134.5 137.5zM166 18
q-10 -28 -10 -51q0 -34 18.5 -55t48.5 -21q35 0 60.5 27.5t25.5 65.5q0 29 -18 48t-47 19q-40 0 -78 -33z" />
    <glyph glyph-name="fivesixths.nut" unicode="&#xe08a;" 
d="M494 844l-10 -54h-153l-20 -103q26 2 35 2q52 0 86 -31.5t34 -79.5q0 -65 -46 -106t-119 -41q-50 0 -101 28l11 59q47 -33 90 -33q42 0 70 24t28 62q0 31 -22.5 50t-58.5 19q-35 0 -74 -9l39 213h211zM55 318l10 53h477l-9 -53h-478zM275 250h90q-123 -81 -173 -166
q32 19 71 19q47 0 78.5 -32t31.5 -80q0 -65 -45.5 -109.5t-111.5 -44.5q-54 0 -88.5 35t-34.5 92q0 74 47.5 148.5t134.5 137.5zM166 18q-10 -28 -10 -51q0 -34 18.5 -55t48.5 -21q35 0 60.5 27.5t25.5 65.5q0 29 -18 48t-47 19q-40 0 -78 -33z" />
    <glyph glyph-name="oneeighth.nut" unicode="&#xe08b;" 
d="M305 438l63 334l-111 -49l11 61l135 60h44l-76 -406h-66zM55 318l10 53h477l-9 -53h-478zM130 132q0 53 42 89t104 36q50 0 82.5 -28t32.5 -71q0 -37 -21.5 -65.5t-60.5 -42.5q56 -24 56 -84q0 -56 -44.5 -92.5t-111.5 -36.5q-52 0 -87.5 29t-35.5 72q0 41 25 72t68 43
q-49 24 -49 79zM150 -54q0 -25 18 -41.5t46 -16.5q38 0 62.5 22t24.5 57q0 25 -18 41.5t-46 16.5q-38 0 -62.5 -22t-24.5 -57zM192 131q0 -25 16.5 -40.5t42.5 -15.5q33 0 55.5 21.5t22.5 53.5q0 25 -16.5 40.5t-42.5 15.5q-34 0 -56 -21.5t-22 -53.5z" />
    <glyph glyph-name="threeeighths.nut" unicode="&#xe08c;" 
d="M292 619l10 51h21q40 0 66.5 21t26.5 52q0 24 -18 39t-46 15q-45 0 -94 -26l11 60q48 20 96 20q50 0 82.5 -27.5t32.5 -70.5q0 -38 -24 -68t-64 -42q29 -10 46 -33t17 -54q0 -54 -43 -89.5t-109 -35.5q-60 0 -112 32l10 58q48 -36 100 -36q38 0 63 20.5t25 52.5
q0 27 -21.5 44t-56.5 17h-19zM55 318l10 53h477l-9 -53h-478zM130 132q0 53 42 89t104 36q50 0 82.5 -28t32.5 -71q0 -37 -21.5 -65.5t-60.5 -42.5q56 -24 56 -84q0 -56 -44.5 -92.5t-111.5 -36.5q-52 0 -87.5 29t-35.5 72q0 41 25 72t68 43q-49 24 -49 79zM150 -54
q0 -25 18 -41.5t46 -16.5q38 0 62.5 22t24.5 57q0 25 -18 41.5t-46 16.5q-38 0 -62.5 -22t-24.5 -57zM192 131q0 -25 16.5 -40.5t42.5 -15.5q33 0 55.5 21.5t22.5 53.5q0 25 -16.5 40.5t-42.5 15.5q-34 0 -56 -21.5t-22 -53.5z" />
    <glyph glyph-name="fiveeighths.nut" unicode="&#xe08d;" 
d="M494 844l-10 -54h-153l-20 -103q26 2 35 2q52 0 86 -31.5t34 -79.5q0 -65 -46 -106t-119 -41q-50 0 -101 28l11 59q47 -33 90 -33q42 0 70 24t28 62q0 31 -22.5 50t-58.5 19q-35 0 -74 -9l39 213h211zM55 318l10 53h477l-9 -53h-478zM130 132q0 53 42 89t104 36
q50 0 82.5 -28t32.5 -71q0 -37 -21.5 -65.5t-60.5 -42.5q56 -24 56 -84q0 -56 -44.5 -92.5t-111.5 -36.5q-52 0 -87.5 29t-35.5 72q0 41 25 72t68 43q-49 24 -49 79zM150 -54q0 -25 18 -41.5t46 -16.5q38 0 62.5 22t24.5 57q0 25 -18 41.5t-46 16.5q-38 0 -62.5 -22
t-24.5 -57zM192 131q0 -25 16.5 -40.5t42.5 -15.5q33 0 55.5 21.5t22.5 53.5q0 25 -16.5 40.5t-42.5 15.5q-34 0 -56 -21.5t-22 -53.5z" />
    <glyph glyph-name="seveneighths.nut" unicode="&#xe08e;" 
d="M217 438l214 352h-184l10 54h260l-9 -41l-220 -365h-71zM55 318l10 53h477l-9 -53h-478zM130 132q0 53 42 89t104 36q50 0 82.5 -28t32.5 -71q0 -37 -21.5 -65.5t-60.5 -42.5q56 -24 56 -84q0 -56 -44.5 -92.5t-111.5 -36.5q-52 0 -87.5 29t-35.5 72q0 41 25 72t68 43
q-49 24 -49 79zM150 -54q0 -25 18 -41.5t46 -16.5q38 0 62.5 22t24.5 57q0 25 -18 41.5t-46 16.5q-38 0 -62.5 -22t-24.5 -57zM192 131q0 -25 16.5 -40.5t42.5 -15.5q33 0 55.5 21.5t22.5 53.5q0 25 -16.5 40.5t-42.5 15.5q-34 0 -56 -21.5t-22 -53.5z" />
    <glyph glyph-name="fractionone.nut" unicode="&#xe08f;" 
d="M305 438l63 334l-111 -49l11 61l135 60h44l-76 -406h-66zM55 318l10 53h477l-9 -53h-478z" />
    <glyph glyph-name="A.superior" unicode="&#xe100;" horiz-adv-x="386" 
d="M20 282l231 406h53l79 -406h-61l-18 105h-158l-58 -105h-68zM266 604l-94 -168h124z" />
    <glyph glyph-name="B.superior" unicode="&#xe101;" horiz-adv-x="370" 
d="M164 463l-25 -130h73q38 0 62 21t24 55q0 25 -17 39.5t-47 14.5h-70zM66 282l77 406h131q49 0 78.5 -25.5t29.5 -67.5q0 -36 -20.5 -65t-54.5 -42q26 -9 41 -30.5t15 -49.5q0 -54 -43.5 -90t-108.5 -36h-145zM197 637l-24 -124h65q35 0 57.5 21t22.5 52q0 23 -16 37
t-44 14h-61z" />
    <glyph glyph-name="C.superior" unicode="&#xe102;" horiz-adv-x="373" 
d="M74 439q0 112 63.5 184t161.5 72q60 0 116 -35l-10 -57q-50 37 -102 37q-71 0 -116.5 -54t-45.5 -139q0 -53 31 -85.5t80 -32.5q53 0 107 32l-11 -61q-51 -25 -111 -25q-72 0 -117.5 46t-45.5 118z" />
    <glyph glyph-name="D.superior" unicode="&#xe103;" horiz-adv-x="423" 
d="M66 282l77 406h125q75 0 122 -43.5t47 -112.5q0 -115 -62.5 -182.5t-168.5 -67.5h-140zM198 635l-55 -300h67q71 0 115.5 52.5t44.5 137.5q0 51 -30.5 80.5t-83.5 29.5h-58z" />
    <glyph glyph-name="E.superior" unicode="&#xe104;" horiz-adv-x="337" 
d="M66 282l77 406h236l-10 -53h-171l-23 -121h148l-9 -51h-149l-22 -128h175l-10 -53h-242z" />
    <glyph glyph-name="F.superior" unicode="&#xe105;" horiz-adv-x="324" 
d="M66 282l77 406h236l-10 -53h-171l-24 -132h147l-10 -53h-147l-32 -168h-66z" />
    <glyph glyph-name="G.superior" unicode="&#xe106;" horiz-adv-x="412" 
d="M413 497l-36 -194q-68 -28 -135 -28q-74 0 -121 46t-47 118q0 112 64.5 184t165.5 72q65 0 123 -39l-10 -58q-55 42 -111 42q-72 0 -119 -54.5t-47 -138.5q0 -52 30.5 -85t80.5 -33q37 0 71 15l20 103h-87l9 50h149z" />
    <glyph glyph-name="H.superior" unicode="&#xe107;" horiz-adv-x="441" 
d="M66 282l77 406h66l-33 -173h188l33 173h65l-77 -406h-65l34 180h-189l-33 -180h-66z" />
    <glyph glyph-name="I.superior" unicode="&#xe108;" horiz-adv-x="188" 
d="M66 282l77 406h66l-77 -406h-66z" />
    <glyph glyph-name="J.superior" unicode="&#xe109;" horiz-adv-x="289" 
d="M312 688l-57 -307q-9 -49 -43 -77.5t-85 -28.5q-43 0 -90 24l10 55q37 -25 72 -25q28 0 48 17t25 45l55 297h65z" />
    <glyph glyph-name="K.superior" unicode="&#xe10a;" horiz-adv-x="379" 
d="M66 282l77 406h64l-32 -173l186 173h85l-221 -203l151 -203h-76l-135 184l-34 -184h-65z" />
    <glyph glyph-name="L.superior" unicode="&#xe10b;" horiz-adv-x="308" 
d="M66 282l77 406h66l-66 -352h163l-10 -54h-230z" />
    <glyph glyph-name="M.superior" unicode="&#xe10c;" horiz-adv-x="495" 
d="M66 282l77 406h54l92 -189l164 189h62l-76 -406h-62l57 300l-135 -157h-38l-76 158l-57 -301h-62z" />
    <glyph glyph-name="N.superior" unicode="&#xe10d;" horiz-adv-x="441" 
d="M66 282l77 406h54l147 -301l56 301h62l-77 -406h-53l-147 301l-57 -301h-62z" />
    <glyph glyph-name="O.superior" unicode="&#xe10e;" horiz-adv-x="441" 
d="M74 438q0 112 62.5 184.5t159.5 72.5q72 0 115.5 -44.5t43.5 -118.5q0 -112 -62.5 -184.5t-159.5 -72.5q-71 0 -115 45t-44 118zM141 444q0 -53 26.5 -84t72.5 -31q62 0 105 57t43 139q0 53 -26.5 84t-71.5 31q-62 0 -105.5 -57t-43.5 -139z" />
    <glyph glyph-name="P.superior" unicode="&#xe10f;" horiz-adv-x="361" 
d="M66 282l77 406h125q56 0 89.5 -29.5t33.5 -79.5q0 -62 -48 -105t-119 -43h-65l-28 -149h-65zM198 636l-29 -153h56q44 0 72 25t28 64q0 30 -19.5 47t-54.5 17h-53z" />
    <glyph glyph-name="Q.superior" unicode="&#xe110;" horiz-adv-x="441" 
d="M141 444q0 -53 26.5 -84t72.5 -31q62 0 105 57t43 139q0 53 -26.5 84t-71.5 31q-62 0 -105.5 -57t-43.5 -139zM74 438q0 112 62.5 184.5t159.5 72.5q72 0 115.5 -44.5t43.5 -118.5q0 -75 -29.5 -134t-79.5 -91l62 -86h-71l-45 62q-29 -8 -59 -8q-71 0 -115 45t-44 118z
" />
    <glyph glyph-name="R.superior" unicode="&#xe111;" horiz-adv-x="368" 
d="M277 282l-63 154h-54l-29 -154h-65l77 406h122q55 0 88 -28.5t33 -77.5t-30.5 -86.5t-78.5 -50.5l69 -163h-69zM198 636l-28 -149h53q43 0 70 25t27 63q0 29 -19 45t-53 16h-50z" />
    <glyph glyph-name="S.superior" unicode="&#xe112;" horiz-adv-x="331" 
d="M54 309l11 58q58 -40 110 -40q36 0 59 18.5t23 47.5q0 22 -16.5 38t-39.5 27.5t-46 25t-39.5 37t-16.5 55.5q0 52 40 85.5t104 33.5q54 0 112 -31l-11 -56q-52 34 -101 34q-36 0 -57.5 -17t-21.5 -45q0 -21 16 -36.5t39 -27t46.5 -24.5t39.5 -37.5t16 -57.5
q0 -54 -40.5 -88t-105.5 -34q-58 0 -121 34z" />
    <glyph glyph-name="T.superior" unicode="&#xe113;" horiz-adv-x="354" 
d="M149 282l67 353h-124l10 53h313l-10 -53h-124l-66 -353h-66z" />
    <glyph glyph-name="U.superior" unicode="&#xe114;" horiz-adv-x="441" 
d="M465 688l-51 -268q-13 -67 -61.5 -106t-119.5 -39q-62 0 -102 35.5t-40 91.5q0 20 4 39l46 247h65l-46 -247q-3 -15 -3 -30q0 -36 22.5 -59t60.5 -23q42 0 72 27t38 71l49 261h66z" />
    <glyph glyph-name="V.superior" unicode="&#xe115;" horiz-adv-x="386" 
d="M454 688l-231 -406h-53l-80 406h63l56 -317l175 317h70z" />
    <glyph glyph-name="W.superior" unicode="&#xe116;" horiz-adv-x="608" 
d="M673 688l-211 -406h-58l-37 323l-159 -323h-58l-57 406h62l37 -323l159 323h58l37 -323l159 323h68z" />
    <glyph glyph-name="X.superior" unicode="&#xe117;" horiz-adv-x="391" 
d="M18 282l181 209l-98 197h69l74 -153l123 153h78l-171 -203l101 -203h-70l-76 159l-132 -159h-79z" />
    <glyph glyph-name="Y.superior" unicode="&#xe118;" horiz-adv-x="363" 
d="M151 282l33 174l-97 232h69l69 -176l132 176h78l-187 -238l-32 -168h-65z" />
    <glyph glyph-name="Z.superior" unicode="&#xe119;" horiz-adv-x="375" 
d="M36 282l8 45l280 308h-211l10 53h295l-10 -45l-280 -308h226l-10 -53h-308z" />
    <glyph glyph-name="ordfeminine.cap" unicode="&#xe11a;" horiz-adv-x="417" 
d="M10 163l10 49h363l-9 -49h-364zM35 282l231 406h53l80 -406h-61l-19 105h-158l-58 -105h-68zM282 604l-94 -168h124z" />
    <glyph glyph-name="ordmasculine.cap" unicode="&#xe11b;" horiz-adv-x="441" 
d="M26 163l10 49h356l-10 -49h-356zM74 438q0 112 62.5 184.5t159.5 72.5q72 0 115.5 -44.5t43.5 -118.5q0 -112 -62.5 -184.5t-159.5 -72.5q-71 0 -115 45t-44 118zM141 444q0 -53 26.5 -84t72.5 -31q62 0 105 57t43 139q0 53 -26.5 84t-71.5 31q-62 0 -105.5 -57
t-43.5 -139z" />
    <glyph glyph-name="registered.superior" unicode="&#xe11c;" horiz-adv-x="500" 
d="M79 485q0 95 60.5 155t154.5 60t154.5 -60t60.5 -155t-60.5 -155t-154.5 -60t-154.5 60t-60.5 155zM116 485q0 -78 50 -128t128 -50t128 50t50 128t-50 128t-128 50t-128 -50t-50 -128zM263 568v-80h32q19 0 31.5 11.5t12.5 29.5q0 17 -12.5 28t-31.5 11h-32zM221 368
v234h80q36 0 58 -20.5t22 -52.5q0 -50 -48 -68l56 -93h-45l-52 87h-29v-87h-42z" />
    <glyph glyph-name="a.superior" unicode="&#xe120;" horiz-adv-x="362" 
d="M374 594l-59 -312h-61l5 23q-40 -31 -83 -31q-50 0 -81 35t-31 91q0 87 45 144.5t115 57.5q44 0 82 -32l5 24h63zM128 408q0 -38 18 -59.5t50 -21.5q35 0 71 36l29 157q-31 28 -65 28q-44 0 -73.5 -39.5t-29.5 -100.5z" />
    <glyph glyph-name="b.superior" unicode="&#xe121;" horiz-adv-x="362" 
d="M59 282l84 449h63l-31 -160q40 31 82 31q50 0 81 -35t31 -91q0 -87 -45.5 -144.5t-115.5 -57.5q-42 0 -82 31l-4 -23h-63zM305 468q0 37 -18 58.5t-50 21.5q-35 0 -72 -35l-29 -157q34 -29 65 -29q44 0 74 40t30 101z" />
    <glyph glyph-name="c.superior" unicode="&#xe122;" horiz-adv-x="307" 
d="M64 403q0 86 50 142.5t128 56.5q45 0 93 -27l-10 -55q-39 29 -79 29q-51 0 -84.5 -39t-33.5 -99q0 -37 22.5 -60.5t58.5 -23.5q41 0 83 24l-9 -57q-45 -20 -89 -20q-58 0 -94 36t-36 93z" />
    <glyph glyph-name="d.superior" unicode="&#xe123;" horiz-adv-x="362" 
d="M400 731l-85 -449h-61l5 23q-40 -31 -83 -31q-50 0 -81 35t-31 91q0 87 45 144.5t115 57.5q44 0 82 -32l31 161h63zM128 408q0 -38 18 -59.5t50 -21.5q35 0 71 36l29 157q-31 28 -65 28q-44 0 -73.5 -39.5t-29.5 -100.5z" />
    <glyph glyph-name="e.superior" unicode="&#xe124;" horiz-adv-x="331" 
d="M64 403q0 88 47 143.5t122 55.5q49 0 79.5 -33t30.5 -84q0 -34 -8 -63h-209q-1 -5 -1 -16q0 -38 23 -60.5t61 -22.5q44 0 95 30l-11 -57q-50 -22 -99 -22q-57 0 -93.5 36.5t-36.5 92.5zM133 464h149q2 9 2 23q0 29 -16 47.5t-41 18.5q-34 0 -59 -24t-35 -65z" />
    <glyph glyph-name="f.superior" unicode="&#xe125;" horiz-adv-x="243" 
d="M64 194l66 349h-57l10 51h57l10 58q8 41 35.5 64t67.5 23q37 0 72 -19l-10 -50q-27 16 -51 16q-20 0 -34.5 -12t-18.5 -32l-8 -48h86l-9 -51h-87l-66 -349h-63z" />
    <glyph glyph-name="g.superior" unicode="&#xe126;" horiz-adv-x="362" 
d="M374 594l-61 -323q-12 -62 -54.5 -98t-103.5 -36q-56 0 -111 29l10 54q52 -32 101 -32q36 0 61.5 22.5t33.5 60.5l7 33q-41 -30 -81 -30q-50 0 -81 35t-31 91q0 87 45 144.5t115 57.5q44 0 82 -32l5 24h63zM128 408q0 -38 18 -59.5t50 -21.5q35 0 71 36l29 157
q-31 28 -65 28q-44 0 -73.5 -39.5t-29.5 -100.5z" />
    <glyph glyph-name="h.superior" unicode="&#xe127;" horiz-adv-x="362" 
d="M59 282l84 449h63l-31 -165q45 36 92 36q39 0 65 -25.5t26 -63.5q0 -18 -4 -34l-37 -197h-63l36 193q3 11 3 22q0 23 -14 36.5t-37 13.5q-39 0 -78 -39l-42 -226h-63z" />
    <glyph glyph-name="i.superior" unicode="&#xe128;" horiz-adv-x="169" 
d="M59 282l59 312h62l-58 -312h-63zM127 679q0 17 12.5 29t29.5 12q14 0 23.5 -9.5t9.5 -23.5q0 -18 -12 -30t-30 -12q-14 0 -23.5 9.5t-9.5 24.5z" />
    <glyph glyph-name="j.superior" unicode="&#xe129;" horiz-adv-x="169" 
d="M180 594l-69 -370q-8 -41 -35 -64t-68 -23q-35 0 -71 18l9 51q29 -16 52 -16q20 0 34 12t18 32l68 360h62zM127 679q0 17 12.5 29t29.5 12q14 0 23.5 -9.5t9.5 -23.5q0 -18 -12 -30t-30 -12q-14 0 -23.5 9.5t-9.5 24.5z" />
    <glyph glyph-name="k.superior" unicode="&#xe12a;" horiz-adv-x="317" 
d="M59 282l84 449h62l-49 -263l131 126h78l-164 -156l110 -156h-71l-94 135l-25 -135h-62z" />
    <glyph glyph-name="l.superior" unicode="&#xe12b;" horiz-adv-x="169" 
d="M59 282l84 449h63l-84 -449h-63z" />
    <glyph glyph-name="m.superior" unicode="&#xe12c;" horiz-adv-x="541" 
d="M59 282l59 312h60l-5 -27q46 35 90 35q26 0 47.5 -13t32.5 -35q53 48 107 48q37 0 62 -25t25 -62q0 -16 -3 -31l-38 -202h-63l37 197q3 11 3 21q0 20 -13.5 33.5t-34.5 13.5q-35 0 -73 -36l-43 -229h-63l37 197q2 7 2 21q0 21 -13 34t-34 13q-35 0 -73 -36l-43 -229h-63z
" />
    <glyph glyph-name="n.superior" unicode="&#xe12d;" horiz-adv-x="362" 
d="M59 282l59 312h60l-5 -30q47 38 94 38q39 0 65 -25.5t26 -63.5q0 -19 -4 -34l-37 -197h-63l36 193q3 11 3 22q0 23 -14 36.5t-37 13.5q-37 0 -78 -39l-42 -226h-63z" />
    <glyph glyph-name="o.superior" unicode="&#xe12e;" horiz-adv-x="362" 
d="M64 403q0 87 49.5 143t127.5 56q57 0 92.5 -36t35.5 -93q0 -86 -50 -142.5t-127 -56.5q-57 0 -92.5 36t-35.5 93zM128 409q0 -37 19.5 -59.5t51.5 -22.5q44 0 74.5 40.5t30.5 99.5q0 37 -19 59.5t-51 22.5q-44 0 -75 -40.5t-31 -99.5z" />
    <glyph glyph-name="p.superior" unicode="&#xe12f;" horiz-adv-x="362" 
d="M33 145l85 449h60l-4 -24q40 32 83 32q50 0 81 -35t31 -91q0 -87 -45.5 -144.5t-115.5 -57.5q-42 0 -82 31l-30 -160h-63zM305 468q0 37 -18 58.5t-50 21.5q-35 0 -72 -35l-29 -157q34 -29 65 -29q44 0 74 40t30 101z" />
    <glyph glyph-name="q.superior" unicode="&#xe130;" horiz-adv-x="362" 
d="M374 594l-85 -449h-63l31 159q-41 -30 -81 -30q-50 0 -81 35t-31 91q0 87 45 144.5t115 57.5q44 0 82 -32l5 24h63zM128 408q0 -38 18 -59.5t50 -21.5q35 0 71 36l29 157q-31 28 -65 28q-44 0 -73.5 -39.5t-29.5 -100.5z" />
    <glyph glyph-name="r.superior" unicode="&#xe131;" horiz-adv-x="250" 
d="M59 282l59 312h60l-5 -32q42 40 85 40q19 0 33 -8l-10 -56q-18 8 -32 8q-44 0 -86 -45l-41 -219h-63z" />
    <glyph glyph-name="s.superior" unicode="&#xe132;" horiz-adv-x="275" 
d="M48 301l12 55q43 -31 86 -31q25 0 40.5 12t15.5 32q0 18 -18.5 32.5t-41 23.5t-41 30t-18.5 51q0 43 32 69.5t84 26.5q45 0 91 -24l-11 -53q-43 26 -80 26q-24 0 -38.5 -11t-14.5 -30q0 -18 18.5 -31.5t41 -22.5t41 -31t18.5 -53q0 -44 -33 -71t-86 -27q-48 0 -98 27z
" />
    <glyph glyph-name="t.superior" unicode="&#xe133;" horiz-adv-x="268" 
d="M219 682l-16 -88h99l-10 -51h-99l-30 -160q-2 -14 -2 -20q0 -16 11 -26t30 -10q24 0 52 14l-9 -56q-33 -11 -61 -11q-40 0 -64 21.5t-24 57.5q0 11 3 23l31 167h-57l10 51h57l16 88h63z" />
    <glyph glyph-name="u.superior" unicode="&#xe134;" horiz-adv-x="362" 
d="M374 594l-59 -312h-61l6 30q-46 -38 -95 -38q-39 0 -64.5 25.5t-25.5 63.5q0 19 4 34l36 197h63l-36 -194q-3 -18 -3 -21q0 -23 14 -36.5t37 -13.5q39 0 78 39l43 226h63z" />
    <glyph glyph-name="v.superior" unicode="&#xe135;" horiz-adv-x="318" 
d="M368 594l-178 -312h-52l-61 312h61l38 -228l124 228h68z" />
    <glyph glyph-name="w.superior" unicode="&#xe136;" horiz-adv-x="489" 
d="M536 594l-162 -312h-56l-26 235l-113 -235h-55l-44 312h58l26 -235l113 235h56l25 -235l113 235h65z" />
    <glyph glyph-name="x.superior" unicode="&#xe137;" horiz-adv-x="323" 
d="M21 282l138 160l-74 152h65l53 -109l87 109h73l-132 -156l77 -156h-67l-53 114l-93 -114h-74z" />
    <glyph glyph-name="y.superior" unicode="&#xe138;" horiz-adv-x="318" 
d="M368 594l-256 -449h-65l89 148l-59 301h61l38 -228l124 228h68z" />
    <glyph glyph-name="z.superior" unicode="&#xe139;" horiz-adv-x="309" 
d="M37 282l8 42l200 219h-151l10 51h231l-9 -42l-200 -220h163l-10 -50h-242z" />
    <glyph glyph-name="a_superior.alt" unicode="&#xe13a;" horiz-adv-x="331" 
d="M227 282l5 27q-41 -35 -91 -35q-40 0 -64.5 22.5t-24.5 59.5q0 51 45 84.5t114 33.5q25 0 50 -3l3 16q0 3 0.5 8t0.5 8q0 22 -15.5 36t-40.5 14q-43 0 -100 -26l11 53q51 22 101 22q46 0 76 -25t30 -63q0 -16 -3 -33l-38 -199h-59zM115 367q0 -20 13 -32t35 -12
q39 0 77 36l13 72q-21 3 -42 3q-42 0 -69 -19t-27 -48z" />
    <glyph glyph-name="l_superior.alt" unicode="&#xe13b;" horiz-adv-x="206" 
d="M206 731l-67 -358q-2 -12 -2 -16q0 -30 33 -30q19 0 40 9l-9 -54q-27 -8 -50 -8q-35 0 -56.5 19.5t-21.5 50.5q0 6 2 22l68 365h63z" />
    <glyph glyph-name="y_superior.alt" unicode="&#xe13c;" horiz-adv-x="362" 
d="M374 594l-61 -323q-12 -62 -54.5 -98t-103.5 -36q-56 0 -111 29l10 54q52 -32 101 -32q36 0 62 23t33 60l7 39q-45 -36 -92 -36q-39 0 -64.5 25.5t-25.5 63.5q0 19 4 34l36 197h63l-36 -194q-3 -18 -3 -21q0 -22 14 -36t37 -14q41 0 78 39l43 226h63z" />
    <glyph glyph-name="ordfeminine.alt" unicode="&#xe13d;" horiz-adv-x="331" 
d="M43 257l10 49h246l-10 -49h-246zM245 375l5 28q-43 -35 -91 -35q-40 0 -64.5 22.5t-24.5 59.5q0 51 44.5 84.5t113.5 33.5q26 0 50 -3l3 16q2 10 2 16q0 22 -16 35.5t-41 13.5q-45 0 -99 -26l11 54q51 22 101 22q46 0 75.5 -25t29.5 -63q0 -16 -3 -33l-37 -200h-59z
M132 461q0 -20 13 -32t36 -12q40 0 76 36l14 72q-22 3 -43 3q-42 0 -69 -19t-27 -48z" />
    <glyph glyph-name="a.sc" unicode="&#xe200;" horiz-adv-x="507" 
d="M-24 0l302 532h65l104 -532h-75l-25 141h-209l-79 -141h-83zM296 427l-125 -225h166z" />
    <glyph glyph-name="b.sc" unicode="&#xe201;" horiz-adv-x="485" 
d="M158 240l-34 -180h100q52 0 85 29.5t33 75.5q0 35 -24 55t-65 20h-95zM37 0l100 532h167q65 0 104 -33t39 -88q0 -48 -27.5 -85.5t-73.5 -54.5q33 -11 54 -40t21 -65q0 -72 -56 -119t-142 -47h-186zM201 472l-32 -173h88q49 0 80.5 28.5t31.5 72.5q0 32 -22.5 52
t-60.5 20h-85z" />
    <glyph glyph-name="c.sc" unicode="&#xe202;" horiz-adv-x="491" 
d="M45 205q0 147 83 243t211 96q76 0 152 -45l-14 -71q-65 49 -135 49q-93 0 -154.5 -75t-61.5 -188q0 -72 40.5 -116t108.5 -44q67 0 141 43l-14 -75q-68 -34 -144 -34q-94 0 -153.5 61.5t-59.5 155.5z" />
    <glyph glyph-name="d.sc" unicode="&#xe203;" horiz-adv-x="556" 
d="M37 0l100 532h159q98 0 159.5 -57t61.5 -148q0 -149 -82.5 -238t-221.5 -89h-176zM204 468l-76 -404h93q96 0 155.5 70.5t59.5 185.5q0 68 -41.5 108t-112.5 40h-78z" />
    <glyph glyph-name="e.sc" unicode="&#xe204;" horiz-adv-x="446" 
d="M37 0l100 532h305l-11 -63h-228l-32 -169h198l-12 -61h-197l-33 -176h233l-12 -63h-311z" />
    <glyph glyph-name="f.sc" unicode="&#xe205;" horiz-adv-x="426" 
d="M37 0l100 532h305l-11 -63h-228l-35 -182h198l-12 -63h-197l-42 -224h-78z" />
    <glyph glyph-name="g.sc" unicode="&#xe206;" horiz-adv-x="540" 
d="M485 280l-47 -254q-90 -38 -175 -38q-97 0 -157.5 61t-60.5 156q0 147 84 243t215 96q81 0 161 -52l-14 -69q-72 55 -145 55q-95 0 -158 -75.5t-63 -188.5q0 -72 41 -116.5t107 -44.5q49 0 99 22l26 144h-114l12 61h189z" />
    <glyph glyph-name="h.sc" unicode="&#xe207;" horiz-adv-x="579" 
d="M37 0l100 532h79l-44 -231h254l43 231h79l-100 -532h-79l45 238h-253l-45 -238h-79z" />
    <glyph glyph-name="i.sc" unicode="&#xe208;" horiz-adv-x="247" 
d="M37 0l100 532h79l-100 -532h-79z" />
    <glyph glyph-name="j.sc" unicode="&#xe209;" horiz-adv-x="381" 
d="M354 532l-75 -405q-12 -64 -57 -101.5t-110 -37.5q-54 0 -117 33l13 66q50 -31 97 -31q38 0 64 22t33 62l73 392h79z" />
    <glyph glyph-name="k.sc" unicode="&#xe20a;" horiz-adv-x="494" 
d="M37 0l100 532h78l-44 -231l250 231h103l-289 -264l199 -268h-93l-181 243l-45 -243h-78z" />
    <glyph glyph-name="l.sc" unicode="&#xe20b;" horiz-adv-x="405" 
d="M37 0l100 532h79l-88 -468h217l-12 -64h-296z" />
    <glyph glyph-name="m.sc" unicode="&#xe20c;" horiz-adv-x="650" 
d="M37 0l100 532h65l123 -252l219 252h75l-100 -532h-74l76 404l-183 -214h-47l-104 214l-75 -404h-75z" />
    <glyph glyph-name="n.sc" unicode="&#xe20d;" horiz-adv-x="579" 
d="M37 0l100 532h65l196 -404l76 404h74l-100 -532h-65l-196 404l-75 -404h-75z" />
    <glyph glyph-name="o.sc" unicode="&#xe20e;" horiz-adv-x="579" 
d="M45 205q0 148 81 243.5t206 95.5q94 0 151.5 -60t57.5 -157q0 -148 -81.5 -243.5t-207.5 -95.5q-93 0 -150 60t-57 157zM126 212q0 -72 36 -115t97 -43q83 0 141.5 77t58.5 189q0 72 -36 114.5t-97 42.5q-84 0 -142 -77t-58 -188z" />
    <glyph glyph-name="p.sc" unicode="&#xe20f;" horiz-adv-x="473" 
d="M37 0l100 532h160q73 0 116 -38t43 -103q0 -82 -61.5 -137t-153.5 -55h-90l-37 -199h-77zM202 470l-40 -210h80q60 0 97.5 34t37.5 87q0 41 -27.5 65t-74.5 24h-73z" />
    <glyph glyph-name="q.sc" unicode="&#xe210;" horiz-adv-x="579" 
d="M45 205q0 148 81 243.5t206 95.5q94 0 151.5 -60t57.5 -157q0 -99 -39 -178t-107 -121l81 -106h-85l-61 79q-39 -13 -78 -13q-93 0 -150 60t-57 157zM126 212q0 -72 36 -115t97 -43q83 0 141.5 77t58.5 189q0 72 -36 114.5t-97 42.5q-84 0 -142 -77t-58 -188z" />
    <glyph glyph-name="r.sc" unicode="&#xe211;" horiz-adv-x="483" 
d="M317 0l-88 205h-77l-38 -205h-77l100 532h157q71 0 114 -37.5t43 -99.5q0 -65 -41 -114.5t-107 -66.5l93 -214h-79zM202 470l-39 -204h75q59 0 96 33.5t37 85.5q0 39 -26 62t-72 23h-71z" />
    <glyph glyph-name="s.sc" unicode="&#xe212;" horiz-adv-x="434" 
d="M20 35l14 70q76 -53 144 -53q49 0 80 26t31 67q0 29 -21.5 51t-52.5 37t-62.5 32.5t-53 48t-21.5 72.5q0 68 52 113t134 45q73 0 146 -41l-13 -69q-67 45 -133 45q-47 0 -77 -25t-30 -63q0 -28 21.5 -49t52.5 -36t62 -32.5t52.5 -49t21.5 -74.5q0 -70 -53 -116t-136 -46
q-76 0 -158 47z" />
    <glyph glyph-name="t.sc" unicode="&#xe213;" horiz-adv-x="465" 
d="M147 0l88 468h-164l12 64h407l-12 -64h-164l-88 -468h-79z" />
    <glyph glyph-name="u.sc" unicode="&#xe214;" horiz-adv-x="579" 
d="M554 532l-66 -352q-16 -88 -80 -140t-156 -52q-82 0 -133.5 45t-51.5 118q0 23 5 51l61 330h79l-61 -329q-4 -19 -4 -42q0 -48 30.5 -77.5t81.5 -29.5q58 0 99 35.5t52 96.5l65 346h79z" />
    <glyph glyph-name="v.sc" unicode="&#xe215;" horiz-adv-x="507" 
d="M537 532l-302 -532h-63l-105 532h77l75 -423l234 423h84z" />
    <glyph glyph-name="w.sc" unicode="&#xe216;" horiz-adv-x="795" 
d="M822 532l-277 -532h-69l-51 429l-210 -429h-70l-74 532h76l50 -430l210 430h70l52 -430l211 430h82z" />
    <glyph glyph-name="x.sc" unicode="&#xe217;" horiz-adv-x="513" 
d="M-25 0l236 273l-129 259h85l99 -205l167 205h94l-224 -265l131 -267h-85l-101 213l-177 -213h-96z" />
    <glyph glyph-name="y.sc" unicode="&#xe218;" horiz-adv-x="476" 
d="M147 0l43 229l-126 303h84l92 -235l179 235h96l-247 -310l-42 -222h-79z" />
    <glyph glyph-name="z.sc" unicode="&#xe219;" horiz-adv-x="493" 
d="M-4 0l10 55l374 413h-282l12 64h382l-10 -55l-374 -413h301l-12 -64h-401z" />
    <glyph glyph-name="agrave.sc" unicode="&#xe21a;" horiz-adv-x="507" 
d="M-24 0l302 532h65l104 -532h-75l-25 141h-209l-79 -141h-83zM296 427l-125 -225h166zM310 602l-87 148h75l74 -148h-62z" />
    <glyph glyph-name="aacute.sc" unicode="&#xe21b;" horiz-adv-x="507" 
d="M-24 0l302 532h65l104 -532h-75l-25 141h-209l-79 -141h-83zM296 427l-125 -225h166zM273 602l130 148h86l-144 -148h-72z" />
    <glyph glyph-name="acircumflex.sc" unicode="&#xe21c;" horiz-adv-x="507" 
d="M-24 0l302 532h65l104 -532h-75l-25 141h-209l-79 -141h-83zM296 427l-125 -225h166zM185 602l131 148h67l74 -148h-61l-54 92l-88 -92h-69z" />
    <glyph glyph-name="atilde.sc" unicode="&#xe21d;" horiz-adv-x="507" 
d="M-24 0l302 532h65l104 -532h-75l-25 141h-209l-79 -141h-83zM296 427l-125 -225h166zM179 630q8 46 35.5 74.5t66.5 28.5q29 0 65 -28.5t50 -28.5q18 0 31 12.5t16 33.5h54q-8 -46 -35.5 -74.5t-66.5 -28.5q-30 0 -66 28.5t-50 28.5q-17 0 -30 -12.5t-17 -33.5h-53z" />
    <glyph glyph-name="adieresis.sc" unicode="&#xe21e;" horiz-adv-x="507" 
d="M-24 0l302 532h65l104 -532h-75l-25 141h-209l-79 -141h-83zM296 427l-125 -225h166zM187 670q0 24 15.5 39t38.5 15q19 0 31 -12t12 -31q0 -23 -15.5 -38.5t-37.5 -15.5q-19 0 -31.5 12t-12.5 31zM389 670q0 24 15.5 39t38.5 15q19 0 31 -12t12 -31q0 -23 -15.5 -38.5
t-38.5 -15.5q-19 0 -31 12t-12 31z" />
    <glyph glyph-name="aring.sc" unicode="&#xe21f;" horiz-adv-x="507" 
d="M-24 0l302 532h65l104 -532h-75l-25 141h-209l-79 -141h-83zM296 427l-125 -225h166zM241 666q0 45 30.5 75.5t75.5 30.5q38 0 62 -24t24 -62q0 -45 -30 -75.5t-75 -30.5q-38 0 -62.5 24t-24.5 62zM285 671q0 -21 13 -34.5t34 -13.5q25 0 41.5 16.5t16.5 41.5
q0 21 -13 34.5t-34 13.5q-25 0 -41.5 -16.5t-16.5 -41.5z" />
    <glyph glyph-name="ae.sc" unicode="&#xe224;" horiz-adv-x="717" 
d="M308 0l26 136h-184l-112 -136h-89l435 532h330l-12 -63h-228l-31 -169h197l-12 -61h-196l-34 -176h233l-11 -63h-312zM390 437l-194 -241h149z" />
    <glyph glyph-name="ccedilla.sc" unicode="&#xe22a;" horiz-adv-x="491" 
d="M45 205q0 147 83 243t211 96q76 0 152 -45l-14 -71q-65 49 -135 49q-93 0 -154.5 -75t-61.5 -188q0 -72 40.5 -116t108.5 -44q67 0 141 43l-14 -75q-63 -32 -130 -33l-19 -47q26 -7 42.5 -27t16.5 -46q0 -43 -35.5 -71.5t-87.5 -28.5q-41 0 -83 24l10 52q34 -24 70 -24
q27 0 43.5 13.5t16.5 34.5t-16.5 33t-43.5 12h-4l34 78q-77 14 -124 72t-47 141z" />
    <glyph glyph-name="egrave.sc" unicode="&#xe22d;" horiz-adv-x="446" 
d="M37 0l100 532h305l-11 -63h-228l-32 -169h198l-12 -61h-197l-33 -176h233l-12 -63h-311zM285 602l-87 148h75l74 -148h-62z" />
    <glyph glyph-name="eacute.sc" unicode="&#xe22e;" horiz-adv-x="446" 
d="M37 0l100 532h305l-11 -63h-228l-32 -169h198l-12 -61h-197l-33 -176h233l-12 -63h-311zM248 602l130 148h86l-144 -148h-72z" />
    <glyph glyph-name="ecircumflex.sc" unicode="&#xe22f;" horiz-adv-x="446" 
d="M37 0l100 532h305l-11 -63h-228l-32 -169h198l-12 -61h-197l-33 -176h233l-12 -63h-311zM160 602l131 148h67l74 -148h-61l-54 92l-88 -92h-69z" />
    <glyph glyph-name="edieresis.sc" unicode="&#xe231;" horiz-adv-x="446" 
d="M37 0l100 532h305l-11 -63h-228l-32 -169h198l-12 -61h-197l-33 -176h233l-12 -63h-311zM162 670q0 24 15.5 39t38.5 15q19 0 31 -12t12 -31q0 -23 -15.5 -38.5t-37.5 -15.5q-19 0 -31.5 12t-12.5 31zM364 670q0 24 15.5 39t38.5 15q19 0 31 -12t12 -31
q0 -23 -15.5 -38.5t-38.5 -15.5q-19 0 -31 12t-12 31z" />
    <glyph glyph-name="igrave.sc" unicode="&#xe23c;" horiz-adv-x="247" 
d="M37 0l100 532h79l-100 -532h-79zM175 602l-87 148h75l74 -148h-62z" />
    <glyph glyph-name="iacute.sc" unicode="&#xe23d;" horiz-adv-x="247" 
d="M37 0l100 532h79l-100 -532h-79zM138 602l130 148h86l-144 -148h-72z" />
    <glyph glyph-name="icircumflex.sc" unicode="&#xe23e;" horiz-adv-x="247" 
d="M37 0l100 532h79l-100 -532h-79zM50 602l131 148h67l74 -148h-61l-54 92l-88 -92h-69z" />
    <glyph glyph-name="idieresis.sc" unicode="&#xe240;" horiz-adv-x="247" 
d="M37 0l100 532h79l-100 -532h-79zM52 670q0 24 15.5 39t38.5 15q19 0 31 -12t12 -31q0 -23 -15.5 -38.5t-37.5 -15.5q-19 0 -31.5 12t-12.5 31zM254 670q0 24 15.5 39t38.5 15q19 0 31 -12t12 -31q0 -23 -15.5 -38.5t-38.5 -15.5q-19 0 -31 12t-12 31z" />
    <glyph glyph-name="idotaccent.sc" unicode="&#xe243;" horiz-adv-x="247" 
d="M37 0l100 532h79l-100 -532h-79zM152 670q0 24 16 39.5t39 15.5q19 0 31.5 -12.5t12.5 -31.5q0 -23 -15.5 -38.5t-38.5 -15.5q-20 0 -32.5 12t-12.5 31z" />
    <glyph glyph-name="lslash.sc" unicode="&#xe24c;" horiz-adv-x="417" 
d="M49 0l38 201l-70 -27l13 68l69 27l49 263h79l-43 -228l138 54l-13 -67l-137 -55l-32 -172h217l-13 -64h-295z" />
    <glyph glyph-name="ntilde.sc" unicode="&#xe24f;" horiz-adv-x="579" 
d="M37 0l100 532h65l196 -404l76 404h74l-100 -532h-65l-196 404l-75 -404h-75zM210 630q8 46 35.5 74.5t66.5 28.5q30 0 65 -28.5t50 -28.5q18 0 31 12.5t16 33.5h54q-8 -46 -35.5 -74.5t-66.5 -28.5q-30 0 -66 28.5t-50 28.5q-17 0 -30 -12.5t-17 -33.5h-53z" />
    <glyph glyph-name="ograve.sc" unicode="&#xe252;" horiz-adv-x="579" 
d="M45 205q0 148 81 243.5t206 95.5q94 0 151.5 -60t57.5 -157q0 -148 -81.5 -243.5t-207.5 -95.5q-93 0 -150 60t-57 157zM126 212q0 -72 36 -115t97 -43q83 0 141.5 77t58.5 189q0 72 -36 114.5t-97 42.5q-84 0 -142 -77t-58 -188zM341 602l-87 148h75l74 -148h-62z" />
    <glyph glyph-name="oacute.sc" unicode="&#xe253;" horiz-adv-x="579" 
d="M45 205q0 148 81 243.5t206 95.5q94 0 151.5 -60t57.5 -157q0 -148 -81.5 -243.5t-207.5 -95.5q-93 0 -150 60t-57 157zM126 212q0 -72 36 -115t97 -43q83 0 141.5 77t58.5 189q0 72 -36 114.5t-97 42.5q-84 0 -142 -77t-58 -188zM304 602l130 148h86l-144 -148h-72z" />
    <glyph glyph-name="ocircumflex.sc" unicode="&#xe254;" horiz-adv-x="579" 
d="M45 205q0 148 81 243.5t206 95.5q94 0 151.5 -60t57.5 -157q0 -148 -81.5 -243.5t-207.5 -95.5q-93 0 -150 60t-57 157zM126 212q0 -72 36 -115t97 -43q83 0 141.5 77t58.5 189q0 72 -36 114.5t-97 42.5q-84 0 -142 -77t-58 -188zM216 602l131 148h67l74 -148h-61l-54 92
l-88 -92h-69z" />
    <glyph glyph-name="otilde.sc" unicode="&#xe255;" horiz-adv-x="579" 
d="M45 205q0 148 81 243.5t206 95.5q94 0 151.5 -60t57.5 -157q0 -148 -81.5 -243.5t-207.5 -95.5q-93 0 -150 60t-57 157zM126 212q0 -72 36 -115t97 -43q83 0 141.5 77t58.5 189q0 72 -36 114.5t-97 42.5q-84 0 -142 -77t-58 -188zM210 630q8 46 35.5 74.5t66.5 28.5
q30 0 65 -28.5t50 -28.5q18 0 31 12.5t16 33.5h54q-8 -46 -35.5 -74.5t-66.5 -28.5q-30 0 -66 28.5t-50 28.5q-17 0 -30 -12.5t-17 -33.5h-53z" />
    <glyph glyph-name="odieresis.sc" unicode="&#xe256;" horiz-adv-x="579" 
d="M45 205q0 148 81 243.5t206 95.5q94 0 151.5 -60t57.5 -157q0 -148 -81.5 -243.5t-207.5 -95.5q-93 0 -150 60t-57 157zM126 212q0 -72 36 -115t97 -43q83 0 141.5 77t58.5 189q0 72 -36 114.5t-97 42.5q-84 0 -142 -77t-58 -188zM218 670q0 24 15.5 39t38.5 15
q19 0 31 -12t12 -31q0 -23 -15.5 -38.5t-37.5 -15.5q-19 0 -31.5 12t-12.5 31zM420 670q0 24 15.5 39t38.5 15q19 0 31 -12t12 -31q0 -23 -15.5 -38.5t-38.5 -15.5q-19 0 -31 12t-12 31z" />
    <glyph glyph-name="oslash.sc" unicode="&#xe25a;" horiz-adv-x="579" 
d="M45 205q0 148 81.5 243.5t206.5 95.5q84 0 139 -50l36 38h65l-69 -74q37 -55 37 -131q0 -148 -81.5 -243.5t-207.5 -95.5q-84 0 -139 50l-36 -38h-65l69 73q-36 54 -36 132zM461 320q0 43 -14 76l-282 -302q35 -41 93 -41q85 0 144 77.5t59 189.5zM125 212q0 -45 13 -77
l283 303q-35 40 -94 40q-85 0 -143.5 -77t-58.5 -189z" />
    <glyph glyph-name="oe.sc" unicode="&#xe25c;" horiz-adv-x="739" 
d="M736 532l-12 -63h-228l-31 -169h197l-11 -61h-198l-33 -176h234l-12 -63h-376q-98 0 -159.5 57t-61.5 148q0 149 82 238t221 89h388zM342 64l76 404h-78q-95 0 -154.5 -71t-59.5 -185q0 -68 41 -108t113 -40h62z" />
    <glyph glyph-name="scaron.sc" unicode="&#xe262;" horiz-adv-x="434" 
d="M20 35l14 70q76 -53 144 -53q49 0 80 26t31 67q0 29 -21.5 51t-52.5 37t-62.5 32.5t-53 48t-21.5 72.5q0 68 52 113t134 45q73 0 146 -41l-13 -69q-67 45 -133 45q-47 0 -77 -25t-30 -63q0 -28 21.5 -49t52.5 -36t62 -32.5t52.5 -49t21.5 -74.5q0 -70 -53 -116t-136 -46
q-76 0 -158 47zM447 750l-130 -148h-67l-74 148h60l54 -92l89 92h68z" />
    <glyph glyph-name="germandbls.sc" unicode="&#xe265;" horiz-adv-x="579" 
d="M37 0l100 532h420l-10 -55l-142 -164q51 -12 82.5 -50t31.5 -87q0 -80 -57 -134t-141 -54q-56 0 -116 33l14 69q51 -37 102 -37t85 33t34 81q0 44 -32 70t-85 26h-14l11 54l130 152h-248l-88 -469h-77z" />
    <glyph glyph-name="ugrave.sc" unicode="&#xe269;" horiz-adv-x="579" 
d="M554 532l-66 -352q-16 -88 -80 -140t-156 -52q-82 0 -133.5 45t-51.5 118q0 23 5 51l61 330h79l-61 -329q-4 -19 -4 -42q0 -48 30.5 -77.5t81.5 -29.5q58 0 99 35.5t52 96.5l65 346h79zM341 602l-87 148h75l74 -148h-62z" />
    <glyph glyph-name="uacute.sc" unicode="&#xe26a;" horiz-adv-x="579" 
d="M554 532l-66 -352q-16 -88 -80 -140t-156 -52q-82 0 -133.5 45t-51.5 118q0 23 5 51l61 330h79l-61 -329q-4 -19 -4 -42q0 -48 30.5 -77.5t81.5 -29.5q58 0 99 35.5t52 96.5l65 346h79zM304 602l130 148h86l-144 -148h-72z" />
    <glyph glyph-name="ucircumflex.sc" unicode="&#xe26b;" horiz-adv-x="579" 
d="M554 532l-66 -352q-16 -88 -80 -140t-156 -52q-82 0 -133.5 45t-51.5 118q0 23 5 51l61 330h79l-61 -329q-4 -19 -4 -42q0 -48 30.5 -77.5t81.5 -29.5q58 0 99 35.5t52 96.5l65 346h79zM216 602l131 148h67l74 -148h-61l-54 92l-88 -92h-69z" />
    <glyph glyph-name="udieresis.sc" unicode="&#xe26d;" horiz-adv-x="579" 
d="M554 532l-66 -352q-16 -88 -80 -140t-156 -52q-82 0 -133.5 45t-51.5 118q0 23 5 51l61 330h79l-61 -329q-4 -19 -4 -42q0 -48 30.5 -77.5t81.5 -29.5q58 0 99 35.5t52 96.5l65 346h79zM218 670q0 24 15.5 39t38.5 15q19 0 31 -12t12 -31q0 -23 -15.5 -38.5t-37.5 -15.5
q-19 0 -31.5 12t-12.5 31zM420 670q0 24 15.5 39t38.5 15q19 0 31 -12t12 -31q0 -23 -15.5 -38.5t-38.5 -15.5q-19 0 -31 12t-12 31z" />
    <glyph glyph-name="yacute.sc" unicode="&#xe278;" horiz-adv-x="476" 
d="M147 0l43 229l-126 303h84l92 -235l179 235h96l-247 -310l-42 -222h-79zM250 602l130 148h86l-144 -148h-72z" />
    <glyph glyph-name="ydieresis.sc" unicode="&#xe27a;" horiz-adv-x="476" 
d="M147 0l43 229l-126 303h84l92 -235l179 235h96l-247 -310l-42 -222h-79zM164 670q0 24 15.5 39t38.5 15q19 0 31 -12t12 -31q0 -23 -15.5 -38.5t-37.5 -15.5q-19 0 -31.5 12t-12.5 31zM366 670q0 24 15.5 39t38.5 15q19 0 31 -12t12 -31q0 -23 -15.5 -38.5t-38.5 -15.5
q-19 0 -31 12t-12 31z" />
    <glyph glyph-name="zcaron.sc" unicode="&#xe27c;" horiz-adv-x="493" 
d="M-4 0l10 55l374 413h-282l12 64h382l-10 -55l-374 -413h301l-12 -64h-401zM476 750l-130 -148h-67l-74 148h60l54 -92l89 92h68z" />
    <glyph glyph-name="eth.sc" unicode="&#xe27f;" horiz-adv-x="567" 
d="M49 0l45 242h-75l10 55h75l44 235h159q98 0 160 -57t62 -148q0 -149 -82.5 -238t-221.5 -89h-176zM214 468l-31 -171h122l-11 -55h-122l-33 -178h95q96 0 155 70.5t59 185.5q0 68 -41 108t-113 40h-80z" />
    <glyph glyph-name="thorn.sc" unicode="&#xe280;" horiz-adv-x="473" 
d="M37 0l100 532h77l-18 -96h83q73 0 116 -38t43 -103q0 -82 -61.5 -136.5t-153.5 -54.5h-90l-19 -104h-77zM184 375l-40 -210h80q60 0 97.5 33.5t37.5 87.5q0 41 -27.5 65t-74.5 24h-73z" />
    <glyph glyph-name="quoteleft.sc" unicode="&#xe281;" horiz-adv-x="250" 
d="M258 532l-116 -208h-83l127 208h72z" />
    <glyph glyph-name="quoteright.sc" unicode="&#xe282;" horiz-adv-x="250" 
d="M59 324l116 208h83l-127 -208h-72z" />
    <glyph glyph-name="quotedblleft.sc" unicode="&#xe283;" horiz-adv-x="419" 
d="M427 532l-116 -208h-83l126 208h73zM258 532l-116 -208h-83l127 208h72z" />
    <glyph glyph-name="quotedblright.sc" unicode="&#xe284;" horiz-adv-x="419" 
d="M59 324l116 208h83l-127 -208h-72zM228 324l115 208h84l-127 -208h-72z" />
    <glyph glyph-name="exclam.sc" unicode="&#xe285;" horiz-adv-x="244" 
d="M67 159l70 373h77l-71 -373h-76zM35 32q0 23 15.5 38t38.5 15q19 0 31 -12t12 -31q0 -23 -15.5 -38.5t-38.5 -15.5q-19 0 -31 12.5t-12 31.5z" />
    <glyph glyph-name="exclamdown.sc" unicode="&#xe286;" horiz-adv-x="223" 
d="M173 373l-70 -373h-77l70 373h77zM205 500q0 -22 -15.5 -38t-38.5 -16q-19 0 -31.5 12t-12.5 31q0 23 15.5 39t38.5 16q19 0 31.5 -12.5t12.5 -31.5z" />
    <glyph glyph-name="question.sc" unicode="&#xe287;" horiz-adv-x="366" 
d="M106 159l5 23q7 33 25.5 60t39 45.5l40.5 35.5t33 38t13 45q0 31 -20.5 50.5t-52.5 19.5q-55 0 -119 -45l15 78q62 35 125 35q59 0 96.5 -36.5t37.5 -91.5q0 -35 -14.5 -64t-36.5 -49.5t-44.5 -39t-41.5 -42t-25 -49.5l-2 -13h-74zM78 32q0 23 15.5 38t38.5 15
q19 0 31 -12t12 -31q0 -23 -15.5 -38.5t-38.5 -15.5q-19 0 -31 12.5t-12 31.5z" />
    <glyph glyph-name="questiondown.sc" unicode="&#xe288;" horiz-adv-x="366" 
d="M264 373l-4 -23q-6 -33 -24 -60.5t-39 -46l-41 -35.5t-33.5 -38t-13.5 -45q0 -30 20.5 -49.5t52.5 -19.5q55 0 119 45l-14 -78q-63 -35 -126 -35q-59 0 -96.5 36.5t-37.5 90.5q0 35 15 64t37.5 49.5l45 39.5t41 42.5t23.5 49.5l2 13h73zM294 500q0 -23 -16 -38.5
t-39 -15.5q-19 0 -31 12t-12 31q0 23 15.5 39t38.5 16q19 0 31.5 -12.5t12.5 -31.5z" />
    <glyph glyph-name="slash.sc" unicode="&#xe289;" horiz-adv-x="313" 
d="M-30 -72l296 677h81l-295 -677h-82z" />
    <glyph glyph-name="parenleft.sc" unicode="&#xe28b;" horiz-adv-x="272" 
d="M58 196q0 116 46.5 221.5t134.5 186.5h91q-94 -79 -144.5 -183t-50.5 -220q0 -145 65 -273h-76q-66 130 -66 268z" />
    <glyph glyph-name="parenright.sc" unicode="&#xe28c;" horiz-adv-x="272" 
d="M219 336q0 -117 -46 -222.5t-134 -185.5h-91q94 79 144 182.5t50 219.5q0 144 -64 274h76q65 -132 65 -268z" />
    <glyph glyph-name="bracketleft.sc" unicode="&#xe28d;" horiz-adv-x="272" 
d="M23 -72l127 676h157l-11 -60h-81l-105 -556h81l-11 -60h-157z" />
    <glyph glyph-name="bracketright.sc" unicode="&#xe28e;" horiz-adv-x="272" 
d="M255 604l-127 -676h-157l11 60h81l104 556h-81l12 60h157z" />
    <glyph glyph-name="braceleft.sc" unicode="&#xe28f;" horiz-adv-x="272" 
d="M307 604l-11 -60h-13q-29 0 -48.5 -17t-24.5 -46l-23 -128q-12 -67 -85 -90q24 -7 37.5 -28.5t13.5 -49.5q0 -4 -0.5 -8.5t-1.5 -10t-1 -8.5l-19 -99q-2 -14 -2 -21q0 -23 14 -36.5t38 -13.5h11l-12 -60h-18q-51 0 -80.5 28t-29.5 75q0 11 4 31l19 101q0 3 1 7.5t1.5 8.5
t0.5 8q0 20 -13.5 34t-33.5 14h-9l12 61h7q25 0 45 20t27 52l25 129q9 49 48 78t96 29h25z" />
    <glyph glyph-name="braceright.sc" unicode="&#xe290;" horiz-adv-x="272" 
d="M-29 -72l11 60h13q28 0 47.5 17t25.5 46l24 127q13 70 84 90q-24 8 -37 29.5t-13 49.5q0 13 3 27l17 98q3 10 3 22q0 23 -14 36.5t-38 13.5h-11l12 60h18q51 0 80.5 -28t29.5 -75q0 -12 -4 -32l-19 -100q-2 -16 -2 -24q0 -21 12.5 -35t33.5 -14h8l-11 -61h-7
q-26 0 -46 -19.5t-26 -51.5l-24 -130q-9 -49 -48 -77.5t-97 -28.5h-25z" />
    <glyph glyph-name="ampersand.sc" unicode="&#xe291;" horiz-adv-x="491" 
d="M499 299l-11 -59h-95l-39 -212q-80 -40 -165 -40q-67 0 -113.5 40t-46.5 97q0 55 35 97t93 57q-31 16 -48.5 45t-17.5 63q0 66 50.5 111.5t125.5 45.5q61 0 129 -33l-12 -66q-52 34 -110 34q-46 0 -75 -26.5t-29 -67.5q0 -36 27.5 -61t69.5 -25h232zM108 134
q0 -35 27 -58.5t67 -23.5q39 0 83 18l31 170h-71q-60 0 -98.5 -29.5t-38.5 -76.5z" />
    <glyph glyph-name="at.sc" unicode="&#xe292;" horiz-adv-x="767" 
d="M562 435l-43 -230q-2 -10 -2 -16q0 -15 11 -25t27 -10q45 0 78.5 54.5t33.5 132.5q0 98 -65.5 158.5t-168.5 60.5q-139 0 -229.5 -100t-90.5 -249q0 -107 66.5 -173.5t175.5 -66.5q84 0 178 47l-12 -64q-88 -40 -173 -40q-136 0 -220 81t-84 210q0 180 111.5 296.5
t284.5 116.5q128 0 211.5 -76t83.5 -194q0 -108 -57.5 -183.5t-139.5 -75.5q-57 0 -84 43q-49 -43 -107 -43q-53 0 -87.5 38t-34.5 98q0 94 49.5 156t123.5 62q48 0 88 -33l4 25h72zM299 235q0 -39 19 -61t52 -22q37 0 74 34l31 165q-30 29 -68 29q-46 0 -77 -42t-31 -103z
" />
    <glyph glyph-name="zero.sc" unicode="&#xe300;" horiz-adv-x="493" 
d="M51 184q0 152 68.5 256t171.5 104q73 0 115 -53t42 -143q0 -152 -68.5 -256t-172.5 -104q-72 0 -114 53t-42 143zM129 192q0 -63 23.5 -100.5t61.5 -37.5q65 0 111 84.5t46 201.5q0 63 -24 100t-63 37q-64 0 -109.5 -84.5t-45.5 -200.5z" />
    <glyph glyph-name="one.sc" unicode="&#xe301;" horiz-adv-x="331" 
d="M119 0l84 445l-147 -67l14 75l175 79h53l-100 -532h-79z" />
    <glyph glyph-name="two.sc" unicode="&#xe302;" horiz-adv-x="409" 
d="M-16 0l11 56q302 212 302 333q0 39 -22.5 62.5t-60.5 23.5q-67 0 -137 -47l15 79q67 37 141 37q64 0 105 -40t41 -102q0 -71 -67.5 -152.5t-202.5 -183.5h215l-13 -66h-327z" />
    <glyph glyph-name="three.sc" unicode="&#xe303;" horiz-adv-x="403" 
d="M128 239l12 61h29q54 0 89.5 29.5t35.5 74.5q0 32 -24 53.5t-62 21.5q-59 0 -124 -35l13 72q64 28 126 28q64 0 106.5 -36t42.5 -91q0 -51 -32 -92t-83 -57q37 -13 59 -43.5t22 -70.5q0 -72 -56 -119t-142 -47q-75 0 -145 44l13 68q64 -47 130 -47q52 0 86.5 29t34.5 73
q0 38 -29.5 61t-76.5 23h-25z" />
    <glyph glyph-name="four.sc" unicode="&#xe304;" horiz-adv-x="454" 
d="M218 0l27 140h-237l11 58l305 334h68l-62 -330h84l-11 -62h-84l-26 -140h-75zM96 202h159l41 219z" />
    <glyph glyph-name="five.sc" unicode="&#xe305;" horiz-adv-x="409" 
d="M388 532l-12 -65h-203l-26 -143q23 4 47 4q68 0 112.5 -41.5t44.5 -105.5q0 -84 -60 -138.5t-153 -54.5q-67 0 -132 38l14 71q58 -43 118 -43q56 0 94 33.5t38 85.5q0 43 -30 69.5t-79 26.5q-45 0 -97 -12l52 275h272z" />
    <glyph glyph-name="six.sc" unicode="&#xe306;" horiz-adv-x="450" 
d="M276 532h108q-159 -106 -227 -222q43 29 96 29q62 0 103.5 -42.5t41.5 -105.5q0 -85 -58.5 -144t-143.5 -59q-71 0 -115.5 46.5t-44.5 120.5q0 98 62 196t178 181zM127 230q-13 -32 -13 -72q0 -46 24.5 -75t64.5 -29q47 0 82 38t35 90q0 40 -24.5 66t-62.5 26
q-57 0 -106 -44z" />
    <glyph glyph-name="seven.sc" unicode="&#xe307;" horiz-adv-x="370" 
d="M10 0l284 466h-248l13 66h338l-9 -50l-293 -482h-85z" />
    <glyph glyph-name="eight.sc" unicode="&#xe308;" horiz-adv-x="454" 
d="M83 378q0 69 55 117.5t134 48.5q64 0 106.5 -37.5t42.5 -92.5q0 -50 -28.5 -87.5t-79.5 -57.5q35 -13 55 -43t20 -69q0 -73 -57.5 -121t-144.5 -48q-66 0 -112.5 39.5t-46.5 93.5t33 95.5t89 58.5q-30 14 -48 41.5t-18 61.5zM103 132q0 -35 25.5 -58.5t64.5 -23.5
q52 0 85.5 30.5t33.5 77.5q0 35 -25 58.5t-64 23.5q-53 0 -86.5 -30.5t-33.5 -77.5zM158 378q0 -35 23 -57t59 -22q45 0 76 30.5t31 74.5q0 34 -23 55.5t-59 21.5q-45 0 -76 -30t-31 -73z" />
    <glyph glyph-name="nine.sc" unicode="&#xe309;" horiz-adv-x="450" 
d="M179 0h-108q162 108 227 222q-45 -30 -97 -30q-61 0 -102 42.5t-41 106.5q0 85 58.5 144t143.5 59q70 0 115 -46.5t45 -120.5q0 -98 -62.5 -196t-178.5 -181zM329 302q13 36 13 72q0 46 -24.5 74.5t-64.5 28.5q-48 0 -83 -37.5t-35 -89.5q0 -40 24.5 -66.5t63.5 -26.5
q55 0 106 45z" />
    <glyph glyph-name="dollar.sc" unicode="&#xe30a;" horiz-adv-x="438" 
d="M120 -94l21 112q-51 9 -105 38l12 69q68 -47 134 -47q43 0 70 21.5t27 57.5q0 26 -19.5 45.5t-47.5 33t-55.5 29.5t-47 43.5t-19.5 65.5q0 57 39.5 95.5t104.5 45.5l21 111h69l-21 -112q46 -9 93 -34l-12 -67q-62 40 -122 40q-41 0 -67 -20.5t-26 -53.5q0 -25 19.5 -43.5
t47.5 -32.5t55.5 -30t47 -44.5t19.5 -67.5q0 -59 -40.5 -98t-108.5 -46l-20 -111h-69z" />
    <glyph glyph-name="cent.sc" unicode="&#xe30b;" horiz-adv-x="438" 
d="M158 -47l21 117q-51 14 -81.5 55t-30.5 98q0 97 52 164t135 78l21 114h68l-21 -114q39 -6 80 -31l-12 -64q-47 35 -98 35q-62 0 -104 -49t-42 -124q0 -47 28 -76t74 -29q51 0 102 30l-13 -69q-47 -22 -89 -23l-22 -112h-68z" />
    <glyph glyph-name="Euro.sc" unicode="&#xe30c;" horiz-adv-x="438" 
d="M-3 182l9 49h54q3 31 11 70h-52l9 49h58q33 88 97.5 141t144.5 53q64 0 126 -37l-12 -64q-50 37 -111 37q-53 0 -96.5 -35t-67.5 -95h171l-9 -49h-180q-9 -38 -10 -70h177l-10 -49h-165q5 -61 37 -96t85 -35t112 32l-14 -71q-54 -24 -115 -24q-80 0 -131.5 53.5
t-55.5 140.5h-62z" />
    <glyph glyph-name="sterling.sc" unicode="&#xe30d;" horiz-adv-x="438" 
d="M-2 0l9 49l91 192h-51l11 57h68l68 143q49 101 143 101q45 0 95 -26l-14 -65q-38 25 -70 25q-51 0 -78 -56l-60 -122h115l-11 -57h-130l-86 -177h266l-11 -64h-355z" />
    <glyph glyph-name="yen.sc" unicode="&#xe30e;" horiz-adv-x="438" 
d="M136 0l21 109h-115l10 49h114l13 73h-114l10 49h98l-107 252h84l84 -212l160 212h95l-200 -252h94l-9 -49h-115l-13 -73h114l-9 -49h-115l-21 -109h-79z" />
    <glyph glyph-name="hyphen.cap" unicode="&#xe600;" horiz-adv-x="313" 
d="M47 317l12 63h243l-12 -63h-243z" />
    <glyph glyph-name="uni00AD.cap" unicode="&#xe601;" horiz-adv-x="313" 
d="M47 317l12 63h243l-12 -63h-243z" />
    <glyph glyph-name="endash.cap" unicode="&#xe602;" horiz-adv-x="500" 
d="M47 317l12 63h431l-13 -63h-430z" />
    <glyph glyph-name="emdash.cap" unicode="&#xe603;" horiz-adv-x="1001" 
d="M47 317l12 63h930l-12 -63h-930z" />
    <glyph glyph-name="periodcentered.cap" unicode="&#xe604;" horiz-adv-x="250" 
d="M90 339q0 26 16.5 42.5t42.5 16.5q20 0 34 -13.5t14 -34.5q0 -25 -17 -42t-42 -17q-21 0 -34.5 13.5t-13.5 34.5z" />
    <glyph glyph-name="slash.cap" unicode="&#xe605;" horiz-adv-x="375" 
d="M-28 -93l382 875h84l-382 -875h-84z" />
    <glyph glyph-name="parenleft.cap" unicode="&#xe607;" horiz-adv-x="321" 
d="M82 253q0 153 61 290t177 239h94q-122 -101 -187.5 -235.5t-65.5 -285.5q0 -185 82 -354h-78q-83 169 -83 346z" />
    <glyph glyph-name="parenright.cap" unicode="&#xe608;" horiz-adv-x="321" 
d="M271 436q0 -153 -61 -290t-177 -239h-95q123 102 188.5 236.5t65.5 285.5q0 187 -83 353h78q84 -168 84 -346z" />
    <glyph glyph-name="bracketleft.cap" unicode="&#xe609;" horiz-adv-x="321" 
d="M41 -93l164 875h187l-12 -62h-108l-141 -751h108l-12 -62h-186z" />
    <glyph glyph-name="bracketright.cap" unicode="&#xe60a;" horiz-adv-x="321" 
d="M316 782l-165 -875h-186l11 62h109l141 751h-108l11 62h187z" />
    <glyph glyph-name="braceleft.cap" unicode="&#xe60b;" horiz-adv-x="321" 
d="M392 782l-12 -62h-16q-40 0 -67.5 -22.5t-34.5 -62.5l-33 -179q-18 -89 -108 -114q31 -10 48.5 -37t17.5 -62q0 -13 -4 -35l-27 -140q-4 -18 -4 -29q0 -32 19.5 -51t52.5 -19h15l-12 -62h-18q-63 0 -99 34t-36 93q0 14 4 38l27 141q4 22 4 33q0 28 -19 48t-47 20h-10
l12 61h9q34 0 62.5 27.5t36.5 69.5l34 179q11 61 58.5 96t119.5 35h27z" />
    <glyph glyph-name="braceright.cap" unicode="&#xe60c;" horiz-adv-x="321" 
d="M-35 -93l11 62h17q40 0 67 23t34 63l34 178q8 42 36.5 72t71.5 42q-31 10 -48.5 37t-17.5 62q0 13 4 35l26 140q5 25 5 29q0 33 -20 51.5t-53 18.5h-15l12 62h19q63 0 98.5 -34t35.5 -93q0 -21 -4 -38l-26 -141q-4 -22 -4 -33q0 -27 19 -47.5t46 -20.5h10l-11 -61h-9
q-35 0 -63.5 -27.5t-36.5 -69.5l-33 -179q-11 -61 -58.5 -96t-118.5 -35h-28z" />
    <glyph glyph-name="guilsinglleft.cap" unicode="&#xe60d;" horiz-adv-x="380" 
d="M391 552l-223 -211l141 -204h-80l-162 210l232 205h92z" />
    <glyph glyph-name="guilsinglright.cap" unicode="&#xe60e;" horiz-adv-x="380" 
d="M26 137l223 210l-141 205h80l162 -211l-233 -204h-91z" />
    <glyph glyph-name="guillemotleft.cap" unicode="&#xe60f;" horiz-adv-x="596" 
d="M606 552l-223 -211l141 -204h-80l-162 210l233 205h91zM391 552l-223 -211l141 -204h-80l-162 210l232 205h92z" />
    <glyph glyph-name="guillemotright.cap" unicode="&#xe610;" horiz-adv-x="596" 
d="M26 137l223 210l-141 205h80l162 -211l-233 -204h-91zM241 137l223 210l-141 205h80l162 -211l-232 -204h-92z" />
    <glyph glyph-name="exclamdown.cap" unicode="&#xe611;" horiz-adv-x="267" 
d="M218 493l-93 -493h-78l92 493h79zM259 652q0 -25 -17 -42t-42 -17q-21 0 -34.5 13.5t-13.5 34.5q0 25 17 42t42 17q21 0 34.5 -13t13.5 -35z" />
    <glyph glyph-name="questiondown.cap" unicode="&#xe612;" horiz-adv-x="444" 
d="M336 493l-5 -25q-8 -45 -32.5 -83t-53 -63.5l-56 -49.5t-46 -53.5t-18.5 -63.5q0 -44 28 -71t74 -27q76 0 156 62l-16 -85q-71 -45 -159 -45q-73 0 -120 44t-47 112q0 55 30 102t66.5 76t73 70.5t46.5 84.5l3 15h76zM373 653q0 -25 -17 -42t-42 -17q-21 0 -34.5 13.5
t-13.5 34.5q0 25 17 42t42 17q21 0 34.5 -13.5t13.5 -34.5z" />
    <glyph glyph-name="at.cap" unicode="&#xe613;" horiz-adv-x="978" 
d="M724 563l-58 -311q-3 -10 -3 -21q0 -21 15 -35t38 -14q62 0 107.5 76t45.5 187q0 130 -84 207.5t-222 77.5q-184 0 -305 -131.5t-121 -328.5q0 -141 87.5 -226.5t232.5 -85.5q109 0 230 62l-13 -72q-114 -54 -223 -54q-173 0 -281 102.5t-108 267.5q0 230 143 380
t363 150q164 0 270 -95.5t106 -246.5q0 -141 -71 -238.5t-174 -97.5q-76 0 -104 54q-67 -54 -140 -54q-70 0 -113.5 48t-43.5 125q0 124 63.5 204t161.5 80q63 0 118 -45l6 35h77zM377 299q0 -55 27 -86.5t74 -31.5q53 0 106 51l45 233q-45 42 -98 42q-66 0 -110 -59.5
t-44 -148.5z" />
    <glyph glyph-name="arrowleft.cap" unicode="&#xe680;" horiz-adv-x="1000" 
d="M937 307h-728l244 -244h-108l-282 282l282 282h108l-244 -244h728v-76z" />
    <glyph glyph-name="arrowup.cap" unicode="&#xe681;" horiz-adv-x="1000" 
d="M462 -92v728l-244 -244v108l282 282l282 -282v-108l-244 244v-728h-76z" />
    <glyph glyph-name="arrowright.cap" unicode="&#xe682;" horiz-adv-x="1000" 
d="M63 383h728l-244 244h108l282 -282l-282 -282h-108l244 244h-728v76z" />
    <glyph glyph-name="arrowdown.cap" unicode="&#xe683;" horiz-adv-x="1000" 
d="M538 782v-728l244 244v-108l-282 -282l-282 282v108l244 -244v728h76z" />
    <glyph glyph-name="uni2196.cap" unicode="&#xe684;" horiz-adv-x="1000" 
d="M782 9l-515 515v-345l-76 76v399h399l76 -76h-345l515 -515z" />
    <glyph glyph-name="uni2197.cap" unicode="&#xe685;" horiz-adv-x="1000" 
d="M164 63l515 515h-345l76 76h399v-399l-76 -76v345l-515 -515z" />
    <glyph glyph-name="uni2198.cap" unicode="&#xe686;" horiz-adv-x="1000" 
d="M218 681l515 -515v345l76 -76v-399h-399l-76 76h345l-515 515z" />
    <glyph glyph-name="uni2199.cap" unicode="&#xe687;" horiz-adv-x="1000" 
d="M836 627l-515 -515h345l-76 -76h-399v399l76 76v-345l515 515z" />
    <glyph glyph-name="grave.cap" unicode="&#xe800;" horiz-adv-x="250" 
d="M171 759l-87 148h75l74 -148h-62z" />
    <glyph glyph-name="acute.cap" unicode="&#xe801;" horiz-adv-x="250" 
d="M134 759l130 148h86l-144 -148h-72z" />
    <glyph glyph-name="circumflex.cap" unicode="&#xe802;" horiz-adv-x="250" 
d="M46 759l131 148h67l74 -148h-61l-54 92l-88 -92h-69z" />
    <glyph glyph-name="caron.cap" unicode="&#xe803;" horiz-adv-x="250" 
d="M349 907l-130 -148h-67l-74 148h60l54 -92l89 92h68z" />
    <glyph glyph-name="tilde.cap" unicode="&#xe804;" horiz-adv-x="250" 
d="M40 787q8 46 35.5 74.5t66.5 28.5q30 0 65 -28.5t50 -28.5q18 0 31 12.5t16 33.5h54q-8 -46 -35.5 -74.5t-66.5 -28.5q-30 0 -66 28.5t-50 28.5q-17 0 -30 -12.5t-17 -33.5h-53z" />
    <glyph glyph-name="dieresis.cap" unicode="&#xe805;" horiz-adv-x="250" 
d="M48 827q0 24 15.5 39t38.5 15q19 0 31 -12t12 -31q0 -23 -15.5 -38.5t-37.5 -15.5q-19 0 -31.5 12t-12.5 31zM250 827q0 24 15.5 39t38.5 15q19 0 31 -12t12 -31q0 -23 -15.5 -38.5t-38.5 -15.5q-19 0 -31 12t-12 31z" />
    <glyph glyph-name="macron.cap" unicode="&#xe806;" horiz-adv-x="250" 
d="M42 805l11 57h302l-11 -57h-302z" />
    <glyph glyph-name="breve.cap" unicode="&#xe807;" horiz-adv-x="250" 
d="M77 907h55q-1 -7 -1 -19q0 -29 20 -47.5t51 -18.5q36 0 60.5 23t30.5 62h57q-9 -69 -49.5 -106.5t-105.5 -37.5q-52 0 -86.5 33t-34.5 81q0 13 3 30z" />
    <glyph glyph-name="ring.cap" unicode="&#xe808;" horiz-adv-x="250" 
d="M102 823q0 45 30.5 75.5t75.5 30.5q38 0 62 -24t24 -62q0 -45 -30 -75.5t-75 -30.5q-38 0 -62.5 24t-24.5 62zM146 828q0 -21 13 -34.5t34 -13.5q25 0 41.5 16.5t16.5 41.5q0 21 -13 34.5t-34 13.5q-25 0 -41.5 -16.5t-16.5 -41.5z" />
    <glyph glyph-name="hungarumlaut.cap" unicode="&#xe80a;" horiz-adv-x="250" 
d="M220 759l130 148h87l-144 -148h-73zM46 759l131 148h87l-144 -148h-74z" />
    <glyph glyph-name="dotaccent.cap" unicode="&#xe80b;" horiz-adv-x="250" 
d="M148 827q0 24 16 39.5t39 15.5q19 0 31.5 -12.5t12.5 -31.5q0 -23 -15.5 -38.5t-38.5 -15.5q-20 0 -32.5 12t-12.5 31z" />
    <glyph glyph-name="commaaccent" unicode="&#xea00;" horiz-adv-x="250" 
d="M-59 -242l94 172h78l-105 -172h-67z" />
    <glyph glyph-name="commaaccent.alt" unicode="&#xea01;" horiz-adv-x="250" 
d="M309 743l-94 -172h-78l105 172h67z" />
    <glyph glyph-name="caron.alt" unicode="&#xea02;" horiz-adv-x="250" 
d="M160 571l81 148h73l-89 -148h-65z" />
    <glyph glyph-name="a.alt" unicode="&#xec00;" horiz-adv-x="503" 
d="M305 0l9 47q-70 -59 -152 -59q-64 0 -103 35t-39 93q0 81 71.5 134t181.5 53q38 0 86 -5l6 32q3 16 3 32q0 38 -27 62.5t-70 24.5q-75 0 -155 -42l13 71q80 34 155 34q70 0 116 -38.5t46 -97.5q0 -29 -5 -49l-61 -327h-75zM100 128q0 -35 23.5 -56t64.5 -21q73 0 137 66
l24 128q-43 5 -76 5q-76 0 -124.5 -34.5t-48.5 -87.5z" />
    <glyph glyph-name="agrave.alt" unicode="&#xec01;" horiz-adv-x="503" 
d="M305 0l9 47q-70 -59 -152 -59q-64 0 -103 35t-39 93q0 81 71.5 134t181.5 53q38 0 86 -5l6 32q3 16 3 32q0 38 -27 62.5t-70 24.5q-75 0 -155 -42l13 71q80 34 155 34q70 0 116 -38.5t46 -97.5q0 -29 -5 -49l-61 -327h-75zM100 128q0 -35 23.5 -56t64.5 -21q73 0 137 66
l24 128q-43 5 -76 5q-76 0 -124.5 -34.5t-48.5 -87.5zM296 571l-87 148h75l74 -148h-62z" />
    <glyph glyph-name="aacute.alt" unicode="&#xec02;" horiz-adv-x="503" 
d="M305 0l9 47q-70 -59 -152 -59q-64 0 -103 35t-39 93q0 81 71.5 134t181.5 53q38 0 86 -5l6 32q3 16 3 32q0 38 -27 62.5t-70 24.5q-75 0 -155 -42l13 71q80 34 155 34q70 0 116 -38.5t46 -97.5q0 -29 -5 -49l-61 -327h-75zM100 128q0 -35 23.5 -56t64.5 -21q73 0 137 66
l24 128q-43 5 -76 5q-76 0 -124.5 -34.5t-48.5 -87.5zM259 571l130 148h86l-144 -148h-72z" />
    <glyph glyph-name="acircumflex.alt" unicode="&#xec03;" horiz-adv-x="503" 
d="M305 0l9 47q-70 -59 -152 -59q-64 0 -103 35t-39 93q0 81 71.5 134t181.5 53q38 0 86 -5l6 32q3 16 3 32q0 38 -27 62.5t-70 24.5q-75 0 -155 -42l13 71q80 34 155 34q70 0 116 -38.5t46 -97.5q0 -29 -5 -49l-61 -327h-75zM100 128q0 -35 23.5 -56t64.5 -21q73 0 137 66
l24 128q-43 5 -76 5q-76 0 -124.5 -34.5t-48.5 -87.5zM171 571l131 148h67l74 -148h-61l-54 92l-88 -92h-69z" />
    <glyph glyph-name="atilde.alt" unicode="&#xec04;" horiz-adv-x="503" 
d="M305 0l9 47q-70 -59 -152 -59q-64 0 -103 35t-39 93q0 81 71.5 134t181.5 53q38 0 86 -5l6 32q3 16 3 32q0 38 -27 62.5t-70 24.5q-75 0 -155 -42l13 71q80 34 155 34q70 0 116 -38.5t46 -97.5q0 -29 -5 -49l-61 -327h-75zM100 128q0 -35 23.5 -56t64.5 -21q73 0 137 66
l24 128q-43 5 -76 5q-76 0 -124.5 -34.5t-48.5 -87.5zM165 599q8 46 35.5 74.5t66.5 28.5q29 0 65 -28.5t50 -28.5q18 0 31 12.5t16 33.5h54q-8 -46 -35.5 -74.5t-66.5 -28.5q-30 0 -66 28.5t-50 28.5q-17 0 -30 -12.5t-17 -33.5h-53z" />
    <glyph glyph-name="adieresis.alt" unicode="&#xec05;" horiz-adv-x="503" 
d="M305 0l9 47q-70 -59 -152 -59q-64 0 -103 35t-39 93q0 81 71.5 134t181.5 53q38 0 86 -5l6 32q3 16 3 32q0 38 -27 62.5t-70 24.5q-75 0 -155 -42l13 71q80 34 155 34q70 0 116 -38.5t46 -97.5q0 -29 -5 -49l-61 -327h-75zM100 128q0 -35 23.5 -56t64.5 -21q73 0 137 66
l24 128q-43 5 -76 5q-76 0 -124.5 -34.5t-48.5 -87.5zM173 639q0 24 15.5 39t38.5 15q19 0 31 -12t12 -31q0 -23 -15.5 -38.5t-37.5 -15.5q-19 0 -31.5 12t-12.5 31zM375 639q0 24 15.5 39t38.5 15q19 0 31 -12t12 -31q0 -23 -15.5 -38.5t-38.5 -15.5q-19 0 -31 12t-12 31z
" />
    <glyph glyph-name="aring.alt" unicode="&#xec06;" horiz-adv-x="503" 
d="M305 0l9 47q-70 -59 -152 -59q-64 0 -103 35t-39 93q0 81 71.5 134t181.5 53q38 0 86 -5l6 32q3 16 3 32q0 38 -27 62.5t-70 24.5q-75 0 -155 -42l13 71q80 34 155 34q70 0 116 -38.5t46 -97.5q0 -29 -5 -49l-61 -327h-75zM100 128q0 -35 23.5 -56t64.5 -21q73 0 137 66
l24 128q-43 5 -76 5q-76 0 -124.5 -34.5t-48.5 -87.5zM227 635q0 45 30.5 75.5t75.5 30.5q38 0 62 -24t24 -62q0 -45 -30 -75.5t-75 -30.5q-38 0 -62.5 24t-24.5 62zM271 640q0 -21 13 -34.5t34 -13.5q25 0 41.5 16.5t16.5 41.5q0 21 -13 34.5t-34 13.5q-25 0 -41.5 -16.5
t-16.5 -41.5z" />
    <glyph glyph-name="l.alt" unicode="&#xec0b;" horiz-adv-x="305" 
d="M247 719l-110 -585q-3 -14 -3 -29q0 -23 16 -37t41 -14q32 0 69 17l-13 -70q-41 -13 -77 -13q-52 0 -84 29t-32 75q0 18 3 35l111 592h79z" />
    <glyph glyph-name="y.alt" unicode="&#xec11;" horiz-adv-x="552" 
d="M519 500l-98 -523q-18 -97 -82.5 -152.5t-158.5 -55.5q-87 0 -172 45l13 70q80 -51 159 -51q61 0 105 40.5t57 107.5l13 68q-73 -61 -153 -61q-62 0 -103.5 40t-41.5 100q0 26 6 53l60 319h79l-59 -316q-4 -16 -4 -38q0 -41 25 -65.5t67 -24.5q66 0 138 70l71 374h79z
" />
    <glyph glyph-name="yacute.alt" unicode="&#xec13;" horiz-adv-x="552" 
d="M519 500l-98 -523q-18 -97 -82.5 -152.5t-158.5 -55.5q-87 0 -172 45l13 70q80 -51 159 -51q61 0 105 40.5t57 107.5l13 68q-73 -61 -153 -61q-62 0 -103.5 40t-41.5 100q0 26 6 53l60 319h79l-59 -316q-4 -16 -4 -38q0 -41 25 -65.5t67 -24.5q66 0 138 70l71 374h79z
M283 571l130 148h86l-144 -148h-72z" />
    <glyph glyph-name="ydieresis.alt" unicode="&#xec15;" horiz-adv-x="552" 
d="M519 500l-98 -523q-18 -97 -82.5 -152.5t-158.5 -55.5q-87 0 -172 45l13 70q80 -51 159 -51q61 0 105 40.5t57 107.5l13 68q-73 -61 -153 -61q-62 0 -103.5 40t-41.5 100q0 26 6 53l60 319h79l-59 -316q-4 -16 -4 -38q0 -41 25 -65.5t67 -24.5q66 0 138 70l71 374h79z
M197 639q0 24 15.5 39t38.5 15q19 0 31 -12t12 -31q0 -23 -15.5 -38.5t-37.5 -15.5q-19 0 -31.5 12t-12.5 31zM399 639q0 24 15.5 39t38.5 15q19 0 31 -12t12 -31q0 -23 -15.5 -38.5t-38.5 -15.5q-19 0 -31 12t-12 31z" />
    <glyph glyph-name="fl.alt" unicode="&#xec16;" horiz-adv-x="634" 
d="M44 -141l108 578h-96l12 63h96l13 69q13 75 67 118.5t132 43.5q94 0 191 -57l-101 -540q-3 -14 -3 -29q0 -23 16 -37t42 -14q31 0 68 17l-13 -70q-42 -13 -77 -13q-52 0 -84.5 29t-32.5 75q0 20 4 35l95 512q-49 27 -101 27q-50 0 -83.5 -28t-42.5 -77l-11 -61h148
l-11 -63h-149l-108 -578h-79z" />
    <glyph glyph-name="f_f_l.alt" unicode="&#xec17;" horiz-adv-x="926" 
d="M44 -141l108 578h-96l12 63h96l18 100q11 61 53 96t103 35q54 0 112 -30l-13 -64q-47 28 -88 28q-35 0 -59 -20.5t-31 -57.5l-16 -87h213l12 69q13 74 67.5 118t132.5 44q94 0 191 -57l-101 -540q-3 -14 -3 -29q0 -23 15.5 -37t41.5 -14q32 0 69 17l-13 -70
q-42 -13 -77 -13q-52 0 -84.5 29t-32.5 75q0 18 3 35l96 512q-50 27 -101 27q-50 0 -83.5 -28t-42.5 -77l-12 -61h149l-12 -63h-148l-109 -578h-79l108 578h-212l-108 -578h-79z" />
    <glyph glyph-name="uniF8FF" unicode="&#xf8ff;" horiz-adv-x="500" 
d="M12 0v665h475v-665h-475zM88 618l162 -243l161 243h-323zM60 575v-484l40 61l80 120l41 61zM440 575l-162 -242l162 -243v485zM411 48l-161 242l-162 -242h323z" />
    <glyph glyph-name="backslash.sc" horiz-adv-x="313" 
d="M179 -72l-115 677h76l114 -677h-75z" />
    <glyph glyph-name="backslash.cap" horiz-adv-x="375" 
d="M258 -93l-182 875h79l181 -875h-78z" />
    <glyph glyph-name="dotlessi.sc" horiz-adv-x="247" 
d="M37 0l100 532h79l-100 -532h-79z" />
    <glyph glyph-name="lslash.alt" horiz-adv-x="327" 
d="M268 719l-57 -306l111 45l-13 -69l-112 -45l-39 -210q-3 -14 -3 -29q0 -23 16 -37t42 -14q30 0 69 17l-13 -70q-42 -13 -77 -13q-52 0 -84.5 29t-32.5 75q0 20 4 35l33 182l-97 -39l13 69l97 40l64 340h79z" />
    </font>
</defs>
</svg>
