<svg id="_1" data-name=" 1" xmlns="http://www.w3.org/2000/svg" viewBox="0 0 125.09 28.94"><defs><style>.cls-1{fill:#fff;}.cls-2{fill:#151a18;}.cls-2,.cls-3,.cls-4,.cls-5{fill-rule:evenodd;}.cls-3{fill:#397dea;}.cls-5{fill:#959595;}</style></defs><title>badge</title><rect id="Rounded_Rectangle_1" data-name="Rounded Rectangle 1" class="cls-1" width="125.09" height="28.94" rx="6"/><path class="cls-2" d="M81.92,11.41V9.08S73,7.05,73,11.67v5.42s-.33,4.2,9.08,2.34V17.19s-6.52,1.58-6.5-1.53V12S76,9.72,81.92,11.41ZM84,5h3v15H84V5Zm5,1h3V9H89Zm0,4h3V20H89Zm17-5.07h3v15h-3Z" transform="translate(-0.94 -0.03)"/><path class="cls-3" d="M93.72,11.39,96.16,9l2.78,2.57V13.9H96.16Zm10.79,0L102.07,9,100,11.57V13.9h2.09ZM93.72,17.58,96.16,20l2.78-2.57V15H96.16Zm11.2,0L102.47,20,100,17.4V15h2.5Z" transform="translate(-0.94 -0.03)"/><path id="y" class="cls-4" d="M112.18,21.5v2.14a3.49,3.49,0,0,0,1.2.1c2.36,0,3.23-1.39,4.18-3.9L121,9h-2.83L117,13.2c-.24.94-.46,1.89-.69,2.83h-.08c-.26-1-.5-1.93-.78-2.83L114,9h-3l3.83,10.47-.14.52A2,2,0,0,1,113,21.62,5.32,5.32,0,0,1,112.18,21.5Z" transform="translate(-0.94 -0.03)"/><path id="powered_by:_copy" data-name="powered by: copy" class="cls-5" d="M9.41,17.93h.83v-2.6h1.18c1.44,0,2.42-.65,2.42-2s-1-1.93-2.42-1.93h-2Zm.83-3.28V12h1.08c1.13,0,1.69.31,1.69,1.26s-.55,1.35-1.69,1.35Zm7.6,3.4c1.65,0,2.81-1.32,2.81-3.43s-1.16-3.37-2.81-3.37S15,12.52,15,14.62,16.19,18.05,17.84,18.05Zm0-.73c-1.17,0-1.94-1.06-1.94-2.7S16.67,12,17.84,12s1.94,1,1.94,2.64S19,17.32,17.84,17.32Zm5.13.61h1l1-3.95c.11-.51.23-1,.33-1.49h0c.1.51.2,1,.32,1.49l1,3.95h1L29,11.37h-.8l-.69,3.57c-.13.7-.25,1.41-.37,2.12h0c-.16-.71-.32-1.43-.48-2.12l-.91-3.57h-.76L24,14.94c-.15.7-.31,1.41-.46,2.12h0c-.12-.71-.26-1.41-.38-2.12l-.69-3.57h-.86Zm7.39,0h3.88v-.71H31.19V14.84h2.49v-.71H31.19V12.07h2.95v-.7H30.36ZM36.71,12h1.1c1,0,1.59.31,1.59,1.17s-.57,1.27-1.59,1.27h-1.1Zm3.71,5.89-1.66-2.86a1.79,1.79,0,0,0,1.47-1.86c0-1.36-1-1.84-2.3-1.84h-2v6.56h.83V15.16H37.9l1.58,2.77Zm1.52,0h3.88v-.71h-3V14.84h2.49v-.71H42.77V12.07h2.95v-.7H41.94Zm5.52,0h1.68c2,0,3.06-1.22,3.06-3.31s-1.08-3.25-3.1-3.25H47.46Zm.83-.68v-5.2H49c1.53,0,2.3.92,2.3,2.57s-.77,2.63-2.3,2.63Zm7.84.68h2.09c1.47,0,2.49-.63,2.49-1.92a1.54,1.54,0,0,0-1.51-1.57h0v0A1.44,1.44,0,0,0,60.33,13c0-1.15-.92-1.6-2.25-1.6H56.13v6.56ZM57,14.17V12h1c1,0,1.54.3,1.54,1s-.46,1.13-1.58,1.13Zm0,3.1V14.79H58.1c1.15,0,1.79.37,1.79,1.18s-.66,1.3-1.79,1.3Zm6.62.66h.84V15.39l2-4h-.87l-.84,1.85c-.2.48-.43.94-.66,1.43h0l-.63-1.43-.85-1.85h-.89l2,4Zm4.25-4.11a.6.6,0,0,0,.63.57.61.61,0,0,0,.57-.63.6.6,0,0,0-.6-.57.59.59,0,0,0-.61.58s0,0,0,.05Zm0,3.61a.6.6,0,0,0,.64.56.6.6,0,0,0,0-1.2.61.61,0,0,0-.61.59s0,0,0,.05Z" transform="translate(-0.94 -0.03)"/></svg>